<svg width="900" height="560" viewBox="0 0 900 560" fill="none" xmlns="http://www.w3.org/2000/svg">
  <defs>
    <linearGradient id="bg" x1="0" y1="0" x2="900" y2="560" gradientUnits="userSpaceOnUse">
      <stop stop-color="#07111F"/>
      <stop offset="1" stop-color="#0E2235"/>
    </linearGradient>
    <linearGradient id="card" x1="0" y1="0" x2="320" y2="180" gradientUnits="userSpaceOnUse">
      <stop stop-color="#14B8A6"/>
      <stop offset="1" stop-color="#38BDF8"/>
    </linearGradient>
  </defs>
  <rect width="900" height="560" rx="36" fill="url(#bg)"/>
  <rect x="30" y="30" width="840" height="500" rx="26" fill="#0B1728" stroke="#1E293B"/>
  <rect x="64" y="74" width="310" height="160" rx="20" fill="url(#card)"/>
  <text x="88" y="116" fill="#CFFAFE" font-size="22" font-family="Arial">Balance total</text>
  <text x="88" y="170" fill="white" font-size="44" font-weight="700" font-family="Arial">RD$ 152,840</text>
  <rect x="398" y="74" width="230" height="74" rx="16" fill="#12263A"/>
  <text x="420" y="120" fill="#A5B4FC" font-size="20" font-family="Arial">USD $2,540</text>
  <rect x="650" y="74" width="190" height="74" rx="16" fill="#102C2A"/>
  <text x="673" y="120" fill="#A7F3D0" font-size="20" font-family="Arial">Meta 72%</text>
  <rect x="64" y="258" width="776" height="72" rx="14" fill="#0F1D2E"/>
  <text x="88" y="303" fill="#E2E8F0" font-size="20" font-family="Arial">Supermercado</text>
  <text x="715" y="303" fill="#FCA5A5" font-size="20" font-family="Arial">-RD$ 2,250</text>
  <rect x="64" y="346" width="776" height="72" rx="14" fill="#0F1D2E"/>
  <text x="88" y="391" fill="#E2E8F0" font-size="20" font-family="Arial">Nomina</text>
  <text x="735" y="391" fill="#6EE7B7" font-size="20" font-family="Arial">+RD$ 45,000</text>
  <rect x="64" y="434" width="776" height="72" rx="14" fill="#0F1D2E"/>
  <text x="88" y="479" fill="#E2E8F0" font-size="20" font-family="Arial">Netflix</text>
  <text x="740" y="479" fill="#FDE68A" font-size="20" font-family="Arial">-RD$ 699</text>
</svg>
