<svg width="820" height="480" viewBox="0 0 820 480" fill="none" xmlns="http://www.w3.org/2000/svg">
  <rect width="820" height="480" rx="30" fill="#F8FAFC"/>
  <rect x="30" y="30" width="760" height="420" rx="22" fill="white" stroke="#E2E8F0"/>
  <text x="64" y="86" fill="#0F172A" font-size="30" font-family="Arial" font-weight="700">Reportes MiCuadre</text>
  <rect x="64" y="112" width="220" height="24" rx="12" fill="#CCFBF1"/>
  <rect x="64" y="168" width="340" height="220" rx="16" fill="#F1F5F9"/>
  <rect x="436" y="168" width="318" height="104" rx="16" fill="#F1F5F9"/>
  <rect x="436" y="284" width="318" height="104" rx="16" fill="#F1F5F9"/>
  <rect x="90" y="336" width="28" height="36" rx="6" fill="#14B8A6"/>
  <rect x="128" y="312" width="28" height="60" rx="6" fill="#38BDF8"/>
  <rect x="166" y="294" width="28" height="78" rx="6" fill="#10B981"/>
  <rect x="204" y="324" width="28" height="48" rx="6" fill="#14B8A6"/>
  <rect x="242" y="278" width="28" height="94" rx="6" fill="#38BDF8"/>
  <text x="456" y="210" fill="#334155" font-size="18" font-family="Arial">Comida fue tu mayor gasto</text>
  <text x="456" y="326" fill="#334155" font-size="18" font-family="Arial">Gastaste menos que el mes pasado</text>
</svg>
