<?xml version="1.0" encoding="UTF-8"?>
<svg version="1.1" xmlns="http://www.w3.org/2000/svg" width="512" height="512">
<path d="M0 0 C0.66 0 1.32 0 2 0 C3.29003906 1.82226563 3.29003906 1.82226563 4.765625 4.40625 C5.31855225 5.36515137 5.87147949 6.32405273 6.44116211 7.31201172 C7.33653687 8.89006592 7.33653687 8.89006592 8.25 10.5 C9.52712735 12.72147859 10.80447708 14.94282935 12.08203125 17.1640625 C13.06163818 18.87577637 13.06163818 18.87577637 14.06103516 20.62207031 C16.98964915 25.72409791 19.96532433 30.79827606 22.9375 35.875 C28.01368647 44.57538442 33.07704382 53.28320971 38.125 62 C38.75269287 63.08007324 39.38038574 64.16014648 40.02709961 65.27294922 C41.18918652 67.28322509 42.33735029 69.30164016 43.46875 71.3293457 C44.92548935 73.958846 44.92548935 73.958846 46.5 76.16088867 C47.81021452 78.18648236 48.6051545 79.61751273 49 82 C47.91673415 85.84491019 45.8896748 88.96538111 43.75 92.3125 C43.15098877 93.30741455 42.55197754 94.3023291 41.93481445 95.32739258 C40.64549513 97.46476952 39.34266766 99.59404469 38.02783203 101.71582031 C35.34882055 106.05461906 32.75852582 110.44329117 30.16699219 114.8347168 C28.49551568 117.66579559 26.81565298 120.49168913 25.13302612 123.31614685 C20.66412546 130.82618545 16.31609339 138.40135568 12 146 C6.11673941 156.35648649 0.09855885 166.62370693 -6 176.85546875 C-10.75654525 184.85426847 -15.40331905 192.90887401 -20 201 C-26.65744046 212.71771849 -33.48017984 224.32907694 -40.37890625 235.90625 C-40.97203613 236.91042969 -41.56516602 237.91460937 -42.17626953 238.94921875 C-43.44451285 241.07076742 -44.73924799 243.17661149 -46.05419922 245.26953125 C-46.70533691 246.32527344 -47.35647461 247.38101563 -48.02734375 248.46875 C-48.621521 249.41169922 -49.21569824 250.35464844 -49.82788086 251.32617188 C-51.2256673 254.51479032 -51.11637069 255.74413541 -50 259 C-48.931069 261.34393461 -48.931069 261.34393461 -47.55078125 263.67578125 C-47.03974854 264.57353271 -46.52871582 265.47128418 -46.00219727 266.39624023 C-45.44459717 267.35860596 -44.88699707 268.32097168 -44.3125 269.3125 C-43.73234131 270.32578369 -43.15218262 271.33906738 -42.55444336 272.38305664 C-40.71185571 275.59392936 -38.85787163 278.79794947 -37 282 C-36.41927734 283.00192383 -35.83855469 284.00384766 -35.24023438 285.03613281 C-31.76332193 291.02721128 -28.26808677 297.00743017 -24.76611328 302.98388672 C-21.8374386 307.98538616 -18.91917954 312.99295476 -16 318 C-12.513869 323.97782079 -9.02675772 329.95505999 -5.53515625 335.9296875 C0.46776997 346.20532451 6.44203807 356.49629401 12.375 366.8125 C16.89154789 374.66483356 21.45510954 382.4860045 26.09179688 390.26806641 C27.43804176 392.53217615 28.7779847 394.80004595 30.11132812 397.07177734 C33.3460548 402.5815737 36.63961003 408.02524822 40.109375 413.390625 C41.36475554 415.40614275 42.61997178 417.42176285 43.875 419.4375 C44.48359863 420.32977295 45.09219727 421.2220459 45.71923828 422.14135742 C47.36027973 424.83742628 48.42285496 426.8932163 49 430 C47.80197558 434.50612749 45.5028448 438.09887115 43 442 C41.82255422 444.02953179 40.64810215 446.06080319 39.4765625 448.09375 C38.19621182 450.23126912 36.91221175 452.36660557 35.625 454.5 C34.20621475 456.86775631 32.7917969 459.23809723 31.37890625 461.609375 C31.01878952 462.21348206 30.65867279 462.81758911 30.28764343 463.44000244 C26.64530245 469.566922 23.10838987 475.75255758 19.58618164 481.94909668 C9.83939696 499.09604569 9.83939696 499.09604569 5.625 506.25 C5.27381104 506.85811523 4.92262207 507.46623047 4.56079102 508.09277344 C3.76388354 509.43062065 2.89066591 510.72265474 2 512 C1.34 512 0.68 512 0 512 C-1.29003906 510.17773437 -1.29003906 510.17773437 -2.765625 507.59375 C-3.31855225 506.63484863 -3.87147949 505.67594727 -4.44116211 504.68798828 C-5.03807861 503.63595215 -5.63499512 502.58391602 -6.25 501.5 C-7.52712735 499.27852141 -8.80447708 497.05717065 -10.08203125 494.8359375 C-10.73510254 493.69479492 -11.38817383 492.55365234 -12.06103516 491.37792969 C-14.98964734 486.27590523 -17.96504892 481.20155994 -20.9375 476.125 C-25.78223624 467.83088211 -30.58624131 459.51403549 -35.375 451.1875 C-40.49286114 442.29103111 -45.68647464 433.4434719 -50.9375 424.625 C-56.73325224 414.89013429 -62.40205434 405.09213708 -67.99871826 395.24230957 C-72.93125205 386.56599318 -77.95677628 377.95105421 -83.0625 369.375 C-91.46885412 355.25457633 -99.67130419 341.02106217 -107.85449219 326.77050781 C-114.57642953 315.06988147 -121.33235941 303.39257183 -128.22393799 291.79107666 C-129.23867079 290.08158599 -130.25094145 288.37063461 -131.26318359 286.65966797 C-134.30734582 281.51655249 -137.36804779 276.38642926 -140.48828125 271.2890625 C-141.51312755 269.58860598 -142.53787426 267.88808943 -143.5625 266.1875 C-144.26971191 265.0593689 -144.26971191 265.0593689 -144.99121094 263.90844727 C-146.83561196 260.81839798 -147.96761923 258.72905804 -148.12890625 255.09765625 C-146.4393534 250.46161677 -143.9574493 246.44089262 -141.375 242.25 C-140.17952933 240.27041236 -138.9855798 238.28990549 -137.79296875 236.30859375 C-136.85590088 234.75760986 -136.85590088 234.75760986 -135.89990234 233.17529297 C-132.75992879 227.92747801 -129.72766994 222.61854032 -126.6875 217.3125 C-121.5275739 208.33302706 -116.29485354 199.40054347 -111 190.5 C-103.21139625 177.40269903 -95.58808821 164.21422207 -88 151 C-79.78188321 136.68861915 -71.49330656 122.42678808 -63.05102539 108.24633789 C-58.28024015 100.21221305 -53.61581402 92.12358443 -49 84 C-43.09428737 73.60626338 -37.06009703 63.29712804 -30.94287109 53.02587891 C-26.27433169 45.17763599 -21.67875404 37.2903533 -17.125 29.375 C-16.50657227 28.30185547 -15.88814453 27.22871094 -15.25097656 26.12304688 C-11.8237828 20.17493314 -11.8237828 20.17493314 -8.41064453 14.21875 C-7.00925954 11.76712432 -5.59943041 9.32056211 -4.1875 6.875 C-3.7848291 6.1639209 -3.3821582 5.4528418 -2.96728516 4.72021484 C-2.03434806 3.11287526 -1.0254075 1.54998439 0 0 Z " fill="#006546" transform="translate(148,0)"/>
<path d="M0 0 C3.1975539 2.9433916 5.27698333 5.88779138 7.3984375 9.671875 C8.03539551 10.79883789 8.67235352 11.92580078 9.32861328 13.08691406 C9.82847748 13.981745 9.82847748 13.981745 10.33843994 14.89465332 C11.75232979 17.42538544 13.1806602 19.94786229 14.60824585 22.47088623 C15.34042361 23.76512068 16.07188511 25.05976059 16.80264282 26.35479736 C20.18878431 32.35191325 23.64539494 38.30664608 27.125 44.25 C27.69468506 45.22437012 28.26437012 46.19874023 28.85131836 47.20263672 C29.99597673 49.1597641 31.14107465 51.11663448 32.28662109 53.07324219 C35.17381184 58.00508069 38.05639926 62.9396018 40.9375 67.875 C41.5140332 68.86234131 42.09056641 69.84968262 42.68457031 70.86694336 C46.94224304 78.16640256 51.16198883 85.48719905 55.375 92.8125 C60.51662348 101.74870174 65.72979462 110.63905613 71 119.5 C79.42297534 133.66438366 87.64825698 147.93880244 95.85449219 162.22949219 C103.45186837 175.45396236 111.13073078 188.62295155 118.93359375 201.72729492 C124.55409451 211.19134719 130.03505486 220.73068829 135.45239258 230.31225586 C138.24399707 235.23677954 141.04119153 240.13740245 144.07421875 244.91796875 C144.51386963 245.6150293 144.95352051 246.31208984 145.40649414 247.03027344 C146.51744951 248.7691601 147.65203908 250.49288951 148.7890625 252.21484375 C150 255 150 255 149.27148438 257.32006836 C147.91467605 260.17983891 146.43958823 262.91656125 144.8671875 265.6640625 C144.23425781 266.77201172 143.60132813 267.87996094 142.94921875 269.02148438 C142.25800612 270.22276768 141.56659438 271.42393644 140.875 272.625 C140.15489667 273.88082999 139.43484547 275.13668987 138.71484375 276.39257812 C133.23490921 285.93273269 127.63592626 295.39921983 122.00341797 304.85009766 C117.24539275 312.85049151 112.59777348 320.9070541 108 329 C102.73654315 338.26374836 97.38819932 347.4694923 91.9375 356.625 C84.16617538 369.67874419 76.56504849 382.82590029 69 396 C60.78188321 410.31138085 52.49330656 424.57321192 44.05102539 438.75366211 C39.28023587 446.78779415 34.6160354 454.87653582 30 463 C24.52264321 472.63478702 18.96634335 482.21761747 13.3125 491.75 C12.65314453 492.86246094 11.99378906 493.97492188 11.31445312 495.12109375 C9.55130042 498.08581588 7.77693857 501.04352824 6 504 C5.50677246 504.83724609 5.01354492 505.67449219 4.50537109 506.53710938 C3.39202458 508.39228042 2.20465816 510.20278026 1 512 C0.34 512 -0.32 512 -1 512 C-1.35602295 511.35788574 -1.7120459 510.71577148 -2.07885742 510.05419922 C-9.44338251 496.79028085 -16.92671336 483.61873423 -24.6875 470.58203125 C-28.92671268 463.45836632 -33.08608232 456.28819706 -37.24414062 449.11694336 C-37.79263672 448.17343018 -38.34113281 447.22991699 -38.90625 446.2578125 C-39.42574219 445.35836914 -39.94523438 444.45892578 -40.48046875 443.53222656 C-42.25865844 440.56895802 -44.19797259 437.73786838 -46.23242188 434.94482422 C-47.39485117 431.99955967 -46.79029525 430.02911073 -46 427 C-44.67163086 424.17700195 -44.67163086 424.17700195 -42.96484375 421.23828125 C-42.32861084 420.13339355 -41.69237793 419.02850586 -41.03686523 417.89013672 C-40.33733241 416.6974412 -39.63753684 415.50489976 -38.9375 414.3125 C-38.21294903 413.06305338 -37.48908351 411.81320904 -36.76586914 410.56298828 C-31.22430423 401.00571385 -25.58557034 391.50464794 -19.93554688 382.01123047 C-12.83631017 370.07680982 -5.91487843 358.0418657 1 346 C9.21009567 331.70258748 17.48860738 317.45343543 25.92480469 303.28808594 C31.62796905 293.68613245 37.18238108 284.00346477 42.68530273 274.28564453 C43.30864502 273.18720215 43.9319873 272.08875977 44.57421875 270.95703125 C45.44699463 269.40943115 45.44699463 269.40943115 46.33740234 267.83056641 C48.18089914 264.69201988 50.19285619 261.71241966 52.35864258 258.7878418 C53.22820752 256.91414523 53.22820752 256.91414523 52.30639648 254.61376953 C50.95457377 251.90911358 49.53463372 249.28272798 48.015625 246.66796875 C47.4175 245.63478516 46.819375 244.60160156 46.203125 243.53710938 C45.55859375 242.43173828 44.9140625 241.32636719 44.25 240.1875 C43.57264387 239.02034057 42.89556488 237.85302025 42.21875 236.68554688 C40.15063886 233.12089194 38.07607734 229.56001978 36 226 C35.39478516 224.96182129 34.78957031 223.92364258 34.16601562 222.85400391 C31.86832184 218.91408945 29.56974983 214.97469466 27.26806641 211.03710938 C23.02330702 203.7712408 18.81968391 196.48236452 14.625 189.1875 C9.50721435 180.29098852 4.31352461 171.44347065 -0.9375 162.625 C-6.38829671 153.46954065 -11.73629253 144.26360918 -17 135 C-23.69403261 123.21995581 -30.54591852 111.54076668 -37.4765625 99.8984375 C-38.06469727 98.90295898 -38.65283203 97.90748047 -39.25878906 96.88183594 C-40.41247736 94.97239445 -41.60192923 93.08407668 -42.82714844 91.21972656 C-43.38692383 90.35573242 -43.94669922 89.49173828 -44.5234375 88.6015625 C-45.02536621 87.85471191 -45.52729492 87.10786133 -46.04443359 86.33837891 C-47.35101119 83.14103599 -46.90353198 81.30535937 -46 78 C-44.74755859 75.34472656 -44.74755859 75.34472656 -43.1484375 72.640625 C-42.55224609 71.620896 -41.95605469 70.60116699 -41.34179688 69.55053711 C-40.69275391 68.46135986 -40.04371094 67.37218262 -39.375 66.25 C-38.69500228 65.09374512 -38.01598311 63.93691426 -37.33789062 62.77954102 C-35.9290801 60.37642537 -34.5160918 57.97583732 -33.10058594 55.57666016 C-30.47758182 51.12170948 -27.91039124 46.63509409 -25.34082031 42.14916992 C-19.5344072 32.01875024 -13.62776559 21.95242087 -7.625 11.9375 C-6.97595703 10.8539624 -6.32691406 9.7704248 -5.65820312 8.65405273 C-1.12923742 1.12923742 -1.12923742 1.12923742 0 0 Z " fill="#006546" transform="translate(249,0)"/>
<path d="M0 0 C0.66 0 1.32 0 2 0 C3.29003906 1.82226562 3.29003906 1.82226562 4.765625 4.40625 C5.31855225 5.36515137 5.87147949 6.32405273 6.44116211 7.31201172 C7.03807861 8.36404785 7.63499512 9.41608398 8.25 10.5 C9.52712735 12.72147859 10.80447708 14.94282935 12.08203125 17.1640625 C12.73510254 18.30520508 13.38817383 19.44634766 14.06103516 20.62207031 C16.98964734 25.72409477 19.96504892 30.79844006 22.9375 35.875 C27.78223655 44.16911842 32.58617053 52.48600487 37.375 60.8125 C42.51662348 69.74870174 47.72979462 78.63905613 53 87.5 C61.42297534 101.66438366 69.64825698 115.93880244 77.85449219 130.22949219 C85.45694279 143.46279521 93.14181918 156.6400289 100.94897461 169.75366211 C106.06254295 178.36504249 111.04733181 187.04335734 115.99468994 195.75064087 C120.68174855 203.99536891 125.44315937 212.19100782 130.29031372 220.34268188 C131.30000445 222.04147635 132.30712323 223.74179862 133.31420898 225.44213867 C136.34075428 230.54822692 139.38561296 235.64050918 142.484375 240.703125 C143.51055325 242.40616771 144.53660397 244.10928727 145.5625 245.8125 C146.03405518 246.56474854 146.50561035 247.31699707 146.99145508 248.09204102 C148.83260625 251.17653001 149.96652118 253.27035876 150.1328125 256.89453125 C148.42570682 261.57435544 145.91648028 265.64212133 143.3125 269.875 C142.11769341 271.85629092 140.92371071 273.83807888 139.73046875 275.8203125 C139.11220215 276.84157227 138.49393555 277.86283203 137.85693359 278.91503906 C134.89748516 283.83162996 132.01045619 288.78973802 129.125 293.75 C128.54580811 294.74330322 127.96661621 295.73660645 127.36987305 296.76000977 C123.0958289 304.09609076 118.85839532 311.45291357 114.625 318.8125 C109.50706335 327.70892629 104.3135261 336.55652684 99.0625 345.375 C93.26637084 355.1104988 87.59672541 364.90889892 82.00027466 374.75970459 C76.44799488 384.52774539 70.75279218 394.20381156 65 403.85546875 C60.24345409 411.85426959 55.59672538 419.90889896 51 428 C45.0944559 438.39382977 39.06009422 448.70287667 32.94287109 458.97412109 C28.27433169 466.82236401 23.67875404 474.7096467 19.125 482.625 C18.50657227 483.69814453 17.88814453 484.77128906 17.25097656 485.87695312 C13.8237828 491.82506686 13.8237828 491.82506686 10.41064453 497.78125 C9.00925954 500.23287568 7.59943041 502.67943789 6.1875 505.125 C5.7848291 505.8360791 5.3821582 506.5471582 4.96728516 507.27978516 C4.03434806 508.88712474 3.0254075 510.45001561 2 512 C1.34 512 0.68 512 0 512 C-1.29003906 510.17773437 -1.29003906 510.17773437 -2.765625 507.59375 C-3.31855225 506.63484863 -3.87147949 505.67594727 -4.44116211 504.68798828 C-5.03807861 503.63595215 -5.63499512 502.58391602 -6.25 501.5 C-7.52712735 499.27852141 -8.80447708 497.05717065 -10.08203125 494.8359375 C-10.73510254 493.69479492 -11.38817383 492.55365234 -12.06103516 491.37792969 C-14.98964915 486.27590209 -17.96532433 481.20172394 -20.9375 476.125 C-26.01368647 467.42461558 -31.07704382 458.71679029 -36.125 450 C-36.75269287 448.91992676 -37.38038574 447.83985352 -38.02709961 446.72705078 C-39.19018735 444.71504359 -40.33641604 442.69315917 -41.46240234 440.66015625 C-42.90761904 438.03562452 -42.90761904 438.03562452 -44.55712891 435.93359375 C-46.02535532 433.82401609 -46.7296561 432.56566206 -47 430 C-45.39013014 425.27318251 -42.77836563 421.19759914 -40.125 417 C-39.37068965 415.75484517 -38.61958736 414.5077417 -37.87158203 413.25878906 C-36.34169056 410.7130202 -34.79607594 408.17797233 -33.23632812 405.65039062 C-30.01156115 400.41109032 -26.9523275 395.07670631 -23.875 389.75 C-22.72665713 387.78303808 -21.57691997 385.8168895 -20.42578125 383.8515625 C-16.9675788 377.94490932 -13.51315795 372.03606406 -10.0625 366.125 C-9.4859668 365.13765869 -8.90943359 364.15031738 -8.31542969 363.13305664 C-4.05775721 355.83359787 0.16205109 348.51283646 4.375 341.1875 C9.49286054 332.29103215 14.68640606 323.4434306 19.9375 314.625 C26.23527483 304.04859013 32.39092925 293.39969321 38.45458984 282.68774414 C41.24404622 277.77133604 44.03858758 272.87330745 47.0390625 268.08203125 C47.47420166 267.3849707 47.90934082 266.68791016 48.35766602 265.96972656 C49.45500048 264.23266945 50.57216139 262.50817723 51.69140625 260.78515625 C53.17695022 258.15041766 53.17695022 258.15041766 52.96875 255.59765625 C51.62461409 251.99342085 49.83961689 248.70577453 47.9375 245.375 C47.50195801 244.60140137 47.06641602 243.82780273 46.61767578 243.03076172 C41.97009333 234.83504203 37.1320663 226.75049145 32.30834961 218.65771484 C27.44543561 210.49039213 22.69417396 202.26529841 18 194 C12.73689444 184.73605813 7.38819308 175.53049722 1.9375 166.375 C-5.19173243 154.39979875 -12.18172872 142.34927855 -19.12353516 130.26464844 C-21.6872294 125.80436748 -24.25694158 121.34758639 -26.83105469 116.89331055 C-28.09732326 114.69538407 -29.35723538 112.49378167 -30.61035156 110.28833008 C-33.46836269 105.27456418 -36.37880426 100.3579757 -39.59765625 95.56640625 C-40.41508301 94.30558228 -40.41508301 94.30558228 -41.24902344 93.01928711 C-42.25302587 91.48177121 -43.29432443 89.96763237 -44.37988281 88.48657227 C-45.83117716 86.22019299 -46.62473594 84.67188009 -47 82 C-45.68486123 77.58915488 -43.40588914 73.90031469 -41 70 C-40.41597412 68.98728027 -39.83194824 67.97456055 -39.23022461 66.93115234 C-37.3763956 63.72344876 -35.47471324 60.54820981 -33.5625 57.375 C-32.14190804 55.00156282 -30.72498868 52.62594372 -29.30859375 50.25 C-28.95051636 49.64997162 -28.59243896 49.04994324 -28.22351074 48.43173218 C-24.4606991 42.11582633 -20.78861145 35.74895063 -17.125 29.375 C-15.89453419 27.23958164 -14.66406552 25.10416492 -13.43359375 22.96875 C-11.75542403 20.05425542 -10.07927154 17.1387191 -8.41064453 14.21875 C-7.00925954 11.76712432 -5.59943041 9.32056211 -4.1875 6.875 C-3.7848291 6.1639209 -3.3821582 5.4528418 -2.96728516 4.72021484 C-2.03434806 3.11287526 -1.0254075 1.54998439 0 0 Z " fill="#FFD000" transform="translate(362,0)"/>
<path d="M0 0 C3.91558121 1.30519374 4.25103008 2.70692813 6.23046875 6.2734375 C6.86017578 7.39427734 7.48988281 8.51511719 8.13867188 9.66992188 C8.63838501 10.5737561 8.63838501 10.5737561 9.14819336 11.49584961 C10.92776183 14.7134532 12.73753843 17.91404787 14.54296875 21.1171875 C14.91380585 21.77704651 15.28464294 22.43690552 15.66671753 23.11676025 C19.34064763 29.64054272 23.15871857 36.07328643 27 42.5 C32.77879165 52.19231738 38.4264415 61.94937579 44 71.76025391 C48.90861149 80.39586289 53.91407294 88.96708277 59 97.5 C66.64174902 110.32195494 74.11552289 123.23852265 81.41992188 136.25585938 C82.37155454 137.90857124 83.35807306 139.54282088 84.40820312 141.13476562 C86.21265964 143.89115579 87.07362952 145.43497344 86.640625 148.7578125 C84.19965832 153.5816276 81.51686836 158.23156078 78.75 162.875 C77.47253211 165.04159347 76.19519184 167.2082622 74.91796875 169.375 C74.26489746 170.4784375 73.61182617 171.581875 72.93896484 172.71875 C69.96037767 177.75932059 67.01093682 182.8167536 64.0625 187.875 C63.48709473 188.86056885 62.91168945 189.8461377 62.31884766 190.86157227 C58.05959123 198.16256397 53.83906832 205.48536097 49.625 212.8125 C43.83187225 222.88102379 37.93609869 232.88484108 31.99633789 242.86743164 C27.28799238 250.79283052 22.65683518 258.75818788 18.0625 266.75 C15.71019529 270.83440919 13.35622486 274.91785101 11 279 C10.50790039 279.85303711 10.01580078 280.70607422 9.50878906 281.58496094 C8.24338272 283.77000965 6.96799596 285.94877057 5.6875 288.125 C5.33244385 288.74084961 4.9773877 289.35669922 4.61157227 289.99121094 C3.79726698 291.3624578 2.90699226 292.68821645 2 294 C1.34 294 0.68 294 0 294 C-0.40089844 293.29319092 -0.80179687 292.58638184 -1.21484375 291.8581543 C-8.70142083 278.67282359 -16.23605428 265.524482 -24 252.5 C-29.43179441 243.3869956 -34.75977371 234.22378364 -40 225 C-45.9026239 214.61130981 -51.93329333 204.30692981 -58.04833984 194.04125977 C-63.43289812 184.99060512 -68.71410791 175.88481324 -73.95336914 166.74951172 C-74.8156311 165.24735107 -74.8156311 165.24735107 -75.6953125 163.71484375 C-76.2409082 162.75562012 -76.78650391 161.79639648 -77.34863281 160.80810547 C-78.46243862 158.91410866 -79.62504967 157.04809102 -80.83105469 155.21142578 C-81.39985352 154.33856934 -81.96865234 153.46571289 -82.5546875 152.56640625 C-83.07272949 151.80400635 -83.59077148 151.04160645 -84.12451172 150.25610352 C-85 148 -85 148 -84.3371582 145.54345703 C-82.95276757 142.91015749 -81.5475908 140.30974698 -80.05078125 137.73828125 C-79.16144897 136.20409546 -79.16144897 136.20409546 -78.25415039 134.63891602 C-77.29303345 132.99234009 -77.29303345 132.99234009 -76.3125 131.3125 C-75.63695098 130.1498542 -74.96174553 128.98700871 -74.28686523 127.82397461 C-73.23903698 126.01853509 -72.19086762 124.21330002 -71.14137268 122.40882874 C-68.82747163 118.43018845 -66.52649739 114.44437085 -64.234375 110.453125 C-57.26860198 98.32597711 -50.20524642 86.26324101 -43.05102539 74.24633789 C-37.59939582 65.06565372 -32.29851445 55.80582567 -27.02441406 46.52270508 C-21.56903113 36.93527968 -15.97018192 27.43724011 -10.31445312 17.96679688 C-6.77362546 12.03124191 -3.30641061 6.06963208 0 0 Z " fill="#FFD000" transform="translate(198,109)"/>
</svg>
