<?xml version="1.0" encoding="UTF-8"?>
<svg version="1.1" xmlns="http://www.w3.org/2000/svg" width="512" height="431">
<path d="M0 0 C1.65 0.33 3.3 0.66 5 1 C5.33 3.97 5.66 6.94 6 10 C6.66 10 7.32 10 8 10 C8 11.32 8 12.64 8 14 C8.66 14 9.32 14 10 14 C10.50757862 15.41396902 11.00574925 16.83131729 11.5 18.25 C11.91765625 19.43335938 11.91765625 19.43335938 12.34375 20.640625 C13 23 13 23 13 27 C13.66 27 14.32 27 15 27 C15.50833591 28.24663331 16.00631145 29.49749387 16.5 30.75 C16.91765625 31.79414062 16.91765625 31.79414062 17.34375 32.859375 C18 35 18 35 18 39 C18.66 39 19.32 39 20 39 C20.50757862 40.41396902 21.00574925 41.83131729 21.5 43.25 C21.91765625 44.43335937 21.91765625 44.43335937 22.34375 45.640625 C23 48 23 48 23 52 C23.66 52 24.32 52 25 52 C25.50833591 53.24663331 26.00631145 54.49749387 26.5 55.75 C26.7784375 56.44609375 27.056875 57.1421875 27.34375 57.859375 C28 60 28 60 28 64 C28.66 64 29.32 64 30 64 C30.50757862 65.41396902 31.00574925 66.83131729 31.5 68.25 C31.91765625 69.43335937 31.91765625 69.43335937 32.34375 70.640625 C33 73 33 73 33 77 C33.66 77 34.32 77 35 77 C37.25684543 82.36000789 38.36263859 86.1977825 38 92 C37.34 92 36.68 92 36 92 C35.67 93.32 35.34 94.64 35 96 C34.34 96 33.68 96 33 96 C32.7525 96.53625 32.505 97.0725 32.25 97.625 C30.69347463 100.5823982 28.96564327 103.29724051 27 106 C26.34 106 25.68 106 25 106 C25 106.66 25 107.32 25 108 C24.34 108 23.68 108 23 108 C22.690625 108.61875 22.38125 109.2375 22.0625 109.875 C21.375 111.25 20.6875 112.625 20 114 C19.34 114 18.68 114 18 114 C17.690625 114.78375 17.38125 115.5675 17.0625 116.375 C16 119 16 119 15 121 C14.34 121 13.68 121 13 121 C12.731875 121.5775 12.46375 122.155 12.1875 122.75 C10.97070811 125.05550043 9.69666121 127.02056192 8 129 C7.34 129 6.68 129 6 129 C5.67 130.32 5.34 131.64 5 133 C4.34 133 3.68 133 3 133 C2.731875 133.56203125 2.46375 134.1240625 2.1875 134.703125 C0.9196021 137.15550646 -0.48972342 139.43927683 -2 141.75 C-2.7734375 142.94882812 -2.7734375 142.94882812 -3.5625 144.171875 C-4.036875 144.77515625 -4.51125 145.3784375 -5 146 C-5.66 146 -6.32 146 -7 146 C-7 146.66 -7 147.32 -7 148 C-7.66 148 -8.32 148 -9 148 C-9.309375 148.61875 -9.61875 149.2375 -9.9375 149.875 C-10.625 151.25 -11.3125 152.625 -12 154 C-12.66 154 -13.32 154 -14 154 C-14.33 155.32 -14.66 156.64 -15 158 C-15.66 158 -16.32 158 -17 158 C-17.185625 158.66 -17.37125 159.32 -17.5625 160 C-19.32198888 163.67197679 -21.69983645 166.24951032 -24.44140625 169.23046875 C-26.07056716 170.92814506 -26.07056716 170.92814506 -27 173 C-27.66 173 -28.32 173 -29 173 C-30.20628008 175.33214148 -31.1654738 177.49642139 -32 180 C-33.31266518 181.35368596 -34.64567325 182.68799596 -36 184 C-36.33 184.66 -36.66 185.32 -37 186 C-37.66 186 -38.32 186 -39 186 C-39.309375 186.61875 -39.61875 187.2375 -39.9375 187.875 C-40.625 189.25 -41.3125 190.625 -42 192 C-42.66 192 -43.32 192 -44 192 C-44.268125 192.56203125 -44.53625 193.1240625 -44.8125 193.703125 C-46.0803979 196.15550646 -47.48972342 198.43927683 -49 200.75 C-49.7734375 201.94882812 -49.7734375 201.94882812 -50.5625 203.171875 C-51.036875 203.77515625 -51.51125 204.3784375 -52 205 C-52.66 205 -53.32 205 -54 205 C-54.309375 205.61875 -54.61875 206.2375 -54.9375 206.875 C-55.625 208.25 -56.3125 209.625 -57 211 C-57.66 211 -58.32 211 -59 211 C-59.268125 211.556875 -59.53625 212.11375 -59.8125 212.6875 C-61.10899496 215.21225334 -62.42476323 217.63714484 -64 220 C-64.66 220 -65.32 220 -66 220 C-66.309375 220.61875 -66.61875 221.2375 -66.9375 221.875 C-67.625 223.25 -68.3125 224.625 -69 226 C-69.66 226 -70.32 226 -71 226 C-71.33 227.32 -71.66 228.64 -72 230 C-72.66 230 -73.32 230 -74 230 C-74.268125 230.7425 -74.53625 231.485 -74.8125 232.25 C-75.95276751 234.89061949 -77.09380306 236.85552844 -79 239 C-79.66 239 -80.32 239 -81 239 C-81.33 240.32 -81.66 241.64 -82 243 C-82.66 243 -83.32 243 -84 243 C-85.20628008 245.33214148 -86.1654738 247.49642139 -87 250 C-87.66 250 -88.32 250 -89 250 C-89 250.66 -89 251.32 -89 252 C-89.66 252 -90.32 252 -91 252 C-91.309375 252.61875 -91.61875 253.2375 -91.9375 253.875 C-92.625 255.25 -93.3125 256.625 -94 258 C-94.66 258 -95.32 258 -96 258 C-96.40412109 258.86818359 -96.40412109 258.86818359 -96.81640625 259.75390625 C-98.01285924 262.02440285 -99.36305904 263.9143634 -100.9375 265.9375 C-102.72194173 268.26031344 -104.26893893 270.46103817 -105.75 273 C-106.1625 273.66 -106.575 274.32 -107 275 C-107.66 275 -108.32 275 -109 275 C-109.4021875 275.8353125 -109.4021875 275.8353125 -109.8125 276.6875 C-111.10899496 279.21225334 -112.42476323 281.63714484 -114 284 C-114.66 284 -115.32 284 -116 284 C-116.309375 284.61875 -116.61875 285.2375 -116.9375 285.875 C-117.625 287.25 -118.3125 288.625 -119 290 C-119.66 290 -120.32 290 -121 290 C-121.4640625 291.175625 -121.4640625 291.175625 -121.9375 292.375 C-123 295 -123 295 -124 297 C-124.66 297 -125.32 297 -126 297 C-126.2475 297.54140625 -126.495 298.0828125 -126.75 298.640625 C-128.27988604 301.5282849 -130.09150997 304.09776018 -132 306.75 C-132.70125 307.73484375 -133.4025 308.7196875 -134.125 309.734375 C-134.74375 310.48203125 -135.3625 311.2296875 -136 312 C-136.66 312 -137.32 312 -138 312 C-139.20628008 314.33214148 -140.1654738 316.49642139 -141 319 C-142.31266518 320.35368596 -143.64567325 321.68799596 -145 323 C-145.33 323.66 -145.66 324.32 -146 325 C-146.66 325 -147.32 325 -148 325 C-148.33 326.32 -148.66 327.64 -149 329 C-149.66 329 -150.32 329 -151 329 C-151.3403125 330.051875 -151.3403125 330.051875 -151.6875 331.125 C-153.31686529 334.69408588 -155.43177069 337.03665849 -158 340 C-158.33 340.66 -158.66 341.32 -159 342 C-159.66 342 -160.32 342 -161 342 C-161.4640625 343.175625 -161.4640625 343.175625 -161.9375 344.375 C-163 347 -163 347 -164 349 C-164.66 349 -165.32 349 -166 349 C-166 349.66 -166 350.32 -166 351 C-166.66 351 -167.32 351 -168 351 C-168.4021875 351.8353125 -168.4021875 351.8353125 -168.8125 352.6875 C-170.10899496 355.21225334 -171.42476323 357.63714484 -173 360 C-173.66 360 -174.32 360 -175 360 C-175.33 361.32 -175.66 362.64 -176 364 C-176.66 364 -177.32 364 -178 364 C-178.309375 364.78375 -178.61875 365.5675 -178.9375 366.375 C-180 369 -180 369 -181 371 C-181.66 371 -182.32 371 -183 371 C-183.2475 371.70511719 -183.495 372.41023438 -183.75 373.13671875 C-185.16103659 376.36887443 -186.9250726 378.96328902 -189 381.8125 C-190.051875 383.27623047 -190.051875 383.27623047 -191.125 384.76953125 C-191.74375 385.50558594 -192.3625 386.24164063 -193 387 C-193.66 387 -194.32 387 -195 387 C-195.309375 387.78375 -195.61875 388.5675 -195.9375 389.375 C-197 392 -197 392 -198 394 C-198.66 394 -199.32 394 -200 394 C-200.33 395.65 -200.66 397.3 -201 399 C-201.66 399 -202.32 399 -203 399 C-203.2475 399.680625 -203.495 400.36125 -203.75 401.0625 C-205.24197908 404.56865083 -207.06835511 407.71620368 -209 411 C-210.32 410.34 -211.64 409.68 -213 409 C-212.01 406.03 -211.02 403.06 -210 400 C-209.34 400 -208.68 400 -208 400 C-207.87625 398.783125 -207.7525 397.56625 -207.625 396.3125 C-207.21108694 392.93520941 -206.45426549 390.10243305 -205 387 C-204.34 387 -203.68 387 -203 387 C-202.67 384.03 -202.34 381.06 -202 378 C-201.34 378 -200.68 378 -200 378 C-200 376.35 -200 374.7 -200 373 C-199.34 373 -198.68 373 -198 373 C-197.67 370.03 -197.34 367.06 -197 364 C-196.34 364 -195.68 364 -195 364 C-195 362.35 -195 360.7 -195 359 C-194.34 359 -193.68 359 -193 359 C-192.87625 357.783125 -192.7525 356.56625 -192.625 355.3125 C-192.21108694 351.93520941 -191.45426549 349.10243305 -190 346 C-189.34 346 -188.68 346 -188 346 C-188.020625 345.2575 -188.04125 344.515 -188.0625 343.75 C-188.00671312 341.29537721 -187.6930096 339.33890739 -187 337 C-186.34 337 -185.68 337 -185 337 C-185 335.35 -185 333.7 -185 332 C-184.34 332 -183.68 332 -183 332 C-182.814375 330.4840625 -182.814375 330.4840625 -182.625 328.9375 C-182.01914665 325.12062388 -181.12806088 321.68499888 -180 318 C-179.34 318 -178.68 318 -178 318 C-177.814375 316.7625 -177.814375 316.7625 -177.625 315.5 C-176.92897845 311.60227933 -175.99119051 307.83260331 -175 304 C-174.34 304 -173.68 304 -173 304 C-172.814375 302.7625 -172.814375 302.7625 -172.625 301.5 C-171.92897845 297.60227933 -170.99119051 293.83260331 -170 290 C-169.34 290 -168.68 290 -168 290 C-167.87625 289.360625 -167.7525 288.72125 -167.625 288.0625 C-166.8020178 284.02988724 -165.90114025 280.01576093 -165 276 C-164.34 276 -163.68 276 -163 276 C-163.04125 275.2575 -163.0825 274.515 -163.125 273.75 C-162.99184228 270.82053009 -162.31856009 269.55955782 -161 267 C-160.835 266.01 -160.67 265.02 -160.5 264 C-160.02842341 261.17054046 -159.35863416 259.47750935 -158 257 C-156.36775147 253.35144445 -155.55227549 249.95797433 -155 246 C-154.67 246 -154.34 246 -154 246 C-153.67 244.35 -153.34 242.7 -153 241 C-152.34 241 -151.68 241 -151 241 C-150.67 237.7 -150.34 234.4 -150 231 C-149.34 231 -148.68 231 -148 231 C-148 229.02 -148 227.04 -148 225 C-149.65 224.34 -151.3 223.68 -153 223 C-153 222.34 -153 221.68 -153 221 C-154.65 220.67 -156.3 220.34 -158 220 C-158 219.34 -158 218.68 -158 218 C-158.721875 217.731875 -159.44375 217.46375 -160.1875 217.1875 C-162.99766383 216.00098638 -165.48416557 214.72514361 -168 213 C-168 212.34 -168 211.68 -168 211 C-169.65 210.67 -171.3 210.34 -173 210 C-173 209.34 -173 208.68 -173 208 C-173.78375 207.690625 -174.5675 207.38125 -175.375 207.0625 C-178 206 -178 206 -180 205 C-180 204.34 -180 203.68 -180 203 C-180.99 203 -181.98 203 -183 203 C-183 202.34 -183 201.68 -183 201 C-183.78375 200.690625 -184.5675 200.38125 -185.375 200.0625 C-188 199 -188 199 -190 198 C-190 197.34 -190 196.68 -190 196 C-191.65 195.67 -193.3 195.34 -195 195 C-195 194.34 -195 193.68 -195 193 C-195.99 193 -196.98 193 -198 193 C-198 192.34 -198 191.68 -198 191 C-198.78375 190.690625 -199.5675 190.38125 -200.375 190.0625 C-203 189 -203 189 -205 188 C-205 187.34 -205 186.68 -205 186 C-206.65 185.67 -208.3 185.34 -210 185 C-210 184.34 -210 183.68 -210 183 C-210.99 183 -211.98 183 -213 183 C-213 182.34 -213 181.68 -213 181 C-213.78375 180.690625 -214.5675 180.38125 -215.375 180.0625 C-218 179 -218 179 -220 178 C-220 177.34 -220 176.68 -220 176 C-220.99 176 -221.98 176 -223 176 C-223 175.34 -223 174.68 -223 174 C-223.680625 173.7525 -224.36125 173.505 -225.0625 173.25 C-228.56865083 171.75802092 -231.71620368 169.93164489 -235 168 C-235 167.34 -235 166.68 -235 166 C-235.66 166 -236.32 166 -237 166 C-237 164.68 -237 163.36 -237 162 C-234.36 161.67 -231.72 161.34 -229 161 C-229 160.34 -229 159.68 -229 159 C-227.35 158.67 -225.7 158.34 -224 158 C-224 157.67 -224 157.34 -224 157 C-220.7 156.67 -217.4 156.34 -214 156 C-214 155.34 -214 154.68 -214 154 C-212.35 154 -210.7 154 -209 154 C-209 153.34 -209 152.68 -209 152 C-205.7 151.67 -202.4 151.34 -199 151 C-199 150.34 -199 149.68 -199 149 C-197.35 149 -195.7 149 -194 149 C-194 148.34 -194 147.68 -194 147 C-193.36191406 146.86722656 -192.72382813 146.73445312 -192.06640625 146.59765625 C-191.24011719 146.42105469 -190.41382813 146.24445313 -189.5625 146.0625 C-188.73878906 145.88847656 -187.91507813 145.71445313 -187.06640625 145.53515625 C-185.02338796 145.19247006 -185.02338796 145.19247006 -184 144 C-182.33382885 143.95936168 -180.66611905 143.957279 -179 144 C-179 143.34 -179 142.68 -179 142 C-178.36191406 141.86722656 -177.72382813 141.73445312 -177.06640625 141.59765625 C-176.24011719 141.42105469 -175.41382813 141.24445313 -174.5625 141.0625 C-173.73878906 140.88847656 -172.91507812 140.71445313 -172.06640625 140.53515625 C-170.02338796 140.19247006 -170.02338796 140.19247006 -169 139 C-167.33382885 138.95936168 -165.66611905 138.957279 -164 139 C-164 138.34 -164 137.68 -164 137 C-160.7 136.67 -157.4 136.34 -154 136 C-154 135.34 -154 134.68 -154 134 C-152.02 134 -150.04 134 -148 134 C-148 133.34 -148 132.68 -148 132 C-144.7 131.67 -141.4 131.34 -138 131 C-138 130.34 -138 129.68 -138 129 C-136.02 129 -134.04 129 -132 129 C-132 128.34 -132 127.68 -132 127 C-130.27318563 126.49193553 -128.54342021 125.99389533 -126.8125 125.5 C-125.84957031 125.2215625 -124.88664062 124.943125 -123.89453125 124.65625 C-121.14654124 124.03322392 -118.80401584 123.87697188 -116 124 C-116 123.34 -116 122.68 -116 122 C-115.28972656 121.86722656 -114.57945312 121.73445313 -113.84765625 121.59765625 C-112.46900391 121.33275391 -112.46900391 121.33275391 -111.0625 121.0625 C-110.14597656 120.88847656 -109.22945313 120.71445313 -108.28515625 120.53515625 C-106.04710156 120.22285012 -106.04710156 120.22285012 -105 119 C-102.66702567 118.95907063 -100.33294775 118.95758277 -98 119 C-98 118.34 -98 117.68 -98 117 C-97.19175781 116.80664062 -96.38351563 116.61328125 -95.55078125 116.4140625 C-93.94783203 116.02347656 -93.94783203 116.02347656 -92.3125 115.625 C-91.25675781 115.36976562 -90.20101562 115.11453125 -89.11328125 114.8515625 C-83.66431963 113.6077774 -83.66431963 113.6077774 -79.75 110.0625 C-79.13982506 108.3845189 -78.56461793 106.69385378 -78 105 C-77.34 105 -76.68 105 -76 105 C-76 104.34 -76 103.68 -76 103 C-75.34 103 -74.68 103 -74 103 C-73.67 101.68 -73.34 100.36 -73 99 C-72.34 99 -71.68 99 -71 99 C-70.690625 98.21625 -70.38125 97.4325 -70.0625 96.625 C-69 94 -69 94 -68 92 C-67.34 92 -66.68 92 -66 92 C-65.7525 91.29488281 -65.505 90.58976562 -65.25 89.86328125 C-63.83896341 86.63112557 -62.0749274 84.03671098 -60 81.1875 C-59.29875 80.21167969 -58.5975 79.23585938 -57.875 78.23046875 C-56.946875 77.12638672 -56.946875 77.12638672 -56 76 C-55.34 76 -54.68 76 -54 76 C-53.67 74.68 -53.34 73.36 -53 72 C-52.34 72 -51.68 72 -51 72 C-50.690625 71.21625 -50.38125 70.4325 -50.0625 69.625 C-49 67 -49 67 -48 65 C-47.34 65 -46.68 65 -46 65 C-45.74863281 64.27425781 -45.49726563 63.54851562 -45.23828125 62.80078125 C-43.90228746 59.77899088 -42.31548211 57.70608686 -40.1875 55.1875 C-37.57258621 52.02207804 -35.22458402 48.90355464 -33.125 45.375 C-32.42375 44.26125 -31.7225 43.1475 -31 42 C-30.34 42 -29.68 42 -29 42 C-27.79371992 39.66785852 -26.8345262 37.50357861 -26 35 C-25.34 35 -24.68 35 -24 35 C-22.79371992 32.66785852 -21.8345262 30.50357861 -21 28 C-20.34 28 -19.68 28 -19 28 C-19 27.34 -19 26.68 -19 26 C-18.34 26 -17.68 26 -17 26 C-16.67 24.68 -16.34 23.36 -16 22 C-15.34 22 -14.68 22 -14 22 C-13.690625 21.21625 -13.38125 20.4325 -13.0625 19.625 C-12 17 -12 17 -11 15 C-10.34 15 -9.68 15 -9 15 C-8.690625 14.21625 -8.38125 13.4325 -8.0625 12.625 C-7 10 -7 10 -6 8 C-5.34 8 -4.68 8 -4 8 C-3.71125 7.4225 -3.4225 6.845 -3.125 6.25 C-2.08333333 4.16666667 -1.04166667 2.08333333 0 0 Z " fill="#006E39" transform="translate(267,7)"/>
<path d="M0 0 C9.09232091 -0.02314035 18.18463173 -0.04092375 27.27697563 -0.05181217 C31.49862582 -0.05703728 35.72025591 -0.06412822 39.94189453 -0.07543945 C44.01376672 -0.0862815 48.08561953 -0.09227964 52.15750504 -0.09487724 C53.71328156 -0.09672911 55.26905698 -0.10034518 56.82482529 -0.10573006 C58.99896307 -0.11295795 61.17302016 -0.1139902 63.34716797 -0.11352539 C64.58626923 -0.115746 65.82537048 -0.11796661 67.10202026 -0.12025452 C70 0 70 0 72 1 C70.78604047 4.64187858 69.90993923 4.91745993 66.625 6.6875 C65.83351563 7.12449219 65.04203125 7.56148438 64.2265625 8.01171875 C62 9 62 9 59 9 C59 9.66 59 10.32 59 11 C56.09451118 13.04169485 54.59857954 14 51 14 C51 14.66 51 15.32 51 16 C50.24074219 16.40992187 49.48148437 16.81984375 48.69921875 17.2421875 C47.70535156 17.78101562 46.71148437 18.31984375 45.6875 18.875 C44.70136719 19.40867187 43.71523438 19.94234375 42.69921875 20.4921875 C39.90413542 22.00722126 39.90413542 22.00722126 37 24 C36.01 24 35.02 24 34 24 C34 24.66 34 25.32 34 26 C33.27554687 26.38671875 32.55109375 26.7734375 31.8046875 27.171875 C25.48302047 30.54333375 25.48302047 30.54333375 19.4375 34.375 C17 36 17 36 15 36 C14.67 36.66 14.34 37.32 14 38 C11.9375 38.625 11.9375 38.625 10 39 C10 39.66 10 40.32 10 41 C9.01 41 8.02 41 7 41 C7 41.66 7 42.32 7 43 C5.02 43.33 3.04 43.66 1 44 C1 44.66 1 45.32 1 46 C0.01 46 -0.98 46 -2 46 C-2 46.66 -2 47.32 -2 48 C-3.65 48.33 -5.3 48.66 -7 49 C-7 49.66 -7 50.32 -7 51 C-7.99 51 -8.98 51 -10 51 C-10 51.66 -10 52.32 -10 53 C-11.65 53.33 -13.3 53.66 -15 54 C-15 54.66 -15 55.32 -15 56 C-15.99 56 -16.98 56 -18 56 C-18 56.66 -18 57.32 -18 58 C-20.90548882 60.04169485 -22.40142046 61 -26 61 C-26 61.66 -26 62.32 -26 63 C-26.50789063 63.24234375 -27.01578125 63.4846875 -27.5390625 63.734375 C-30.96133091 65.40064801 -34.24261631 67.07904101 -37.375 69.25 C-40 71 -40 71 -42 71 C-42 71.66 -42 72.32 -42 73 C-43.65 73.33 -45.3 73.66 -47 74 C-47 74.66 -47 75.32 -47 76 C-47.99 76 -48.98 76 -50 76 C-50 76.66 -50 77.32 -50 78 C-52.90548882 80.04169485 -54.40142046 81 -58 81 C-58 81.66 -58 82.32 -58 83 C-63.75 86 -63.75 86 -66 86 C-66 86.66 -66 87.32 -66 88 C-68.90548882 90.04169485 -70.40142046 91 -74 91 C-74 91.66 -74 92.32 -74 93 C-75.43701172 94.14501953 -75.43701172 94.14501953 -77.4296875 95.3828125 C-78.49896484 96.04990234 -78.49896484 96.04990234 -79.58984375 96.73046875 C-80.34394531 97.19066406 -81.09804688 97.65085937 -81.875 98.125 C-82.62136719 98.59292969 -83.36773437 99.06085938 -84.13671875 99.54296875 C-89.73045736 103 -89.73045736 103 -92 103 C-92.33 103.66 -92.66 104.32 -93 105 C-95.0625 105.625 -95.0625 105.625 -97 106 C-97 106.66 -97 107.32 -97 108 C-99.90548882 110.04169485 -101.40142046 111 -105 111 C-105 111.66 -105 112.32 -105 113 C-106.03125 113.5775 -107.0625 114.155 -108.125 114.75 C-110.5991283 116.15518443 -112.97240014 117.63215318 -115.3125 119.25 C-118 121 -118 121 -120 121 C-120 121.66 -120 122.32 -120 123 C-125.75 126 -125.75 126 -128 126 C-128 126.66 -128 127.32 -128 128 C-128.99 128 -129.98 128 -131 128 C-131 128.66 -131 129.32 -131 130 C-133.1171875 131.5078125 -133.1171875 131.5078125 -135.875 133.125 C-136.77992188 133.66382813 -137.68484375 134.20265625 -138.6171875 134.7578125 C-141 136 -141 136 -143 136 C-143 136.66 -143 137.32 -143 138 C-143.99 138 -144.98 138 -146 138 C-146 138.66 -146 139.32 -146 140 C-150.38461538 143 -150.38461538 143 -153 143 C-153 143.66 -153 144.32 -153 145 C-154.03125 145.5775 -155.0625 146.155 -156.125 146.75 C-158.5991283 148.15518443 -160.97240014 149.63215318 -163.3125 151.25 C-166 153 -166 153 -168 153 C-168 153.66 -168 154.32 -168 155 C-172.38461538 158 -172.38461538 158 -175 158 C-175 158.66 -175 159.32 -175 160 C-175.99 160 -176.98 160 -178 160 C-178 160.66 -178 161.32 -178 162 C-179.32 162.33 -180.64 162.66 -182 163 C-182 163.66 -182 164.32 -182 165 C-186.38461538 168 -186.38461538 168 -189 168 C-189 168.66 -189 169.32 -189 170 C-193.38461538 173 -193.38461538 173 -196 173 C-196 173.66 -196 174.32 -196 175 C-196.99 175 -197.98 175 -199 175 C-199 175.66 -199 176.32 -199 177 C-203.38461538 180 -203.38461538 180 -206 180 C-206 180.66 -206 181.32 -206 182 C-210.38461538 185 -210.38461538 185 -213 185 C-213 185.66 -213 186.32 -213 187 C-217.38461538 190 -217.38461538 190 -220 190 C-220 190.66 -220 191.32 -220 192 C-223.46153846 195 -223.46153846 195 -226 195 C-226 195.66 -226 196.32 -226 197 C-230.38461538 200 -230.38461538 200 -233 200 C-233 200.66 -233 201.32 -233 202 C-237.38461538 205 -237.38461538 205 -240 205 C-240 205.66 -240 206.32 -240 207 C-243.46153846 210 -243.46153846 210 -246 210 C-246 210.66 -246 211.32 -246 212 C-247.32 212.33 -248.64 212.66 -250 213 C-250 213.66 -250 214.32 -250 215 C-255.47619048 220 -255.47619048 220 -258 220 C-258 220.66 -258 221.32 -258 222 C-259.98600337 223.3540932 -261.98817543 224.68457624 -264 226 C-264.7425 226.7425 -265.485 227.485 -266.25 228.25 C-266.8275 228.8275 -267.405 229.405 -268 230 C-268.66 230 -269.32 230 -270 230 C-270 230.66 -270 231.32 -270 232 C-275.47619048 237 -275.47619048 237 -278 237 C-278 237.66 -278 238.32 -278 239 C-279.375 240.625 -279.375 240.625 -281 242 C-281.66 242 -282.32 242 -283 242 C-283 242.66 -283 243.32 -283 244 C-284.12539956 245.15950258 -285.25903276 246.31198689 -286.4296875 247.42578125 C-288.9403217 249.94266081 -291.17406847 252.69660986 -293.44921875 255.42578125 C-293.96097656 255.94527344 -294.47273438 256.46476562 -295 257 C-295.66 257 -296.32 257 -297 257 C-297.33 257.99 -297.66 258.98 -298 260 C-298.99 260.33 -299.98 260.66 -301 261 C-301 256.28963742 -300.19689729 255.55252981 -297.25 252.0625 C-296.55390625 251.22847656 -295.8578125 250.39445313 -295.140625 249.53515625 C-294.08101563 248.28025391 -294.08101563 248.28025391 -293 247 C-291.94039062 245.60587891 -291.94039062 245.60587891 -290.859375 244.18359375 C-290.24578125 243.46300781 -289.6321875 242.74242187 -289 242 C-288.34 242 -287.68 242 -287 242 C-286.731875 241.2575 -286.46375 240.515 -286.1875 239.75 C-285.04723249 237.10938051 -283.90619694 235.14447156 -282 233 C-281.34 233 -280.68 233 -280 233 C-279.690625 232.38125 -279.38125 231.7625 -279.0625 231.125 C-278.375 229.75 -277.6875 228.375 -277 227 C-276.34 227 -275.68 227 -275 227 C-274.690625 226.01 -274.690625 226.01 -274.375 225 C-272.50875748 220.92819814 -270.02438473 217.31203002 -267 214 C-266.34 214 -265.68 214 -265 214 C-264.5359375 213.071875 -264.5359375 213.071875 -264.0625 212.125 C-263.375 210.75 -262.6875 209.375 -262 208 C-261.34 208 -260.68 208 -260 208 C-259.690625 207.21625 -259.38125 206.4325 -259.0625 205.625 C-258 203 -258 203 -257 201 C-256.34 201 -255.68 201 -255 201 C-254.75765625 200.44828125 -254.5153125 199.8965625 -254.265625 199.328125 C-252.72388829 196.49209081 -250.82612719 194.22157999 -248.75 191.75 C-242.26876274 184.29693204 -242.26876274 184.29693204 -237 176 C-236.34 176 -235.68 176 -235 176 C-234.731875 175.4225 -234.46375 174.845 -234.1875 174.25 C-232.97070811 171.94449957 -231.69666121 169.97943808 -230 168 C-229.34 168 -228.68 168 -228 168 C-227.67 166.68 -227.34 165.36 -227 164 C-226.34 164 -225.68 164 -225 164 C-225 163.01 -225 162.02 -225 161 C-223.35570171 159.31126121 -221.68615782 157.64694485 -220 156 C-219.443125 155.071875 -218.88625 154.14375 -218.3125 153.1875 C-217.879375 152.465625 -217.44625 151.74375 -217 151 C-216.34 151 -215.68 151 -215 151 C-215 150.34 -215 149.68 -215 149 C-214.34 149 -213.68 149 -213 149 C-212.690625 148.38125 -212.38125 147.7625 -212.0625 147.125 C-211.375 145.75 -210.6875 144.375 -210 143 C-209.34 143 -208.68 143 -208 143 C-207.67 141.68 -207.34 140.36 -207 139 C-206.34 139 -205.68 139 -205 139 C-204.690625 138.38125 -204.38125 137.7625 -204.0625 137.125 C-203.375 135.75 -202.6875 134.375 -202 133 C-201.34 133 -200.68 133 -200 133 C-199.731875 132.443125 -199.46375 131.88625 -199.1875 131.3125 C-197.89100504 128.78774666 -196.57523677 126.36285516 -195 124 C-194.34 124 -193.68 124 -193 124 C-192.731875 123.4225 -192.46375 122.845 -192.1875 122.25 C-190.97070811 119.94449957 -189.69666121 117.97943808 -188 116 C-187.34 116 -186.68 116 -186 116 C-185.505 114.02 -185.505 114.02 -185 112 C-184.34 112 -183.68 112 -183 112 C-182.690625 111.38125 -182.38125 110.7625 -182.0625 110.125 C-181.375 108.75 -180.6875 107.375 -180 106 C-179.34 106 -178.68 106 -178 106 C-177.731875 105.42765625 -177.46375 104.8553125 -177.1875 104.265625 C-175.95867364 101.92115366 -174.57477824 99.87595062 -173 97.75 C-172.484375 97.04359375 -171.96875 96.3371875 -171.4375 95.609375 C-170.963125 95.07828125 -170.48875 94.5471875 -170 94 C-169.34 94 -168.68 94 -168 94 C-167.731875 93.42765625 -167.46375 92.8553125 -167.1875 92.265625 C-165.95867364 89.92115366 -164.57477824 87.87595062 -163 85.75 C-162.484375 85.04359375 -161.96875 84.3371875 -161.4375 83.609375 C-160.963125 83.07828125 -160.48875 82.5471875 -160 82 C-159.34 82 -158.68 82 -158 82 C-157.690625 81.38125 -157.38125 80.7625 -157.0625 80.125 C-156.375 78.75 -155.6875 77.375 -155 76 C-154.34 76 -153.68 76 -153 76 C-152.731875 75.443125 -152.46375 74.88625 -152.1875 74.3125 C-148.28571429 66.71428571 -148.28571429 66.71428571 -145 64 C-144.34 64 -143.68 64 -143 64 C-142.731875 63.4225 -142.46375 62.845 -142.1875 62.25 C-140.97070811 59.94449957 -139.69666121 57.97943808 -138 56 C-137.34 56 -136.68 56 -136 56 C-135.67 54.68 -135.34 53.36 -135 52 C-134.34 52 -133.68 52 -133 52 C-132.731875 51.4225 -132.46375 50.845 -132.1875 50.25 C-130.97070811 47.94449957 -129.69666121 45.97943808 -128 44 C-127.34 44 -126.68 44 -126 44 C-125.6596875 43.195625 -125.6596875 43.195625 -125.3125 42.375 C-123.90603024 39.82995948 -122.19645698 37.72498552 -120.30078125 35.52734375 C-119.08682995 34.10195348 -117.94620363 32.61501049 -116.8125 31.125 C-116.214375 30.42375 -115.61625 29.7225 -115 29 C-114.34 29 -113.68 29 -113 29 C-113 28.34 -113 27.68 -113 27 C-112.34 27 -111.68 27 -111 27 C-110.61521484 26.12214844 -110.61521484 26.12214844 -110.22265625 25.2265625 C-108.89437838 22.80765392 -107.43475199 21.26801128 -105.4375 19.375 C-102.85984611 16.95478041 -102.85984611 16.95478041 -101 14 C-100.34 14 -99.68 14 -99 14 C-98.67 12.68 -98.34 11.36 -98 10 C-96.68 9.67 -95.36 9.34 -94 9 C-93.9175 8.401875 -93.835 7.80375 -93.75 7.1875 C-92.72398337 4.19495151 -91.77475873 3.54797912 -89 2 C-86.0561665 1.69589449 -83.32062003 1.56245986 -80.37597656 1.56762695 C-79.07299873 1.55233948 -79.07299873 1.55233948 -77.74369812 1.53674316 C-74.87594177 1.5065779 -72.00851926 1.49734182 -69.140625 1.48828125 C-67.15092862 1.47143719 -65.16124289 1.45328732 -63.17156982 1.43388367 C-57.93718801 1.38634799 -52.70284942 1.35656164 -47.46832275 1.33044434 C-42.12593043 1.30065687 -36.78368705 1.2541203 -31.44140625 1.20898438 C-20.96101536 1.12291063 -10.48059384 1.05558339 0 1 C0 0.67 0 0.34 0 0 Z " fill="#78BC41" transform="translate(411,102)"/>
<path d="M0 0 C0 0.99 0 1.98 0 3 C0.66 3 1.32 3 2 3 C2.12117188 3.78503906 2.24234375 4.57007813 2.3671875 5.37890625 C3.27186083 11.05051213 4.2579299 16.52492254 6 22 C6.33 22 6.66 22 7 22 C7.13277344 22.85464844 7.26554688 23.70929688 7.40234375 24.58984375 C7.57894531 25.69457031 7.75554687 26.79929688 7.9375 27.9375 C8.11152344 29.03964844 8.28554688 30.14179688 8.46484375 31.27734375 C8.71845136 33.90426929 8.71845136 33.90426929 10 35 C10.04080783 36.99958364 10.04254356 39.00045254 10 41 C10.66 41 11.32 41 12 41 C12.13277344 41.85464844 12.26554688 42.70929688 12.40234375 43.58984375 C12.66724609 45.24693359 12.66724609 45.24693359 12.9375 46.9375 C13.11152344 48.03964844 13.28554688 49.14179688 13.46484375 50.27734375 C13.71845136 52.90426929 13.71845136 52.90426929 15 54 C15.04080783 55.99958364 15.04254356 58.00045254 15 60 C15.66 60 16.32 60 17 60 C17.13277344 60.85464844 17.26554688 61.70929688 17.40234375 62.58984375 C17.66724609 64.24693359 17.66724609 64.24693359 17.9375 65.9375 C18.11152344 67.03964844 18.28554688 68.14179688 18.46484375 69.27734375 C18.71845136 71.90426929 18.71845136 71.90426929 20 73 C20.04080783 74.99958364 20.04254356 77.00045254 20 79 C20.66 79 21.32 79 22 79 C22.13277344 79.77085937 22.26554688 80.54171875 22.40234375 81.3359375 C22.57894531 82.33882813 22.75554687 83.34171875 22.9375 84.375 C23.11152344 85.37273437 23.28554688 86.37046875 23.46484375 87.3984375 C23.87712062 89.96909656 23.87712062 89.96909656 25 92 C25.039992 93.99960012 25.04346799 96.00047242 25 98 C25.66 98 26.32 98 27 98 C27 100.31 27 102.62 27 105 C27.66 105 28.32 105 29 105 C29.33 108.96 29.66 112.92 30 117 C30.66 117 31.32 117 32 117 C32 119.31 32 121.62 32 124 C32.66 124 33.32 124 34 124 C34.33 127.96 34.66 131.92 35 136 C35.66 136 36.32 136 37 136 C37 138.31 37 140.62 37 143 C37.66 143 38.32 143 39 143 C39.33 146.96 39.66 150.92 40 155 C40.66 155 41.32 155 42 155 C42 157.31 42 159.62 42 162 C42.66 162 43.32 162 44 162 C44.33 165.96 44.66 169.92 45 174 C45.66 174 46.32 174 47 174 C47 176.31 47 178.62 47 181 C47.66 181 48.32 181 49 181 C49.33 184.96 49.66 188.92 50 193 C50.66 193 51.32 193 52 193 C52 193.99 52 194.98 52 196 C50.35 196 48.7 196 47 196 C47 195.34 47 194.68 47 194 C44.34771188 192.92474806 41.71631546 191.90543849 39 191 C39 190.34 39 189.68 39 189 C38.4225 188.87625 37.845 188.7525 37.25 188.625 C34.97664233 187.99351176 33.0746471 187.11141809 31 186 C31 185.34 31 184.68 31 184 C30.4225 183.87625 29.845 183.7525 29.25 183.625 C26.97664233 182.99351176 25.0746471 182.11141809 23 181 C23 180.34 23 179.68 23 179 C21.35 178.67 19.7 178.34 18 178 C18 177.34 18 176.68 18 176 C17.01 176 16.02 176 15 176 C15 175.34 15 174.68 15 174 C14.4225 173.87625 13.845 173.7525 13.25 173.625 C10.97664233 172.99351176 9.0746471 172.11141809 7 171 C7 170.34 7 169.68 7 169 C6.4225 168.87625 5.845 168.7525 5.25 168.625 C2.97664233 167.99351176 1.0746471 167.11141809 -1 166 C-1 165.34 -1 164.68 -1 164 C-1.86625 163.814375 -1.86625 163.814375 -2.75 163.625 C-5.02335767 162.99351176 -6.9253529 162.11141809 -9 161 C-9 160.34 -9 159.68 -9 159 C-9.99 159 -10.98 159 -12 159 C-12 158.34 -12 157.68 -12 157 C-13.65 156.67 -15.3 156.34 -17 156 C-17 155.34 -17 154.68 -17 154 C-17.99 154 -18.98 154 -20 154 C-20 153.34 -20 152.68 -20 152 C-21.65 151.67 -23.3 151.34 -25 151 C-25 150.34 -25 149.68 -25 149 C-25.58426758 148.87616943 -26.16853516 148.75233887 -26.77050781 148.62475586 C-30.44914878 147.59391462 -33.49846543 145.52632854 -36.75 143.5625 C-37.44738281 143.15451172 -38.14476562 142.74652344 -38.86328125 142.32617188 C-40.6125987 141.27692374 -42.31150699 140.14456305 -44 139 C-44 138.34 -44 137.68 -44 137 C-45.65 136.67 -47.3 136.34 -49 136 C-49 135.34 -49 134.68 -49 134 C-49.99 134 -50.98 134 -52 134 C-52 133.34 -52 132.68 -52 132 C-53.65 131.67 -55.3 131.34 -57 131 C-57 130.34 -57 129.68 -57 129 C-57.8353125 128.814375 -57.8353125 128.814375 -58.6875 128.625 C-61.22114364 127.94023145 -63.57921032 127.00866237 -66 126 C-66 125.34 -66 124.68 -66 124 C-67.02673828 123.62875 -67.02673828 123.62875 -68.07421875 123.25 C-71.50813451 121.78290648 -74.6404887 119.95200695 -77.8125 118 C-78.40998047 117.64421875 -79.00746094 117.2884375 -79.62304688 116.921875 C-81.11890414 116.00555558 -82.56477862 115.00864753 -84 114 C-84 113.34 -84 112.68 -84 112 C-85.11375 111.814375 -85.11375 111.814375 -86.25 111.625 C-88.80141485 111.04513299 -90.7267573 110.26291261 -93 109 C-93 108.34 -93 107.68 -93 107 C-95.65228812 105.92474806 -98.28368454 104.90543849 -101 104 C-101 103.34 -101 102.68 -101 102 C-103.65228812 100.92474806 -106.28368454 99.90543849 -109 99 C-109 98.34 -109 97.68 -109 97 C-109.639375 96.773125 -110.27875 96.54625 -110.9375 96.3125 C-113.59275054 95.17453548 -116.17446934 93.99375 -118.75 92.6875 C-119.52859375 92.29949219 -120.3071875 91.91148437 -121.109375 91.51171875 C-123 90 -123 90 -123.765625 87.33203125 C-123.84296875 86.56246094 -123.9203125 85.79289062 -124 85 C-118.25 82 -118.25 82 -116 82 C-116 81.34 -116 80.68 -116 80 C-115.01 80 -114.02 80 -113 80 C-113 79.34 -113 78.68 -113 78 C-111.02 77.505 -111.02 77.505 -109 77 C-109 76.34 -109 75.68 -109 75 C-108.01 75 -107.02 75 -106 75 C-106 74.34 -106 73.68 -106 73 C-101.61538462 70 -101.61538462 70 -99 70 C-99 69.34 -99 68.68 -99 68 C-94.61538462 65 -94.61538462 65 -92 65 C-92 64.34 -92 63.68 -92 63 C-90.04109119 61.60699818 -88.0360882 60.27754554 -86 59 C-85.01 58.34 -84.02 57.68 -83 57 C-82.34 57 -81.68 57 -81 57 C-81 56.34 -81 55.68 -81 55 C-80.01 55 -79.02 55 -78 55 C-78 54.34 -78 53.68 -78 53 C-76.02 52.505 -76.02 52.505 -74 52 C-74 51.34 -74 50.68 -74 50 C-73.01 50 -72.02 50 -71 50 C-71 49.34 -71 48.68 -71 48 C-66.61538462 45 -66.61538462 45 -64 45 C-64 44.34 -64 43.68 -64 43 C-59.61538462 40 -59.61538462 40 -57 40 C-57 39.34 -57 38.68 -57 38 C-52.61538462 35 -52.61538462 35 -50 35 C-50 34.34 -50 33.68 -50 33 C-47.74185152 31.20173555 -45.48722261 29.5253199 -43.125 27.875 C-42.47402344 27.40707031 -41.82304687 26.93914062 -41.15234375 26.45703125 C-36.26412172 23 -36.26412172 23 -34 23 C-33.67 22.34 -33.34 21.68 -33 21 C-30.9375 20.375 -30.9375 20.375 -29 20 C-29 19.34 -29 18.68 -29 18 C-24.61538462 15 -24.61538462 15 -22 15 C-22 14.34 -22 13.68 -22 13 C-17.61538462 10 -17.61538462 10 -15 10 C-15 9.34 -15 8.68 -15 8 C-13.11947058 6.54805635 -11.16863151 5.18635395 -9.1875 3.875 C-8.10855469 3.15054688 -7.02960938 2.42609375 -5.91796875 1.6796875 C-3 0 -3 0 0 0 Z " fill="#006E38" transform="translate(342,210)"/>
<path d="M0 0 C0.66 0 1.32 0 2 0 C2 0.66 2 1.32 2 2 C2.99 2 3.98 2 5 2 C5 1.34 5 0.68 5 0 C5.99 0.33 6.98 0.66 8 1 C7.01 2.485 7.01 2.485 6 4 C5.34 4 4.68 4 4 4 C4 4.66 4 5.32 4 6 C2.625 7.625 2.625 7.625 1 9 C0.34 9 -0.32 9 -1 9 C-1 9.66 -1 10.32 -1 11 C-2.12539956 12.15950258 -3.25903276 13.31198689 -4.4296875 14.42578125 C-6.9403217 16.94266081 -9.17406847 19.69660986 -11.44921875 22.42578125 C-11.96097656 22.94527344 -12.47273438 23.46476562 -13 24 C-13.66 24 -14.32 24 -15 24 C-15.33 24.99 -15.66 25.98 -16 27 C-16.99 27.33 -17.98 27.66 -19 28 C-19 23.28963742 -18.19689729 22.55252981 -15.25 19.0625 C-14.55390625 18.22847656 -13.8578125 17.39445312 -13.140625 16.53515625 C-12.43421875 15.69855469 -11.7278125 14.86195313 -11 14 C-10.29359375 13.07058594 -9.5871875 12.14117187 -8.859375 11.18359375 C-7.93898438 10.10271484 -7.93898438 10.10271484 -7 9 C-6.34 9 -5.68 9 -5 9 C-4.731875 8.2575 -4.46375 7.515 -4.1875 6.75 C-3.04723249 4.10938051 -1.90619694 2.14447156 0 0 Z " fill="#669E36" transform="translate(129,335)"/>
<path d="M0 0 C1.66666667 0 3.33333333 0 5 0 C3.53289058 4.84146109 0.6487256 8.55948972 -3 12 C-3.66 12 -4.32 12 -5 12 C-5.33 12.99 -5.66 13.98 -6 15 C-6.99 15.33 -7.98 15.66 -9 16 C-9 11.22553393 -8.0687005 10.4148143 -5.0625 6.875 C-2.24132732 3.62816818 -2.24132732 3.62816818 0 0 Z " fill="#54852C" transform="translate(119,347)"/>
<path d="M0 0 C0.66 0.99 1.32 1.98 2 3 C2.33 2.34 2.66 1.68 3 1 C4.32 1 5.64 1 7 1 C7 1.66 7 2.32 7 3 C6.34 3 5.68 3 5 3 C4.7525 3.680625 4.505 4.36125 4.25 5.0625 C2.75802092 8.56865083 0.93164489 11.71620368 -1 15 C-2.32 14.34 -3.64 13.68 -5 13 C-4.01 10.03 -3.02 7.06 -2 4 C-1.34 4 -0.68 4 0 4 C0 2.68 0 1.36 0 0 Z " fill="#004A26" transform="translate(59,403)"/>
<path d="M0 0 C0.66 0 1.32 0 2 0 C2 1.98 2 3.96 2 6 C2.66 6 3.32 6 4 6 C4 6.99 4 7.98 4 9 C2.35 9 0.7 9 -1 9 C-1 8.34 -1 7.68 -1 7 C-1.66 6.67 -2.32 6.34 -3 6 C-2.01 5.67 -1.02 5.34 0 5 C0 3.35 0 1.7 0 0 Z " fill="#00532B" transform="translate(390,397)"/>
<path d="M0 0 C0.33 0.66 0.66 1.32 1 2 C1.66 2 2.32 2 3 2 C3 1.34 3 0.68 3 0 C3.66 0 4.32 0 5 0 C3.125 4.75 3.125 4.75 2 7 C0.68 6.34 -0.64 5.68 -2 5 C-1.34 3.35 -0.68 1.7 0 0 Z " fill="#003516" transform="translate(56,411)"/>
<path d="M0 0 C0 0.99 0 1.98 0 3 C-2.88834003 5.10770759 -4.38462395 6 -8 6 C-8 5.01 -8 4.02 -8 3 C-2.25 0 -2.25 0 0 0 Z " fill="#005228" transform="translate(226,292)"/>
<path d="M0 0 C2.97 0.495 2.97 0.495 6 1 C3.64722731 3.72426311 1.37503669 4.8141763 -2 6 C-2.33 5.34 -2.66 4.68 -3 4 C-2.01 4 -1.02 4 0 4 C0 2.68 0 1.36 0 0 Z " fill="#67A03A" transform="translate(473,105)"/>
<path d="M0 0 C0.66 0.66 1.32 1.32 2 2 C1.01 2.33 0.02 2.66 -1 3 C-1.061875 3.763125 -1.12375 4.52625 -1.1875 5.3125 C-2 8 -2 8 -4.5625 9.8125 C-5.366875 10.204375 -6.17125 10.59625 -7 11 C-6.690625 10.401875 -6.38125 9.80375 -6.0625 9.1875 C-4.89790296 6.91043228 -4.89790296 6.91043228 -4 4 C-3.34 4 -2.68 4 -2 4 C-2 3.34 -2 2.68 -2 2 C-1.34 2 -0.68 2 0 2 C0 1.34 0 0.68 0 0 Z " fill="#004E2A" transform="translate(250,31)"/>
<path d="M0 0 C0.99 0 1.98 0 3 0 C2.1875 1.9375 2.1875 1.9375 1 4 C0.01 4.33 -0.98 4.66 -2 5 C-2 5.66 -2 6.32 -2 7 C-2.66 7 -3.32 7 -4 7 C-2.92598892 4.08482708 -2.22189824 2.22189824 0 0 Z " fill="#88CE45" transform="translate(240,198)"/>
<path d="M0 0 C0.33 0.66 0.66 1.32 1 2 C-0.32 3.32 -1.64 4.64 -3 6 C-3.66 5.67 -4.32 5.34 -5 5 C-4.1875 3.0625 -4.1875 3.0625 -3 1 C-2.01 0.67 -1.02 0.34 0 0 Z " fill="#529129" transform="translate(114,357)"/>
<path d="M0 0 C0.99 0 1.98 0 3 0 C3.33 1.32 3.66 2.64 4 4 C3.34 4 2.68 4 2 4 C2 4.66 2 5.32 2 6 C1.34 6 0.68 6 0 6 C0 4.02 0 2.04 0 0 Z " fill="#006835" transform="translate(57,407)"/>
<path d="M0 0 C1.32 0 2.64 0 4 0 C3.67 1.32 3.34 2.64 3 4 C2.01 3.67 1.02 3.34 0 3 C-0.33 3.99 -0.66 4.98 -1 6 C-1.33 5.01 -1.66 4.02 -2 3 C-1.34 2.01 -0.68 1.02 0 0 Z " fill="#7BC640" transform="translate(122,344)"/>
<path d="M0 0 C1.32 0 2.64 0 4 0 C4 0.99 4 1.98 4 3 C3.01 3 2.02 3 1 3 C1 3.66 1 4.32 1 5 C0.34 5 -0.32 5 -1 5 C-0.67 3.35 -0.34 1.7 0 0 Z " fill="#5C902F" transform="translate(417,140)"/>
<path d="M0 0 C1.32 0.66 2.64 1.32 4 2 C2.68 3.32 1.36 4.64 0 6 C-0.99 5.34 -1.98 4.68 -3 4 C-2.01 2.68 -1.02 1.36 0 0 Z " fill="#2C6C16" transform="translate(115,353)"/>
<path d="" fill="#000000" transform="translate(0,0)"/>
<path d="M0 0 C2 1 2 1 2 1 Z " fill="#000000" transform="translate(295,349)"/>
<path d="M0 0 C2 1 2 1 2 1 Z " fill="#000000" transform="translate(149,327)"/>
<path d="" fill="#000000" transform="translate(0,0)"/>
<path d="M0 0 C2 1 2 1 2 1 Z " fill="#000000" transform="translate(159,319)"/>
<path d="M0 0 C2 1 2 1 2 1 Z " fill="#000000" transform="translate(228,307)"/>
<path d="M0 0 C2 1 2 1 2 1 Z " fill="#000000" transform="translate(144,302)"/>
<path d="M0 0 C2 1 2 1 2 1 Z " fill="#000000" transform="translate(161,291)"/>
<path d="" fill="#000000" transform="translate(0,0)"/>
<path d="M0 0 C2 1 2 1 2 1 Z " fill="#000000" transform="translate(164,277)"/>
<path d="" fill="#000000" transform="translate(0,0)"/>
<path d="M0 0 C2 1 2 1 2 1 Z " fill="#000000" transform="translate(280,249)"/>
<path d="" fill="#000000" transform="translate(0,0)"/>
<path d="M0 0 C2 1 2 1 2 1 Z " fill="#000000" transform="translate(203,239)"/>
<path d="" fill="#000000" transform="translate(0,0)"/>
<path d="M0 0 C2 1 2 1 2 1 Z " fill="#000000" transform="translate(104,225)"/>
<path d="M0 0 C2 1 2 1 2 1 Z " fill="#000000" transform="translate(89,215)"/>
<path d="" fill="#000000" transform="translate(0,0)"/>
<path d="M0 0 C2 1 2 1 2 1 Z " fill="#000000" transform="translate(79,208)"/>
<path d="M0 0 C2 1 2 1 2 1 Z " fill="#000000" transform="translate(233,202)"/>
<path d="M0 0 C2 1 2 1 2 1 Z " fill="#000000" transform="translate(226,198)"/>
<path d="" fill="#000000" transform="translate(0,0)"/>
<path d="" fill="#000000" transform="translate(0,0)"/>
<path d="M0 0 C2 1 2 1 2 1 Z " fill="#000000" transform="translate(285,140)"/>
<path d="M0 0 C2 1 2 1 2 1 Z " fill="#000000" transform="translate(283,126)"/>
<path d="" fill="#000000" transform="translate(0,0)"/>
<path d="M0 0 C2 1 2 1 2 1 Z " fill="#000000" transform="translate(300,123)"/>
<path d="" fill="#000000" transform="translate(0,0)"/>
<path d="M0 0 C2 1 2 1 2 1 Z " fill="#000000" transform="translate(298,108)"/>
<path d="" fill="#000000" transform="translate(0,0)"/>
<path d="M0 0 C2 1 2 1 2 1 Z " fill="#000000" transform="translate(223,63)"/>
<path d="M0 0 C2 1 2 1 2 1 Z " fill="#000000" transform="translate(228,56)"/>
<path d="M0 0 C2 1 2 1 2 1 Z " fill="#000000" transform="translate(238,43)"/>
<path d="" fill="#000000" transform="translate(0,0)"/>
<path d="" fill="#000000" transform="translate(0,0)"/>
<path d="" fill="#000000" transform="translate(0,0)"/>
<path d="" fill="#000000" transform="translate(0,0)"/>
<path d="" fill="#000000" transform="translate(0,0)"/>
<path d="" fill="#000000" transform="translate(0,0)"/>
<path d="" fill="#000000" transform="translate(0,0)"/>
<path d="" fill="#000000" transform="translate(0,0)"/>
<path d="" fill="#000000" transform="translate(0,0)"/>
<path d="" fill="#000000" transform="translate(0,0)"/>
<path d="" fill="#000000" transform="translate(0,0)"/>
<path d="" fill="#000000" transform="translate(0,0)"/>
<path d="" fill="#000000" transform="translate(0,0)"/>
<path d="" fill="#000000" transform="translate(0,0)"/>
<path d="" fill="#000000" transform="translate(0,0)"/>
<path d="" fill="#000000" transform="translate(0,0)"/>
<path d="" fill="#000000" transform="translate(0,0)"/>
<path d="" fill="#000000" transform="translate(0,0)"/>
<path d="" fill="#000000" transform="translate(0,0)"/>
<path d="" fill="#000000" transform="translate(0,0)"/>
<path d="" fill="#000000" transform="translate(0,0)"/>
<path d="" fill="#000000" transform="translate(0,0)"/>
<path d="" fill="#000000" transform="translate(0,0)"/>
<path d="" fill="#000000" transform="translate(0,0)"/>
<path d="" fill="#000000" transform="translate(0,0)"/>
<path d="" fill="#000000" transform="translate(0,0)"/>
<path d="" fill="#000000" transform="translate(0,0)"/>
<path d="" fill="#000000" transform="translate(0,0)"/>
<path d="" fill="#000000" transform="translate(0,0)"/>
<path d="" fill="#000000" transform="translate(0,0)"/>
<path d="" fill="#000000" transform="translate(0,0)"/>
<path d="" fill="#000000" transform="translate(0,0)"/>
<path d="" fill="#000000" transform="translate(0,0)"/>
<path d="" fill="#000000" transform="translate(0,0)"/>
<path d="" fill="#000000" transform="translate(0,0)"/>
<path d="" fill="#000000" transform="translate(0,0)"/>
<path d="" fill="#000000" transform="translate(0,0)"/>
<path d="" fill="#000000" transform="translate(0,0)"/>
<path d="" fill="#000000" transform="translate(0,0)"/>
<path d="" fill="#000000" transform="translate(0,0)"/>
<path d="" fill="#000000" transform="translate(0,0)"/>
<path d="" fill="#000000" transform="translate(0,0)"/>
<path d="" fill="#000000" transform="translate(0,0)"/>
<path d="" fill="#000000" transform="translate(0,0)"/>
<path d="" fill="#000000" transform="translate(0,0)"/>
<path d="" fill="#000000" transform="translate(0,0)"/>
<path d="" fill="#000000" transform="translate(0,0)"/>
<path d="" fill="#000000" transform="translate(0,0)"/>
<path d="" fill="#000000" transform="translate(0,0)"/>
<path d="" fill="#000000" transform="translate(0,0)"/>
<path d="" fill="#000000" transform="translate(0,0)"/>
<path d="" fill="#000000" transform="translate(0,0)"/>
<path d="" fill="#000000" transform="translate(0,0)"/>
<path d="" fill="#000000" transform="translate(0,0)"/>
<path d="" fill="#000000" transform="translate(0,0)"/>
<path d="" fill="#000000" transform="translate(0,0)"/>
<path d="" fill="#000000" transform="translate(0,0)"/>
<path d="" fill="#000000" transform="translate(0,0)"/>
<path d="" fill="#000000" transform="translate(0,0)"/>
<path d="" fill="#000000" transform="translate(0,0)"/>
<path d="" fill="#000000" transform="translate(0,0)"/>
<path d="" fill="#000000" transform="translate(0,0)"/>
<path d="" fill="#000000" transform="translate(0,0)"/>
<path d="" fill="#000000" transform="translate(0,0)"/>
<path d="" fill="#000000" transform="translate(0,0)"/>
<path d="" fill="#000000" transform="translate(0,0)"/>
<path d="" fill="#000000" transform="translate(0,0)"/>
<path d="" fill="#000000" transform="translate(0,0)"/>
<path d="" fill="#000000" transform="translate(0,0)"/>
<path d="" fill="#000000" transform="translate(0,0)"/>
<path d="" fill="#000000" transform="translate(0,0)"/>
<path d="" fill="#000000" transform="translate(0,0)"/>
<path d="" fill="#000000" transform="translate(0,0)"/>
<path d="" fill="#000000" transform="translate(0,0)"/>
<path d="" fill="#000000" transform="translate(0,0)"/>
<path d="" fill="#000000" transform="translate(0,0)"/>
<path d="" fill="#000000" transform="translate(0,0)"/>
<path d="" fill="#000000" transform="translate(0,0)"/>
<path d="" fill="#000000" transform="translate(0,0)"/>
<path d="" fill="#000000" transform="translate(0,0)"/>
<path d="" fill="#000000" transform="translate(0,0)"/>
<path d="" fill="#000000" transform="translate(0,0)"/>
<path d="" fill="#000000" transform="translate(0,0)"/>
<path d="" fill="#000000" transform="translate(0,0)"/>
<path d="" fill="#000000" transform="translate(0,0)"/>
<path d="" fill="#000000" transform="translate(0,0)"/>
<path d="" fill="#000000" transform="translate(0,0)"/>
<path d="" fill="#000000" transform="translate(0,0)"/>
<path d="" fill="#000000" transform="translate(0,0)"/>
<path d="" fill="#000000" transform="translate(0,0)"/>
<path d="" fill="#000000" transform="translate(0,0)"/>
<path d="" fill="#000000" transform="translate(0,0)"/>
<path d="" fill="#000000" transform="translate(0,0)"/>
<path d="" fill="#000000" transform="translate(0,0)"/>
<path d="" fill="#000000" transform="translate(0,0)"/>
<path d="" fill="#000000" transform="translate(0,0)"/>
<path d="" fill="#000000" transform="translate(0,0)"/>
<path d="" fill="#000000" transform="translate(0,0)"/>
<path d="" fill="#000000" transform="translate(0,0)"/>
<path d="" fill="#000000" transform="translate(0,0)"/>
<path d="" fill="#000000" transform="translate(0,0)"/>
<path d="" fill="#000000" transform="translate(0,0)"/>
<path d="" fill="#000000" transform="translate(0,0)"/>
<path d="" fill="#000000" transform="translate(0,0)"/>
<path d="" fill="#000000" transform="translate(0,0)"/>
<path d="" fill="#000000" transform="translate(0,0)"/>
<path d="" fill="#000000" transform="translate(0,0)"/>
<path d="" fill="#000000" transform="translate(0,0)"/>
<path d="" fill="#000000" transform="translate(0,0)"/>
<path d="" fill="#000000" transform="translate(0,0)"/>
<path d="" fill="#000000" transform="translate(0,0)"/>
<path d="" fill="#000000" transform="translate(0,0)"/>
<path d="" fill="#000000" transform="translate(0,0)"/>
<path d="" fill="#000000" transform="translate(0,0)"/>
<path d="" fill="#000000" transform="translate(0,0)"/>
<path d="" fill="#000000" transform="translate(0,0)"/>
<path d="" fill="#000000" transform="translate(0,0)"/>
<path d="" fill="#000000" transform="translate(0,0)"/>
<path d="" fill="#000000" transform="translate(0,0)"/>
<path d="" fill="#000000" transform="translate(0,0)"/>
<path d="" fill="#000000" transform="translate(0,0)"/>
<path d="" fill="#000000" transform="translate(0,0)"/>
<path d="" fill="#000000" transform="translate(0,0)"/>
<path d="" fill="#000000" transform="translate(0,0)"/>
<path d="" fill="#000000" transform="translate(0,0)"/>
<path d="" fill="#000000" transform="translate(0,0)"/>
<path d="" fill="#000000" transform="translate(0,0)"/>
<path d="" fill="#000000" transform="translate(0,0)"/>
<path d="" fill="#000000" transform="translate(0,0)"/>
<path d="" fill="#000000" transform="translate(0,0)"/>
<path d="" fill="#000000" transform="translate(0,0)"/>
<path d="" fill="#000000" transform="translate(0,0)"/>
<path d="" fill="#000000" transform="translate(0,0)"/>
<path d="" fill="#000000" transform="translate(0,0)"/>
<path d="" fill="#000000" transform="translate(0,0)"/>
<path d="" fill="#000000" transform="translate(0,0)"/>
<path d="" fill="#000000" transform="translate(0,0)"/>
<path d="" fill="#000000" transform="translate(0,0)"/>
<path d="" fill="#000000" transform="translate(0,0)"/>
<path d="" fill="#000000" transform="translate(0,0)"/>
<path d="" fill="#000000" transform="translate(0,0)"/>
<path d="" fill="#000000" transform="translate(0,0)"/>
<path d="" fill="#000000" transform="translate(0,0)"/>
<path d="" fill="#000000" transform="translate(0,0)"/>
<path d="" fill="#000000" transform="translate(0,0)"/>
<path d="" fill="#000000" transform="translate(0,0)"/>
<path d="" fill="#000000" transform="translate(0,0)"/>
<path d="" fill="#000000" transform="translate(0,0)"/>
<path d="" fill="#000000" transform="translate(0,0)"/>
<path d="" fill="#000000" transform="translate(0,0)"/>
<path d="" fill="#000000" transform="translate(0,0)"/>
<path d="" fill="#000000" transform="translate(0,0)"/>
<path d="" fill="#000000" transform="translate(0,0)"/>
<path d="" fill="#000000" transform="translate(0,0)"/>
<path d="" fill="#000000" transform="translate(0,0)"/>
<path d="" fill="#000000" transform="translate(0,0)"/>
<path d="" fill="#000000" transform="translate(0,0)"/>
<path d="" fill="#000000" transform="translate(0,0)"/>
<path d="" fill="#000000" transform="translate(0,0)"/>
<path d="" fill="#000000" transform="translate(0,0)"/>
<path d="" fill="#000000" transform="translate(0,0)"/>
<path d="" fill="#000000" transform="translate(0,0)"/>
<path d="" fill="#000000" transform="translate(0,0)"/>
<path d="" fill="#000000" transform="translate(0,0)"/>
<path d="" fill="#000000" transform="translate(0,0)"/>
<path d="" fill="#000000" transform="translate(0,0)"/>
<path d="" fill="#000000" transform="translate(0,0)"/>
<path d="" fill="#000000" transform="translate(0,0)"/>
<path d="" fill="#000000" transform="translate(0,0)"/>
<path d="" fill="#000000" transform="translate(0,0)"/>
<path d="" fill="#000000" transform="translate(0,0)"/>
<path d="" fill="#000000" transform="translate(0,0)"/>
<path d="" fill="#000000" transform="translate(0,0)"/>
<path d="" fill="#000000" transform="translate(0,0)"/>
<path d="" fill="#000000" transform="translate(0,0)"/>
<path d="" fill="#000000" transform="translate(0,0)"/>
<path d="" fill="#000000" transform="translate(0,0)"/>
<path d="" fill="#000000" transform="translate(0,0)"/>
<path d="" fill="#000000" transform="translate(0,0)"/>
<path d="" fill="#000000" transform="translate(0,0)"/>
<path d="" fill="#000000" transform="translate(0,0)"/>
<path d="" fill="#000000" transform="translate(0,0)"/>
<path d="" fill="#000000" transform="translate(0,0)"/>
<path d="" fill="#000000" transform="translate(0,0)"/>
<path d="" fill="#000000" transform="translate(0,0)"/>
<path d="" fill="#000000" transform="translate(0,0)"/>
<path d="" fill="#000000" transform="translate(0,0)"/>
<path d="" fill="#000000" transform="translate(0,0)"/>
<path d="" fill="#000000" transform="translate(0,0)"/>
<path d="" fill="#000000" transform="translate(0,0)"/>
<path d="" fill="#000000" transform="translate(0,0)"/>
<path d="" fill="#000000" transform="translate(0,0)"/>
<path d="" fill="#000000" transform="translate(0,0)"/>
<path d="" fill="#000000" transform="translate(0,0)"/>
<path d="" fill="#000000" transform="translate(0,0)"/>
<path d="" fill="#000000" transform="translate(0,0)"/>
<path d="" fill="#000000" transform="translate(0,0)"/>
<path d="" fill="#000000" transform="translate(0,0)"/>
<path d="" fill="#000000" transform="translate(0,0)"/>
<path d="" fill="#000000" transform="translate(0,0)"/>
<path d="" fill="#000000" transform="translate(0,0)"/>
<path d="" fill="#000000" transform="translate(0,0)"/>
<path d="" fill="#000000" transform="translate(0,0)"/>
<path d="" fill="#000000" transform="translate(0,0)"/>
<path d="" fill="#000000" transform="translate(0,0)"/>
<path d="" fill="#000000" transform="translate(0,0)"/>
<path d="" fill="#000000" transform="translate(0,0)"/>
<path d="" fill="#000000" transform="translate(0,0)"/>
<path d="" fill="#000000" transform="translate(0,0)"/>
<path d="" fill="#000000" transform="translate(0,0)"/>
<path d="" fill="#000000" transform="translate(0,0)"/>
<path d="" fill="#000000" transform="translate(0,0)"/>
<path d="" fill="#000000" transform="translate(0,0)"/>
<path d="" fill="#000000" transform="translate(0,0)"/>
<path d="" fill="#000000" transform="translate(0,0)"/>
<path d="" fill="#000000" transform="translate(0,0)"/>
<path d="" fill="#000000" transform="translate(0,0)"/>
<path d="" fill="#000000" transform="translate(0,0)"/>
<path d="" fill="#000000" transform="translate(0,0)"/>
<path d="" fill="#000000" transform="translate(0,0)"/>
<path d="" fill="#000000" transform="translate(0,0)"/>
<path d="" fill="#000000" transform="translate(0,0)"/>
<path d="" fill="#000000" transform="translate(0,0)"/>
<path d="" fill="#000000" transform="translate(0,0)"/>
<path d="" fill="#000000" transform="translate(0,0)"/>
<path d="" fill="#000000" transform="translate(0,0)"/>
<path d="" fill="#000000" transform="translate(0,0)"/>
<path d="" fill="#000000" transform="translate(0,0)"/>
<path d="" fill="#000000" transform="translate(0,0)"/>
<path d="" fill="#000000" transform="translate(0,0)"/>
<path d="" fill="#000000" transform="translate(0,0)"/>
<path d="" fill="#000000" transform="translate(0,0)"/>
<path d="" fill="#000000" transform="translate(0,0)"/>
<path d="" fill="#000000" transform="translate(0,0)"/>
<path d="" fill="#000000" transform="translate(0,0)"/>
<path d="" fill="#000000" transform="translate(0,0)"/>
<path d="" fill="#000000" transform="translate(0,0)"/>
<path d="" fill="#000000" transform="translate(0,0)"/>
<path d="" fill="#000000" transform="translate(0,0)"/>
<path d="" fill="#000000" transform="translate(0,0)"/>
<path d="" fill="#000000" transform="translate(0,0)"/>
<path d="" fill="#000000" transform="translate(0,0)"/>
<path d="" fill="#000000" transform="translate(0,0)"/>
<path d="" fill="#000000" transform="translate(0,0)"/>
<path d="" fill="#000000" transform="translate(0,0)"/>
<path d="" fill="#000000" transform="translate(0,0)"/>
<path d="" fill="#000000" transform="translate(0,0)"/>
<path d="" fill="#000000" transform="translate(0,0)"/>
<path d="" fill="#000000" transform="translate(0,0)"/>
<path d="" fill="#000000" transform="translate(0,0)"/>
<path d="" fill="#000000" transform="translate(0,0)"/>
<path d="" fill="#000000" transform="translate(0,0)"/>
<path d="" fill="#000000" transform="translate(0,0)"/>
<path d="" fill="#000000" transform="translate(0,0)"/>
<path d="" fill="#000000" transform="translate(0,0)"/>
<path d="" fill="#000000" transform="translate(0,0)"/>
<path d="" fill="#000000" transform="translate(0,0)"/>
<path d="" fill="#000000" transform="translate(0,0)"/>
<path d="" fill="#000000" transform="translate(0,0)"/>
<path d="" fill="#000000" transform="translate(0,0)"/>
<path d="" fill="#000000" transform="translate(0,0)"/>
<path d="" fill="#000000" transform="translate(0,0)"/>
<path d="" fill="#000000" transform="translate(0,0)"/>
<path d="" fill="#000000" transform="translate(0,0)"/>
<path d="" fill="#000000" transform="translate(0,0)"/>
<path d="" fill="#000000" transform="translate(0,0)"/>
<path d="" fill="#000000" transform="translate(0,0)"/>
<path d="" fill="#000000" transform="translate(0,0)"/>
<path d="" fill="#000000" transform="translate(0,0)"/>
<path d="" fill="#000000" transform="translate(0,0)"/>
<path d="" fill="#000000" transform="translate(0,0)"/>
<path d="" fill="#000000" transform="translate(0,0)"/>
<path d="" fill="#000000" transform="translate(0,0)"/>
<path d="" fill="#000000" transform="translate(0,0)"/>
<path d="" fill="#000000" transform="translate(0,0)"/>
<path d="" fill="#000000" transform="translate(0,0)"/>
<path d="" fill="#000000" transform="translate(0,0)"/>
<path d="" fill="#000000" transform="translate(0,0)"/>
<path d="" fill="#000000" transform="translate(0,0)"/>
<path d="" fill="#000000" transform="translate(0,0)"/>
<path d="" fill="#000000" transform="translate(0,0)"/>
<path d="" fill="#000000" transform="translate(0,0)"/>
<path d="" fill="#000000" transform="translate(0,0)"/>
<path d="" fill="#000000" transform="translate(0,0)"/>
<path d="" fill="#000000" transform="translate(0,0)"/>
<path d="" fill="#000000" transform="translate(0,0)"/>
<path d="" fill="#000000" transform="translate(0,0)"/>
<path d="" fill="#000000" transform="translate(0,0)"/>
<path d="" fill="#000000" transform="translate(0,0)"/>
<path d="" fill="#000000" transform="translate(0,0)"/>
<path d="" fill="#000000" transform="translate(0,0)"/>
<path d="" fill="#000000" transform="translate(0,0)"/>
<path d="" fill="#000000" transform="translate(0,0)"/>
<path d="" fill="#000000" transform="translate(0,0)"/>
<path d="" fill="#000000" transform="translate(0,0)"/>
<path d="" fill="#000000" transform="translate(0,0)"/>
<path d="" fill="#000000" transform="translate(0,0)"/>
<path d="" fill="#000000" transform="translate(0,0)"/>
<path d="" fill="#000000" transform="translate(0,0)"/>
<path d="" fill="#000000" transform="translate(0,0)"/>
<path d="" fill="#000000" transform="translate(0,0)"/>
<path d="" fill="#000000" transform="translate(0,0)"/>
<path d="" fill="#000000" transform="translate(0,0)"/>
<path d="" fill="#000000" transform="translate(0,0)"/>
<path d="" fill="#000000" transform="translate(0,0)"/>
<path d="" fill="#000000" transform="translate(0,0)"/>
<path d="" fill="#000000" transform="translate(0,0)"/>
<path d="" fill="#000000" transform="translate(0,0)"/>
<path d="" fill="#000000" transform="translate(0,0)"/>
<path d="" fill="#000000" transform="translate(0,0)"/>
<path d="" fill="#000000" transform="translate(0,0)"/>
<path d="" fill="#000000" transform="translate(0,0)"/>
<path d="" fill="#000000" transform="translate(0,0)"/>
<path d="" fill="#000000" transform="translate(0,0)"/>
<path d="" fill="#000000" transform="translate(0,0)"/>
<path d="" fill="#000000" transform="translate(0,0)"/>
<path d="" fill="#000000" transform="translate(0,0)"/>
<path d="" fill="#000000" transform="translate(0,0)"/>
<path d="" fill="#000000" transform="translate(0,0)"/>
<path d="" fill="#000000" transform="translate(0,0)"/>
<path d="" fill="#000000" transform="translate(0,0)"/>
<path d="" fill="#000000" transform="translate(0,0)"/>
<path d="" fill="#000000" transform="translate(0,0)"/>
<path d="" fill="#000000" transform="translate(0,0)"/>
<path d="" fill="#000000" transform="translate(0,0)"/>
<path d="" fill="#000000" transform="translate(0,0)"/>
<path d="" fill="#000000" transform="translate(0,0)"/>
<path d="" fill="#000000" transform="translate(0,0)"/>
<path d="" fill="#000000" transform="translate(0,0)"/>
<path d="" fill="#000000" transform="translate(0,0)"/>
<path d="" fill="#000000" transform="translate(0,0)"/>
<path d="" fill="#000000" transform="translate(0,0)"/>
<path d="" fill="#000000" transform="translate(0,0)"/>
<path d="" fill="#000000" transform="translate(0,0)"/>
<path d="" fill="#000000" transform="translate(0,0)"/>
<path d="" fill="#000000" transform="translate(0,0)"/>
<path d="" fill="#000000" transform="translate(0,0)"/>
<path d="" fill="#000000" transform="translate(0,0)"/>
<path d="" fill="#000000" transform="translate(0,0)"/>
<path d="" fill="#000000" transform="translate(0,0)"/>
<path d="" fill="#000000" transform="translate(0,0)"/>
<path d="" fill="#000000" transform="translate(0,0)"/>
<path d="" fill="#000000" transform="translate(0,0)"/>
<path d="" fill="#000000" transform="translate(0,0)"/>
<path d="" fill="#000000" transform="translate(0,0)"/>
<path d="" fill="#000000" transform="translate(0,0)"/>
<path d="" fill="#000000" transform="translate(0,0)"/>
<path d="" fill="#000000" transform="translate(0,0)"/>
<path d="" fill="#000000" transform="translate(0,0)"/>
<path d="" fill="#000000" transform="translate(0,0)"/>
<path d="" fill="#000000" transform="translate(0,0)"/>
<path d="" fill="#000000" transform="translate(0,0)"/>
<path d="" fill="#000000" transform="translate(0,0)"/>
<path d="" fill="#000000" transform="translate(0,0)"/>
<path d="" fill="#000000" transform="translate(0,0)"/>
<path d="" fill="#000000" transform="translate(0,0)"/>
<path d="" fill="#000000" transform="translate(0,0)"/>
<path d="" fill="#000000" transform="translate(0,0)"/>
<path d="" fill="#000000" transform="translate(0,0)"/>
<path d="" fill="#000000" transform="translate(0,0)"/>
<path d="" fill="#000000" transform="translate(0,0)"/>
<path d="" fill="#000000" transform="translate(0,0)"/>
<path d="" fill="#000000" transform="translate(0,0)"/>
<path d="" fill="#000000" transform="translate(0,0)"/>
<path d="" fill="#000000" transform="translate(0,0)"/>
<path d="" fill="#000000" transform="translate(0,0)"/>
<path d="" fill="#000000" transform="translate(0,0)"/>
<path d="" fill="#000000" transform="translate(0,0)"/>
<path d="" fill="#000000" transform="translate(0,0)"/>
<path d="" fill="#000000" transform="translate(0,0)"/>
<path d="" fill="#000000" transform="translate(0,0)"/>
<path d="" fill="#000000" transform="translate(0,0)"/>
<path d="" fill="#000000" transform="translate(0,0)"/>
</svg>
