<?xml version="1.0" encoding="UTF-8"?>
<svg version="1.1" xmlns="http://www.w3.org/2000/svg" width="512" height="579">
<path d="M0 0 C0.71790144 -0.03506212 1.43580288 -0.07012424 2.17545891 -0.10624886 C16.3802885 -0.79387897 30.58982079 -1.2202977 44.80710125 -1.55009937 C53.83801485 -1.76504778 62.85109161 -2.06277546 71.87109375 -2.5625 C131.92597524 -5.82386701 131.92597524 -5.82386701 145.44866943 4.99169922 C155.289049 14.56162684 160.93552875 26.75485641 166.00971985 39.30900574 C169.22186356 47.052712 173.93857223 53.72166545 178.79826164 60.50686073 C181.1125223 63.77404218 183.31120723 67.11783811 185.52075195 70.45629883 C186.36206468 71.71904557 187.20365516 72.98160734 188.0456543 74.24389648 C192.22464403 80.52723757 196.34316234 86.85006296 200.46435547 93.17138672 C217.69928106 119.5939968 235.09433312 145.91354366 252.6219635 172.14283752 C253.42023632 173.33797368 254.2177413 174.53362313 255.01438904 175.72984314 C256.92075402 178.58998736 258.84153934 181.43833286 260.79174805 184.26879883 C261.52731934 185.34516602 262.26289063 186.4215332 263.02075195 187.53051758 C263.6758374 188.47862305 264.33092285 189.42672852 265.00585938 190.40356445 C266.4152832 192.81176758 266.4152832 192.81176758 266.4152832 195.81176758 C265.1150761 195.81323414 263.814869 195.8147007 262.47526169 195.8162117 C231.62591669 195.85189706 200.77668534 195.90811407 169.92743014 195.98968853 C166.13220316 195.99970625 162.33697575 196.00955033 158.54174805 196.01928711 C157.4083836 196.02219917 157.4083836 196.02219917 156.25212291 196.02517006 C144.01046172 196.05620943 131.76881929 196.0731761 119.52712616 196.0849618 C106.97035544 196.09736335 94.41368333 196.12484213 81.85697484 196.16638064 C74.10587672 196.19154473 66.35494208 196.20488275 58.60380253 196.20319715 C52.66487556 196.20316394 46.7261399 196.22408584 40.78727913 196.25293541 C38.347562 196.2614792 35.90781003 196.26315424 33.46808434 196.25757027 C30.14540666 196.25097634 26.82373588 196.26874115 23.50115967 196.29278564 C22.52840111 196.28502523 21.55564256 196.27726481 20.55340648 196.26926923 C15.41097228 196.29329093 15.41097228 196.29329093 10.90991592 198.53170395 C9.09198346 201.14051233 9.09198346 201.14051233 7.4152832 205.81176758 C-60.5647168 205.81176758 -128.5447168 205.81176758 -198.5847168 205.81176758 C-198.5847168 154.93282403 -181.36008594 106.67680173 -146.6550293 69.06958008 C-144.80042813 67.04701504 -143.03436519 64.97692774 -141.2722168 62.87426758 C-106.31184383 23.04498422 -51.86290891 2.47298232 0 0 Z " fill="#0860AC" transform="translate(245.584716796875,87.188232421875)"/>
<path d="M0 0 C1.52407875 -0.02107099 3.04868714 -0.01416777 4.57265186 0.01396656 C5.41234337 0.00969444 6.25203488 0.00542231 7.11717159 0.00102073 C9.94139438 -0.00723979 12.7641443 0.02032555 15.58823109 0.04761219 C17.60835199 0.049022 19.62847545 0.04823199 21.64859486 0.04539967 C27.14226672 0.0439615 32.63539588 0.07341632 38.1289413 0.10826945 C43.86646752 0.13946618 49.60400534 0.14245841 55.34160328 0.14839649 C66.2107841 0.16395459 77.07971432 0.20500978 87.94878465 0.25514394 C100.32101392 0.31097617 112.69325499 0.33850852 125.06557882 0.36362112 C150.52029015 0.41592381 175.97477882 0.50390438 201.42929554 0.61523914 C201.28235521 4.14332417 201.13009089 7.67116054 200.97690296 11.19897938 C200.93559002 12.19247143 200.89427708 13.18596348 200.85171223 14.20956135 C200.54830446 21.1159601 199.9776788 27.86914589 198.74179554 34.67773914 C198.56809437 35.66612782 198.3943932 36.65451649 198.21542835 37.67285633 C189.94709406 82.51101579 166.30770483 127.6269742 130.42929554 156.61523914 C129.34305972 157.52503933 128.25715441 158.4352342 127.17148304 159.34570789 C118.39709632 166.62291505 109.31546946 172.94481069 99.42929554 178.61523914 C98.65376331 179.06254383 97.87823109 179.50984852 97.07919788 179.97070789 C66.96616002 197.1061604 34.17508442 205.63085621 -0.34414196 206.09961414 C-4.00413694 206.16041337 -7.66389508 206.23010802 -11.32363415 206.30469227 C-12.2946916 206.32440208 -13.26574905 206.3441119 -14.26623249 206.36441898 C-23.0708944 206.56396194 -31.85918905 206.98831291 -40.6543951 207.4321413 C-50.41417885 207.91562936 -60.17393826 208.25207286 -69.94218349 208.51067829 C-76.23976406 208.68359624 -82.52057402 208.92474716 -88.80898571 209.31055164 C-130.88901886 211.81971614 -130.88901886 211.81971614 -140.96993542 203.41016102 C-148.66404608 195.68785899 -153.28623439 185.8061169 -157.6020155 175.93347645 C-160.13163277 170.20342484 -163.54701531 165.19339396 -167.14101696 160.08398914 C-168.24258169 158.42053826 -169.33840108 156.75326686 -170.42812634 155.08203602 C-181.79721807 137.796675 -193.2733973 120.58950414 -204.87047863 103.4563036 C-215.50595693 87.73926377 -225.98750571 71.92494872 -236.40542126 56.06299305 C-237.58285108 54.2704729 -238.76034025 52.47799173 -239.93789196 50.68555164 C-240.50532619 49.82176899 -241.07276043 48.95798634 -241.65738964 48.06802845 C-245.20913924 42.66759548 -248.7867253 37.28542306 -252.39101696 31.91992664 C-252.82728909 31.26977589 -253.26356121 30.61962513 -253.7130537 29.94977283 C-255.68508696 27.01242699 -257.66196347 24.07855608 -259.64760876 21.15039539 C-260.30930065 20.16684071 -260.97099255 19.18328602 -261.65273571 18.16992664 C-262.22225964 17.32929676 -262.79178356 16.48866688 -263.37856579 15.62256336 C-264.57070446 13.61523914 -264.57070446 13.61523914 -264.57070446 11.61523914 C-263.26534363 11.61469438 -261.9599828 11.61414961 -260.61506557 11.61358833 C-229.64352175 11.59955077 -198.67212969 11.55982836 -167.70066912 11.48838352 C-163.8904209 11.47961654 -160.08017222 11.47106678 -156.26992321 11.46265125 C-155.5113563 11.46097219 -154.75278939 11.45929313 -153.9712356 11.45756318 C-141.68106419 11.43087756 -129.39093942 11.42179699 -117.10074201 11.41919772 C-104.494239 11.41614061 -91.88787107 11.3942221 -79.28142905 11.35471457 C-71.4995828 11.33092381 -63.71800599 11.32192778 -55.93612835 11.33172604 C-49.9736729 11.33765934 -44.01148977 11.31737822 -38.04910183 11.28717899 C-35.59970879 11.27891104 -33.15026994 11.27923622 -30.700881 11.28864193 C-27.36488237 11.30018757 -24.03042312 11.28126057 -20.69454479 11.25447559 C-19.71789529 11.26514885 -18.74124579 11.27582211 -17.73500085 11.2868188 C-12.41270248 11.27867246 -12.41270248 11.27867246 -8.12546444 8.38778687 C-6.53919653 5.656968 -6.53919653 5.656968 -5.32966423 2.84031868 C-3.57070446 0.61523914 -3.57070446 0.61523914 0 0 Z " fill="#00A34E" transform="translate(264.57070446014404,285.3847608566284)"/>
<path d="M0 0 C4.73502552 1.49126091 6.45287771 5.3984042 8.8125 9.4375 C9.44188477 10.4594043 9.44188477 10.4594043 10.08398438 11.50195312 C11.14410175 13.28511595 12.08139389 15.13997814 13 17 C11.86323504 20.41029487 11.38734089 20.66727884 8.44702148 22.44555664 C7.32071068 23.13880287 7.32071068 23.13880287 6.17164612 23.84605408 C5.35058884 24.34158279 4.52953156 24.83711151 3.68359375 25.34765625 C1.93054698 26.42989615 0.17913064 27.51478071 -1.57080078 28.60205078 C-2.47421204 29.16321594 -3.37762329 29.7243811 -4.30841064 30.30255127 C-8.50259404 32.94760976 -12.61204063 35.71207001 -16.71484375 38.49609375 C-17.53294022 39.05049133 -18.35103668 39.60488892 -19.19392395 40.17608643 C-20.89390099 41.32959499 -22.59327771 42.48398873 -24.29208374 43.63922119 C-41.07011174 55.04444791 -57.95106254 66.28429546 -74.91323853 77.41339111 C-85.18265597 84.15316099 -95.42137962 90.93281987 -105.58984375 97.82421875 C-106.52481186 98.45767212 -107.45977997 99.09112549 -108.42308044 99.74377441 C-112.90084488 102.78002591 -117.37364478 105.82332327 -121.84057617 108.87548828 C-123.42752647 109.95481898 -125.01451944 111.03408695 -126.6015625 112.11328125 C-127.32637314 112.61172043 -128.05118378 113.11015961 -128.79795837 113.623703 C-133.77383948 117 -133.77383948 117 -136 117 C-137.2355957 115.47924805 -137.2355957 115.47924805 -138.67578125 113.26171875 C-139.525354 111.96899048 -139.525354 111.96899048 -140.39208984 110.65014648 C-141.0258252 109.67247314 -141.65956055 108.6947998 -142.3125 107.6875 C-143.74708072 105.50412225 -145.18322393 103.32183277 -146.62109375 101.140625 C-147.22392181 100.22415443 -147.22392181 100.22415443 -147.83892822 99.28916931 C-154.10198135 89.78368354 -160.50157294 80.36912333 -166.875 70.9375 C-170.49128257 65.58410118 -174.106235 60.22983832 -177.71386719 54.87060547 C-179.83188476 51.72523996 -181.96286695 48.58941967 -184.10644531 45.46142578 C-185.03194549 44.10061617 -185.95740402 42.73977823 -186.8828125 41.37890625 C-187.30553436 40.76901352 -187.72825623 40.15912079 -188.16378784 39.53074646 C-191 35.33915454 -191 35.33915454 -191 32 C-190.07023849 31.99191315 -189.14047699 31.98382629 -188.18254089 31.97549438 C-179.28757922 31.89696732 -170.39275089 31.80899223 -161.49796581 31.71247292 C-156.92844164 31.66317259 -152.35893359 31.61685593 -147.78930664 31.578125 C-68.87029332 32.79070699 -68.87029332 32.79070699 0 0 Z " fill="#0960AC" transform="translate(368,462)"/>
<path d="M0 0 C1.46264648 1.52661133 1.46264648 1.52661133 2.87109375 3.58203125 C3.43103027 4.39027344 3.9909668 5.19851562 4.56787109 6.03125 C5.18484863 6.9490625 5.80182617 7.866875 6.4375 8.8125 C7.10346191 9.78574219 7.76942383 10.75898438 8.45556641 11.76171875 C19.16168154 27.5110945 29.5638376 43.47122902 39.99909973 59.40068054 C42.67830346 63.48634763 45.36973569 67.56195208 48.10644531 71.609375 C48.57857452 72.30905396 49.05070374 73.00873291 49.53713989 73.72961426 C50.40860381 75.01778793 51.28391502 76.30337066 52.16378784 77.58581543 C55 81.7795612 55 81.7795612 55 84 C54.03265427 83.99555878 53.06530853 83.99111755 52.06864929 83.98654175 C42.8206208 83.94547851 33.57261147 83.91577304 24.32451153 83.89637566 C19.57331648 83.88606718 14.82219668 83.87215421 10.07104492 83.84912109 C-42.14102073 83.60297488 -90.0836817 86.41560657 -135.22265625 115.02539062 C-137 116 -137 116 -139 116 C-140.14501953 114.48706055 -140.14501953 114.48706055 -141.3828125 112.38671875 C-141.82753906 111.63326172 -142.27226562 110.87980469 -142.73046875 110.10351562 C-143.19066406 109.30623047 -143.65085938 108.50894531 -144.125 107.6875 C-144.59292969 106.90181641 -145.06085938 106.11613281 -145.54296875 105.30664062 C-149 99.38534074 -149 99.38534074 -149 96 C-147.59875488 94.7199707 -147.59875488 94.7199707 -145.59570312 93.42578125 C-144.84229141 92.93146606 -144.0888797 92.43715088 -143.31263733 91.92785645 C-142.47727951 91.39478882 -141.64192169 90.86172119 -140.78125 90.3125 C-139.9139476 89.74688354 -139.0466452 89.18126709 -138.15306091 88.59851074 C-136.26697292 87.3698633 -134.37782671 86.14590098 -132.48605347 84.92602539 C-127.40531492 81.64891346 -122.34724752 78.33706075 -117.28515625 75.03125 C-116.24903702 74.35606323 -115.21291779 73.68087646 -114.145401 72.98522949 C-104.34109955 66.59028426 -94.62725808 60.06676351 -84.9375 53.5 C-83.31368995 52.40088548 -81.68982906 51.30184607 -80.06591797 50.20288086 C-76.76813101 47.97059111 -73.47107394 45.73722766 -70.17431641 43.50341797 C-61.76495501 37.80732611 -53.34371621 32.12881783 -44.92288208 26.44970703 C-41.37210666 24.05466387 -37.82225627 21.65825152 -34.27250671 19.26168823 C-32.613991 18.14359929 -30.95427654 17.02728618 -29.29328918 15.91287231 C-25.13552313 13.12315113 -20.99714431 10.31034258 -16.88574219 7.45263672 C-16.06298798 6.88729721 -15.24023376 6.3219577 -14.39254761 5.73948669 C-12.83030543 4.66583871 -11.2746491 3.582523 -9.72683716 2.48817444 C-9.0317807 2.01375412 -8.33672424 1.5393338 -7.62060547 1.05053711 C-7.01554169 0.62888779 -6.41047791 0.20723846 -5.78707886 -0.22718811 C-3.45797936 -1.23439368 -2.33143463 -0.90447449 0 0 Z " fill="#00A34E" transform="translate(281,1)"/>
</svg>
