<?xml version="1.0" encoding="UTF-8"?>
<svg version="1.1" xmlns="http://www.w3.org/2000/svg" width="512" height="512">
<path d="M0 0 C26.92203712 -0.09368128 53.84404961 -0.16409544 80.76621723 -0.20724869 C93.26827271 -0.22782321 105.77022657 -0.25584559 118.2722168 -0.30175781 C129.17628893 -0.34178256 140.08028741 -0.36746989 150.98443097 -0.37635398 C156.75144048 -0.38154234 162.51823941 -0.39362914 168.28518105 -0.42292023 C173.72788221 -0.45033703 179.1702887 -0.45839261 184.61305237 -0.45243073 C186.59659623 -0.45351933 188.58015132 -0.46131506 190.56363487 -0.4768219 C223.60051518 -0.72214621 256.87368859 10.01447751 282 32 C282.5053125 32.43135254 283.010625 32.86270508 283.53125 33.30712891 C307.91722653 54.18000069 322.71964718 82.70253569 325.82568359 114.73046875 C328.21641265 145.85682346 320.56604668 179.60564524 300.9375 204.5625 C299.64098218 206.05569517 298.32852831 207.53521237 297 209 C296.31550781 209.81339844 295.63101562 210.62679687 294.92578125 211.46484375 C284.91467844 223.12948598 273.06968588 231.20462898 260 239 C260.88558594 239.32871094 261.77117187 239.65742188 262.68359375 239.99609375 C296.35007412 252.7953394 324.05398378 275.42933853 339.30151367 308.52148438 C347.01777006 326.07919517 350.75215361 344.86186933 350 364 C346.8974283 360.97725433 344.06905581 357.93809528 341.4375 354.5 C336.31068972 348.00409833 330.6854462 342.0043147 325 336 C324.360625 335.31808594 323.72125 334.63617188 323.0625 333.93359375 C318.98244704 329.7064235 314.50016846 326.04219604 309.921875 322.3671875 C308.03424909 320.83790768 306.16769373 319.282075 304.328125 317.6953125 C255.20855929 275.37478272 189.25026301 248.80646242 126.70727539 234.20629883 C125.59473389 233.94357178 124.48219238 233.68084473 123.3359375 233.41015625 C122.35157715 233.18465088 121.3672168 232.95914551 120.35302734 232.72680664 C118 232 118 232 116 230 C116.68811768 229.93006836 117.37623535 229.86013672 118.08520508 229.78808594 C145.44596362 226.95617117 170.71440086 222.43473105 195 209 C195.99644531 208.45730469 196.99289062 207.91460937 198.01953125 207.35546875 C214.59412696 197.60989102 225.11434681 182.52131801 230 164 C234.01660303 146.22411864 231.29604082 126.75745172 222.76171875 110.78515625 C211.35337648 92.74935128 193.21722609 85.20273375 173.31665039 80.46142578 C167.6362519 79.3300154 162.1085099 78.86300096 156.32055664 78.79467773 C155.20417014 78.77962865 155.20417014 78.77962865 154.06523037 78.76427555 C151.68023625 78.73314688 149.29522534 78.70822638 146.91015625 78.68359375 C145.42801402 78.6651666 143.94587684 78.64632869 142.46374512 78.6270752 C136.99672309 78.55891558 131.5296046 78.49867888 126.0625 78.4375 C113.831875 78.293125 101.60125 78.14875 89 78 C89 126.51 89 175.02 89 225 C70 221 70 221 61.8671875 219.25390625 C45.700463 215.81498448 29.55024237 212.83264969 13.18310547 210.51000977 C12.51217865 210.41413071 11.84125183 210.31825165 11.1499939 210.21946716 C9.33953727 209.96245917 7.52819417 209.71171785 5.71679688 209.46142578 C3 209 3 209 1 208 C0.03174883 202.468165 -0.14187649 197.04870221 -0.12025452 191.44519043 C-0.12110894 190.62164456 -0.12196337 189.79809869 -0.12284368 188.94959688 C-0.12448106 186.21051589 -0.11900584 183.47149716 -0.11352539 180.73242188 C-0.11324312 178.76082358 -0.11340204 176.78922518 -0.1139679 174.81762695 C-0.1142543 169.47941871 -0.10838291 164.14123303 -0.10139394 158.80303001 C-0.09513429 153.21898895 -0.09455453 147.63494735 -0.09336853 142.05090332 C-0.09026291 131.48304012 -0.08205989 120.9151873 -0.07201904 110.34732866 C-0.06083401 98.31351618 -0.05534143 86.27970319 -0.05032361 74.2458868 C-0.03987664 49.49725212 -0.0222921 24.74862664 0 0 Z " fill="#254D71" transform="translate(162,0)"/>
<path d="M0 0 C1.12922253 -0.00088371 1.12922253 -0.00088371 2.28125763 -0.00178528 C26.7518219 -0.01528215 51.03522128 0.50987505 75.375 3.25 C76.05236206 3.32496704 76.72972412 3.39993408 77.4276123 3.47717285 C86.77674659 4.51907925 96.08134405 5.79436714 105.375 7.25 C106.52258789 7.42756836 107.67017578 7.60513672 108.85253906 7.78808594 C174.39877136 18.14332005 248.92248932 40.54342981 290.375 96.25 C307.32008898 120.07709736 315.87953936 147.51929779 312.02636719 176.90917969 C309.6623158 189.76731285 309.6623158 189.76731285 305.375 194.25 C301.67945243 194.89270392 300.00567238 194.67604984 296.8828125 192.56640625 C294.20248653 190.09065345 292.82055212 187.90305465 291.125 184.6875 C287.51051987 178.2487183 283.21778068 172.80349594 278.375 167.25 C277.72273438 166.486875 277.07046875 165.72375 276.3984375 164.9375 C265.76221013 152.78181158 254.26058679 141.01554731 241.375 131.25 C240.14191738 130.29949175 238.90884522 129.34896994 237.67578125 128.3984375 C204.83954987 103.26616842 168.00421209 83.84229459 129.375 69.25 C128.17858887 68.7967334 126.98217773 68.3434668 125.74951172 67.87646484 C48.75281503 38.99891587 -33.64816102 26.62769176 -179.625 20.25 C-176.63404417 17.25904417 -172.95294708 17.18344958 -168.921875 16.48046875 C-168.02973801 16.31922012 -167.13760101 16.1579715 -166.21842957 15.99183655 C-163.27230976 15.46363031 -160.32401666 14.949272 -157.375 14.4375 C-156.36116241 14.25981079 -155.34732483 14.08212158 -154.30276489 13.89904785 C-119.9225228 7.89155221 -85.42131306 3.91747549 -50.625 1.25 C-49.92489807 1.19485229 -49.22479614 1.13970459 -48.503479 1.08288574 C-32.37064351 -0.14453339 -16.16965154 0.00579799 0 0 Z " fill="#00ADEF" transform="translate(179.625,262.75)"/>
<path d="M0 0 C1.12277344 0.56074219 2.24554688 1.12148438 3.40234375 1.69921875 C31.20785724 15.88300625 51.00963536 41.1791182 61.09887695 70.47705078 C65.82074527 85.29002235 69.24139546 103.51720909 62 118 C59.7724778 121.07244442 58.81183614 121.86181512 55.0625 122.5 C48.902808 121.494336 45.67518399 116.57204876 41.8046875 112.0703125 C36.68233501 106.19402068 31.00125964 101.24974183 24.9296875 96.37109375 C22.0553283 94.04477904 19.24851404 91.65221006 16.4375 89.25 C-2.2172951 73.70433742 -22.88425129 60.88835484 -44 49 C-44.8465918 48.51917969 -45.69318359 48.03835938 -46.56542969 47.54296875 C-118.18599466 6.98384417 -202.95579511 -17.8291201 -284.55175781 -27.49023438 C-285.7636377 -27.74256836 -285.7636377 -27.74256836 -287 -28 C-287.33 -28.66 -287.66 -29.32 -288 -30 C-192.47143434 -39.326151 -87.55862205 -46.46965975 0 0 Z " fill="#F79320" transform="translate(378,390)"/>
</svg>
