<?xml version="1.0" encoding="UTF-8"?>
<svg version="1.1" xmlns="http://www.w3.org/2000/svg" width="512" height="512">
<path d="M0 0 C1.49611816 0.00749268 1.49611816 0.00749268 3.02246094 0.01513672 C20.22843911 0.41636973 34.76676812 7.4770384 47.8125 18.5 C48.61429688 19.15613281 49.41609375 19.81226563 50.2421875 20.48828125 C61.68045446 30.23396977 69.53451807 42.506793 76.8125 55.5 C77.41191406 56.53253906 78.01132813 57.56507813 78.62890625 58.62890625 C80.02364149 62.01217491 79.80397227 63.04088443 78.8125 66.5 C77.84890853 68.44202069 76.8077786 70.34646629 75.71484375 72.21875 C75.08151123 73.31074707 74.44817871 74.40274414 73.7956543 75.52783203 C73.11418867 76.68546819 72.43229701 77.84285365 71.75 79 C71.06189864 80.17671175 70.37415482 81.35363266 69.68676758 82.53076172 C67.7389493 85.85993074 65.77639235 89.18028679 63.8125 92.5 C63.33103516 93.32016602 62.84957031 94.14033203 62.35351562 94.98535156 C61.24492982 96.87099162 60.12656313 98.75006327 59 100.625 C58.41605469 101.59695313 57.83210937 102.56890625 57.23046875 103.5703125 C56.52857422 104.52550781 56.52857422 104.52550781 55.8125 105.5 C55.1525 105.5 54.4925 105.5 53.8125 105.5 C53.42320312 104.64019531 53.03390625 103.78039062 52.6328125 102.89453125 C44.70063169 86.13460082 33.25804165 70.41032992 15.56640625 63.171875 C3.72831075 59.21189959 -5.61723604 59.67549879 -17.1875 64.5 C-36.80382216 75.42869852 -46.92608811 96.30582944 -52.9375 117.125 C-61.25892779 148.1512728 -61.04602474 182.85138906 -51.1875 213.5 C-50.98286133 214.14098633 -50.77822266 214.78197266 -50.56738281 215.44238281 C-44.00582475 235.55860938 -33.35333168 252.71310262 -14.05078125 262.59375 C-5.46060987 266.12799194 5.99688216 265.825366 14.6875 262.875 C16.41584285 262.12802619 18.12580112 261.33677105 19.8125 260.5 C20.62847656 260.11070312 21.44445312 259.72140625 22.28515625 259.3203125 C38.9819957 250.37652211 48.37387353 233.71539989 56.8125 217.5 C60.03026752 221.28645574 62.5071312 225.27795235 64.875 229.625 C67.45625688 234.32795924 70.08308583 238.98291294 72.87890625 243.5625 C73.38736084 244.40538574 73.89581543 245.24827148 74.41967773 246.11669922 C75.41514694 247.76177734 76.42340117 249.39920096 77.44555664 251.02783203 C80.80701422 256.6332461 80.80701422 256.6332461 80.83203125 260.5859375 C79.57259912 264.18569371 78.10061128 267.60488474 76.375 271 C76.02373047 271.69488525 75.67246094 272.38977051 75.31054688 273.10571289 C63.32910236 296.104127 43.90591854 315.51381989 18.8125 323.5 C1.94075721 328.62335645 -16.66299425 325.84638614 -32.0625 317.75 C-38.29867633 314.291091 -43.8986171 310.29917152 -49.1875 305.5 C-49.99445312 304.77425781 -50.80140625 304.04851562 -51.6328125 303.30078125 C-84.82904258 271.82159755 -97.87550031 221.04994398 -99.31347656 176.60644531 C-99.40683426 172.21688711 -99.43408564 167.82796593 -99.4375 163.4375 C-99.43817474 162.65098053 -99.43884949 161.86446106 -99.43954468 161.05410767 C-99.37687502 114.68266215 -89.13702348 65.51284021 -58.1875 29.5 C-57.58808594 28.75621094 -56.98867188 28.01242188 -56.37109375 27.24609375 C-42.43004996 10.5110203 -21.91865835 -0.14622437 0 0 Z " fill="#245AE2" transform="translate(101.1875,184.5)"/>
<path d="M0 0 C0 31.68 0 63.36 0 96 C18.81 96 37.62 96 57 96 C57 114.81 57 133.62 57 153 C38.19 153 19.38 153 0 153 C0.08560891 173.75006777 0.17928784 194.50004858 0.28752708 215.25000954 C0.33753459 224.88573259 0.38397835 234.52144764 0.421875 244.15722656 C0.45493556 252.56101469 0.49484321 260.96473844 0.54279006 269.36845529 C0.56791601 273.8133789 0.5897374 278.25826059 0.60334396 282.70323563 C0.61629172 286.89751891 0.63847928 291.09165735 0.66738319 295.28586006 C0.67636068 296.81511799 0.68212582 298.34439917 0.68421364 299.87368202 C0.61606184 323.42922068 0.61606184 323.42922068 11.42578125 343.59765625 C17.07585261 348.63084637 23.85916355 349.36791297 31.1171875 349.28125 C39.24466733 348.48832514 46.86979241 345.67500839 53.51171875 340.953125 C55 340 55 340 57 340 C57.20896154 347.45806861 57.36865359 354.91550198 57.46630955 362.37590981 C57.51319394 365.84069146 57.57671652 369.3034645 57.67895508 372.76708984 C57.7958773 376.75333183 57.83919763 380.73877429 57.87890625 384.7265625 C57.92535782 385.96427399 57.97180939 387.20198547 58.01966858 388.47720337 C58.02459113 396.88266153 58.02459113 396.88266153 55.09689331 400.07537842 C52.78485749 401.65171634 50.5518894 402.85909229 48 404 C46.78643578 404.60081894 46.78643578 404.60081894 45.5483551 405.21377563 C38.16623171 408.83767958 30.85526384 410.37730116 22.6875 410.3125 C21.9462085 410.30758545 21.20491699 410.3026709 20.44116211 410.29760742 C14.27196681 410.16683309 8.77794562 409.24545754 3 407 C2.17371094 406.68289063 1.34742188 406.36578125 0.49609375 406.0390625 C-14.78054434 399.29725977 -23.96703256 385.58253013 -30.3125 370.75 C-35.30096475 357.48899787 -38.17987805 343.23022979 -38.12025452 329.0526123 C-38.12110894 328.29440327 -38.12196337 327.53619424 -38.12284368 326.75500917 C-38.12447909 324.23703868 -38.11900915 321.71913614 -38.11352539 319.20117188 C-38.11324307 317.38720705 -38.11340212 315.57324211 -38.1139679 313.75927734 C-38.11425413 308.85080664 -38.10838546 303.9423605 -38.10139394 299.03389549 C-38.0951315 293.89829 -38.09455431 288.76268391 -38.09336853 283.6270752 C-38.09026373 273.90919478 -38.08206183 264.19132564 -38.07201904 254.47345018 C-38.06083145 243.4069713 -38.05534079 232.34049188 -38.05032361 221.27400875 C-38.0398785 198.51599814 -38.02154361 175.758003 -38 153 C-51.86 153 -65.72 153 -80 153 C-80 134.19 -80 115.38 -80 96 C-65.81 96 -51.62 96 -37 96 C-37.12761719 91.42382812 -37.25523437 86.84765625 -37.38671875 82.1328125 C-37.44299392 79.21597207 -37.49594453 76.29981013 -37.53710938 73.3828125 C-37.60262657 68.76224084 -37.67970939 64.14408884 -37.82983398 59.52539062 C-37.9502524 55.79686141 -38.01530073 52.07092774 -38.04364967 48.34060287 C-38.06382118 46.92499811 -38.10321803 45.50951998 -38.16303062 44.09503555 C-38.41344405 37.92189733 -38.55366141 33.00372234 -34.66470337 27.98822021 C-31.88728045 25.43618651 -29.05817417 23.20367744 -26 21 C-24.22197463 19.550444 -22.45004219 18.09334322 -20.6875 16.625 C-19.79675781 15.90699219 -18.90601563 15.18898438 -17.98828125 14.44921875 C-13.75864024 10.9825718 -9.62913751 7.40210175 -5.5065918 3.80908203 C-1.10687274 0 -1.10687274 0 0 0 Z " fill="#245AE2" transform="translate(362,100)"/>
<path d="M0 0 C0.64952637 0.16097168 1.29905273 0.32194336 1.96826172 0.48779297 C18.11046007 4.66270688 33.63969805 12.04775336 47 22 C47.53898926 22.39912598 48.07797852 22.79825195 48.63330078 23.20947266 C60.73707923 32.23818122 72.48462704 42.22395527 82 54 C82.86288782 55.02767422 83.72621073 56.0549832 84.58984375 57.08203125 C96.6693258 71.62894991 107.07678729 87.47474013 115.99853516 104.13671875 C116.99782163 105.99594703 118.01802729 107.84231154 119.04296875 109.6875 C122.83519451 116.57400704 126.27751308 123.57854882 129.5 130.75 C130.02605835 131.91281494 130.02605835 131.91281494 130.56274414 133.09912109 C133 138.62979345 133 138.62979345 133 142 C117.82 142 102.64 142 87 142 C83.7 136.06 80.4 130.12 77 124 C75.01975391 120.9319136 73.08936258 117.98828477 70.9375 115.0625 C70.43057617 114.3619751 69.92365234 113.6614502 69.40136719 112.93969727 C67.94888137 110.94837866 66.47934781 108.97141121 65 107 C64.27425781 106.02804688 63.54851562 105.05609375 62.80078125 104.0546875 C41.84390413 77.30972051 14.31975565 57.47678584 -19.91796875 53.22705078 C-45.4984563 50.43743382 -71.28500354 60.11558688 -91.23828125 75.7265625 C-95.63468906 79.34567048 -99.86748576 83.08232595 -104 87 C-104.94617188 87.88171875 -105.89234375 88.7634375 -106.8671875 89.671875 C-122.60898807 104.64383612 -133.6681445 123.05826491 -144 142 C-159.18 142 -174.36 142 -190 142 C-186.61824344 130.72747815 -186.61824344 130.72747815 -184.72265625 126.73046875 C-184.29791016 125.83271729 -183.87316406 124.93496582 -183.43554688 124.01000977 C-182.98244141 123.07858154 -182.52933594 122.14715332 -182.0625 121.1875 C-181.58232422 120.19484131 -181.10214844 119.20218262 -180.60742188 118.17944336 C-172.66795984 101.99367397 -163.64445575 86.55466399 -153 72 C-152.57477051 71.41782715 -152.14954102 70.8356543 -151.71142578 70.23583984 C-146.6095167 63.30971874 -141.165127 56.79040086 -135.30078125 50.48828125 C-133.30347565 48.32820712 -131.39456662 46.12452055 -129.5 43.875 C-98.05734203 8.00277589 -46.8382423 -11.67767021 0 0 Z " fill="#FF3B27" transform="translate(379,6)"/>
<path d="M0 0 C13.2 0 26.4 0 40 0 C40 99.99 40 199.98 40 303 C26.8 303 13.6 303 0 303 C0 203.01 0 103.02 0 0 Z " fill="#255AE2" transform="translate(213,196)"/>
<path d="M0 0 C12.87 0 25.74 0 39 0 C39 99.99 39 199.98 39 303 C26.13 303 13.26 303 0 303 C0 203.01 0 103.02 0 0 Z " fill="#245AE2" transform="translate(449,196)"/>
</svg>
