<svg xmlns="http://www.w3.org/2000/svg" xmlns:xlink="http://www.w3.org/1999/xlink" version="1.1" id="Capa_1" viewBox="0 0 100 100" style="enable-background:new 0 0 200 200;" xml:space="preserve">
<g transform="matrix(0.4, 0, 0, 0.4, 10, 10)">
<style type="text/css">
	.st0{fill:#FFFFFF;}
	.st1{fill:#0082CD;}
	.st2{fill:#003C73;}
	.st3{fill:#4BB9FF;}
</style>
<g>
	<path class="st0" d="M176,200H24c-13.3,0-24-10.7-24-24V24C0,10.7,10.7,0,24,0h152c13.3,0,24,10.7,24,24v152   C200,189.3,189.3,200,176,200z"/>
	<path class="st1" d="M21.9,100h36c0-23.2,18.8-41.9,41.9-41.9c7.1,0,14.1,1.8,20.3,5.3l17.5-31.5c-12.5-6.9-23.5-9.8-37.8-9.8   C56.8,22.1,21.9,57,21.9,100z"/>
	<path class="st2" d="M161.7,147.6c2.3-3.1,4.4-6.4,6.3-9.8c20.9-37.6,7.3-85.1-30.4-105.9c0,0,0,0,0,0l-17.5,31.5   c20.3,11.2,27.6,36.8,16.3,57c-3.6,6.4-8.8,11.8-15.1,15.6c-0.6,0.4-1.3,0.8-2,1.1l0,0l17.9,31c2.8,4.9,8,7.8,13.6,7.8h27   L161.7,147.6L161.7,147.6z"/>
	<path class="st3" d="M126.6,173.2c-35.1,12.8-74.3-1.1-93.5-33.1c-7.3-12.1-11.2-26-11.1-40.1h36c0,23.2,18.8,41.9,41.9,41.9   c2.7,0,5.5-0.3,8.2-0.8L126.6,173.2z"/>
</g>
</g>
</svg>