<?xml version="1.0" encoding="UTF-8"?>
<svg version="1.1" xmlns="http://www.w3.org/2000/svg" width="512" height="512">
<path d="M0 0 C0.79470703 0.20399414 1.58941406 0.40798828 2.40820312 0.61816406 C40.12395502 10.56088147 72.78782489 32.24196349 92.85717773 66.18505859 C107.94348054 92.82646336 112.78833177 125.42780845 105.38671875 155.26171875 C100.21681936 173.77851724 91.60332309 190.45959029 79 205 C78.33742188 205.79535156 77.67484375 206.59070313 76.9921875 207.41015625 C53.92835882 234.26121879 18.20152783 251.84427601 -17 255 C-34.55558987 256.0269856 -52.8757424 256.34625828 -70 252 C-70.70141113 251.82307617 -71.40282227 251.64615234 -72.12548828 251.46386719 C-109.78436667 241.74490548 -142.76107815 219.86035872 -162.78686523 186.01708984 C-178.9477399 157.30368948 -182.74170304 124.00502425 -173.96875 92.26953125 C-163.30226464 57.49534756 -138.357689 30.4248697 -106.75 13.25 C-75.47546784 -3.11693292 -34.38934949 -8.98994644 0 0 Z " fill="#EB111E" transform="translate(291,130)"/>
<path d="M0 0 C0.66 0 1.32 0 2 0 C22.49500447 36.72680475 29.87209587 76.8134679 18.5390625 117.94921875 C5.64973458 161.72028953 -25.02208996 195.48528728 -64.6015625 217.20703125 C-72.79089956 221.54282209 -81.25895795 224.95225071 -90 228 C-90.79696289 228.28069336 -91.59392578 228.56138672 -92.41503906 228.85058594 C-115.50271745 236.80894523 -138.73635608 238.61296169 -163.01090848 238.46426249 C-166.63762941 238.44663808 -170.26433094 238.45285829 -173.89108276 238.45587158 C-180.14293948 238.45794735 -186.39462647 238.44562744 -192.64644051 238.42292023 C-201.68496933 238.39011315 -210.72341788 238.37996424 -219.76199978 238.37496826 C-234.43407151 238.36626004 -249.1060532 238.33976736 -263.77807617 238.30175781 C-278.01244666 238.26492089 -292.2467925 238.23666668 -306.48120117 238.21972656 C-307.80205557 238.21815022 -307.80205557 238.21815022 -309.1495939 238.21654204 C-313.56809705 238.21132108 -317.98660037 238.20626644 -322.4051038 238.20129442 C-358.93679937 238.15997201 -395.46839261 238.08964727 -432 238 C-431.60062692 237.54357459 -431.20125383 237.08714918 -430.78977853 236.6168927 C-428.03639935 233.44299734 -425.38216782 230.31706289 -423.09074402 226.78616333 C-413.65515089 212.52489966 -403.3386419 199.0775493 -392.1875 186.125 C-391.7380773 185.60108516 -391.28865459 185.07717031 -390.82561302 184.53737926 C-366.59775873 156.43395777 -341.93243799 139.63759595 -304.28120422 136.64651489 C-284.2744949 135.29410588 -264.2786572 135.43321801 -244.25 136.125 C-243.25041244 136.15938832 -242.25082488 136.19377665 -241.22094679 136.22920704 C-223.15860539 136.87097562 -205.10492883 137.73273642 -187.09107971 139.22045898 C-170.68253042 140.5640069 -155.22295927 141.74453537 -139 138 C-137.21925741 137.61196838 -135.43839182 137.22450079 -133.65740967 136.83757019 C-107.66196658 131.11042095 -83.02913248 120.39193916 -62 104 C-61.09765625 103.319375 -60.1953125 102.63875 -59.265625 101.9375 C-26.59569525 76.42015842 -6.64586682 40.63164106 0 0 Z " fill="#EB111E" transform="translate(432,274)"/>
<path d="M0 0 C1.21642132 -0.00085442 2.43284264 -0.00170885 3.68612522 -0.00258917 C7.04067896 -0.00394565 10.39517365 -0.00084266 13.74972022 0.0041889 C17.37536273 0.00852445 21.00100357 0.00704477 24.62664795 0.00628662 C30.90109243 0.00576335 37.17552648 0.00888957 43.44996834 0.01452446 C52.52165555 0.02266615 61.59333774 0.02525741 70.66502821 0.02651245 C85.38475616 0.02869878 100.10447855 0.0353475 114.82420349 0.04481506 C129.11945061 0.05400003 143.41469621 0.06107556 157.70994568 0.06532288 C158.59173186 0.0655856 159.47351804 0.06584832 160.38202501 0.06611901 C164.80587438 0.06742409 169.22972377 0.06868778 173.65357316 0.06993091 C210.32918758 0.08029047 247.00479569 0.09789738 283.68040466 0.12025452 C283.28110965 0.57667993 282.88181463 1.03310534 282.47041976 1.50336182 C279.7167642 4.67793905 277.06110691 7.80596818 274.76441956 11.33409119 C265.30427167 25.59127043 254.96988101 39.04056299 243.80540466 51.99525452 C243.35548141 52.51916936 242.90555816 53.0430842 242.44200087 53.58287525 C218.27615297 81.58315074 193.69159344 98.47254933 156.14549255 101.47373962 C136.2650371 102.82601733 116.3954427 102.68732363 96.49290466 101.99525452 C95.5002551 101.96086619 94.50760553 101.92647787 93.48487568 101.89104748 C75.54822271 101.24921003 57.62008216 100.38846774 39.73233032 98.89979553 C23.0113928 97.5208959 7.23609602 96.43895626 -9.31959534 100.12025452 C-10.20727789 100.31298321 -11.09496044 100.5057119 -12.00954247 100.70428085 C-55.87488767 110.36434553 -98.07461313 133.93266846 -123.13453674 172.25062561 C-136.32628447 193.06282258 -144.61515215 214.78537573 -148.31959534 239.12025452 C-152.75117003 235.44429394 -154.78972341 230.72270115 -157.19459534 225.62025452 C-157.63295715 224.69116272 -158.07131897 223.76207092 -158.52296448 222.80482483 C-162.79401581 213.4893177 -165.84758634 204.0506557 -168.31959534 194.12025452 C-168.49603577 193.45767639 -168.6724762 192.79509827 -168.85426331 192.11244202 C-174.04206913 172.12216546 -173.31166851 147.10341934 -168.31959534 127.12025452 C-168.15862366 126.44107971 -167.99765198 125.76190491 -167.83180237 125.06214905 C-157.75422707 83.54176437 -129.04196577 48.5065214 -93.00709534 26.43275452 C-64.84684861 9.84204831 -32.78589903 -0.0848509 0 0 Z " fill="#EB111E" transform="translate(228.31959533691406,-0.1202545166015625)"/>
</svg>
