<?xml version="1.0" encoding="utf-8" ?><svg xmlns="http://www.w3.org/2000/svg" xmlns:xlink="http://www.w3.org/1999/xlink" width="512" height="512" viewBox="0 0 512 512"><path fill="#0096A8" d="M252.74 381.507C250.865 379.931 246.31 376.558 243.975 376.09C240.511 376.069 234.952 371.936 232.423 371.567C226.213 370.661 224.255 369.646 218.612 367.014C214.668 365.175 211.63 364.122 207.567 361.803C198.429 356.587 185.647 351.162 177.998 343.935C177.749 340.68 182.059 341.418 184.391 341.373C192.772 341.211 201.135 340.284 209.432 339.136C210.289 339.018 211.863 337.817 212.745 337.528C222.329 335.617 218.839 329.823 211.483 328.313C194.098 324.746 175.648 325.567 157.989 326.302C156.414 326.367 154.823 326.438 154.02 324.902C154.119 321.957 157.707 317.241 159.217 314.535L168.496 297.962C169.425 296.339 170.221 294.639 171.122 293.034C171.386 292.369 173.737 289.789 173.837 289.346C174.743 285.324 176.875 283.283 179.096 280.003C179.723 279.077 179.911 277.147 180.495 276.14C181.498 274.409 182.715 272.831 183.717 271.103L193.362 254.563C193.945 253.544 193.983 252.255 194.672 251.165C195.898 249.226 197.341 247.473 198.559 245.529C199.178 244.54 199.434 242.341 199.852 241.712C201.553 239.152 203.576 237.626 204.398 234.472C204.926 232.444 206.793 230.276 207.862 228.397C208.616 227.071 209.345 225.661 210.091 224.312C210.871 222.902 211.92 221.494 212.74 220.121C213.384 219.075 213.753 217.029 214.485 216.116C216.957 213.033 218.275 211.57 219.167 207.68C219.335 206.948 222.563 203.351 223.032 202.162C223.786 200.254 224.276 198.043 225.728 196.624C227.124 195.244 228.112 192.395 229.159 190.632C230.852 187.781 232.436 184.937 233.913 181.96C234.442 180.773 236.797 178.406 237.192 177.396C239.914 170.416 239.189 169.991 246.626 169.576C246.849 170.411 248.317 176.115 248.606 176.43C251.063 179.108 252.341 181.806 253.872 185.304C254.437 186.596 256.134 188.597 256.836 190.081C258.435 193.462 259.023 195.85 262.07 198.239C262.839 202.793 268.731 210.533 271.028 214.892C272.773 218.203 272.854 220.336 275.868 222.792C277.12 226.827 278.125 229.559 281.357 232.192C282.33 236.661 283.613 238.641 286.831 241.743C286.87 242.09 286.912 242.436 286.957 242.782C287.43 246.328 289.236 246.916 290.669 249.815C291.786 252.903 294.421 255.787 295.795 258.436C297.896 262.488 296.84 263.419 300.876 266.487C301.615 270.842 303.155 272.988 306.239 276.027C306.265 277.412 306.366 278.041 306.586 279.388C310.895 284.377 311.004 282.62 310.61 289.707C308.823 289.284 305.604 288.285 303.746 287.945C296.04 286.536 289.903 287.234 281.863 286.386C274.883 285.649 261.18 281.094 253.861 283.585C253.13 284.006 252.49 285.132 252.434 285.901C252.077 290.793 255.085 292.574 259.199 293.139C265.512 299.832 276.037 296.014 280.583 302.518L280.753 302.764C284.375 300.667 284.949 303.055 285.965 305.888L285.796 306.356C279.67 306.739 273.731 306.997 267.631 308.315C265.451 308.786 263.197 310.654 261.217 311.206C258.49 311.967 255.444 311.949 252.549 312.669C250.1 313.279 248.154 315.087 246.265 315.684C243.368 316.599 239.732 317.066 236.646 317.817C232.877 322.47 227.362 321.274 228.177 328.959C228.221 329.361 228.269 329.762 228.322 330.163L231.435 331.615C233.275 331.295 234.202 331.17 236.125 331.365C238.214 331.577 240.757 333.019 242.683 332.697C243.38 332.58 244.456 331.51 244.933 330.999L245.757 331.684C244.919 333.183 244.361 333.986 243.353 335.379L242.996 335.498C240.217 336.402 238.639 335.832 235.86 336.198C232.971 336.578 230.33 338.096 227.854 339.493C223.083 342.185 222.11 343.621 223.753 348.901C227.917 351.21 234.405 350.941 237.658 347.19C240.034 346.684 240.917 346.558 243.423 346.518C246.309 346.472 249.564 347.364 252.34 346.824C253.182 346.66 253.869 345.613 254.362 344.929L255.469 345.523C253.685 348.107 252.804 349.763 249.439 350.439C244.248 351.492 241.773 348.581 237.508 352.744C225.119 364.839 243.879 361.411 250.521 361.057C253.401 360.903 257.612 361.79 259.846 359.815L260.061 359.834C260.055 364.508 249.998 364.399 253.298 369.929C256.142 372.071 280.17 369.889 284.659 368.894C295.198 366.559 305.231 365.835 315.925 364.294C320.156 363.685 325.217 360.319 330.015 360.046C330.81 360 335.063 357.26 336.205 356.89C340.949 355.36 343.021 354.335 347.125 351.582C347.805 352.024 348.813 352.631 349.441 353.093C350.537 356.973 351.475 357.288 353.47 360.549C355.748 364.272 355.123 366.228 358.993 369.122C359.591 372.783 361.337 376.155 364.376 378.362C364.429 379.127 364.523 380.864 364.916 381.439C366.921 384.369 368.517 387.844 370.234 390.837C372.432 394.669 374.249 395.734 375.206 400.458C376.152 401.385 376.97 402.203 378.005 403.041C379.552 407.195 379.956 409.806 383.602 412.318C384.094 416.675 385.998 417.754 387.81 421.393C389.485 424.759 389.838 426.209 392.554 429.008C393.446 429.926 394.417 435.7 396.155 436.705C396.496 437.01 397.744 437.634 398.182 437.85C398.473 442.521 397.059 443.238 393.457 446.059C391.334 447.721 390.798 448.023 388.195 448.66C385.174 452.707 380.621 454.703 376.728 457.879C376.425 458.126 375.157 458.3 374.731 458.367L372.991 458.643C372.547 459.353 372.149 461.099 371.558 461.341C367.548 462.984 364.254 465.452 360.548 467.561C359.144 468.36 357.346 468.743 355.982 469.723C354.792 470.424 352.617 471.989 351.522 472.526C350.556 473 348.802 472.892 347.426 473.649C346.201 474.324 342.797 476.93 341.72 477.212C339.108 477.897 337.188 478.123 334.435 478.983C333.663 479.866 332.968 480.692 332.117 481.505C329.239 482.159 325.739 482.839 322.992 483.847C321.324 484.459 319.504 486.031 317.691 486.518C314.203 487.459 310.51 487.755 307.031 488.703C304.195 489.475 301.743 491.42 298.831 491.852C292.342 492.817 285.782 492.413 279.559 494.878C278.295 495.379 276.747 495.871 275.404 496.135C266.5 497.289 257.48 497.276 248.517 497.313C236.83 497.319 225.07 497.489 213.445 496.301C210.116 495.835 206.981 494.517 203.671 493.893C198.042 492.825 192.29 492.65 186.707 491.363C184.204 490.701 181.856 489.605 179.397 488.755C177.137 487.973 173.355 487.9 171.309 487.059C166.437 485.056 162.095 483.24 156.915 482.076C155.148 481.679 152.375 479.723 150.543 479.139C146.673 477.782 143.354 476.482 139.832 474.336C138.516 473.533 136.261 473.058 134.863 472.279C133.243 471.507 131.607 470.281 130.026 469.448C127.976 468.345 125.622 467.679 123.695 466.354C120.241 463.979 116.682 462.241 113.175 459.916C104.939 454.459 96.8698 448.522 88.7592 442.889C86.2385 441.138 89.995 436.055 91.0263 434.347C91.7492 433.086 92.8341 431.236 93.6581 429.941C94.3992 428.776 95.5831 427.695 96.249 426.484C96.8493 425.183 97.1257 423.253 97.7109 422.32C98.9285 420.379 100.42 418.562 101.639 416.628C102.258 415.647 102.557 413.852 103.11 412.861C103.9 411.471 104.927 410.198 105.738 408.823C107.284 406.203 108.659 403.449 110.323 400.899C111.496 399.101 111.761 394.998 114.375 394.804C117.051 394.605 119.995 395.018 122.676 395.282C126.553 398.829 132.441 400.053 137.577 400.238C142.937 405.435 152.062 403.434 158.275 407.427C160.308 408.734 168.068 409.292 170.614 409.412C174.218 409.404 176.444 408.763 178.397 405.787C178.769 405.064 178.883 403.932 179.046 403.076C179.56 402.348 180.409 402.211 181.293 401.925C190.037 400.362 194.118 403.767 200.486 395.381L200.612 394.172L201.18 393.875C205.122 395.384 215.733 394.844 220.362 395.88C221.06 396.036 223.963 396.024 224.724 395.854C232.671 394.074 229.111 391.18 225.012 388.022L224.612 387.172C224.028 386.866 224.183 387.02 223.765 386.554C224.588 386.18 225.216 386.171 226.112 386.03L226.305 385.303C228.12 384.48 235.782 385.857 237.685 386.469C244.466 388.653 252.646 392.483 252.74 381.507Z"/><path fill="#0097B3" fill-opacity="0.96470588" d="M207.387 381.207C211.652 380.467 216.33 380.063 220.612 380.973C222.346 383.823 222.762 385.415 226.305 385.303L226.112 386.03C225.216 386.171 224.588 386.18 223.765 386.554C224.183 387.02 224.028 386.866 224.612 387.172L225.012 388.022C224.38 387.904 223.312 387.504 222.659 387.283L222.416 386.942C219.065 382.332 216.273 384.874 211.421 384.88C208.983 384.884 206.245 384.471 203.835 384.07C202.993 383.521 202.25 383.22 202.392 382.132C203.586 381.438 205.543 381.968 207.387 381.207Z"/><path fill="#0096A8" fill-opacity="0.47450981" d="M203.835 384.07C200.31 383.712 201.305 382.564 200.086 380.675C198.56 378.312 190.952 381.328 188.297 380.39C185.97 379.568 185.72 377.425 187.892 376.295C191.771 374.887 196.875 375.31 200.825 376.538C202.121 380.761 202.866 381.885 207.387 381.207C205.543 381.968 203.586 381.438 202.392 382.132C202.25 383.22 202.993 383.521 203.835 384.07ZM196.064 378.729L196.298 378.721C197.332 378.667 198.33 378.635 199.13 377.997L199.184 377.517C197.241 375.411 192.096 375.301 191.954 378.593L192.397 379.062C193.433 379.375 194.509 379.107 195.571 378.852L196.064 378.729Z"/><path fill="#0097B3" fill-opacity="0.66666669" d="M196.064 378.729L195.571 378.852C194.509 379.107 193.433 379.375 192.397 379.062L191.954 378.593C192.096 375.301 197.241 375.411 199.184 377.517L199.13 377.997C198.33 378.635 197.332 378.667 196.298 378.721L197.389 378.087L197.412 377.717C196.004 377.026 193.557 377.843 192.279 378.578L196.064 378.729Z"/><path fill="#0097B3" fill-opacity="0.6901961" d="M192.279 378.578C193.557 377.843 196.004 377.026 197.412 377.717L197.389 378.087L196.298 378.721L196.064 378.729L192.279 378.578Z"/><path fill="#0096A8" fill-opacity="0.97647059" d="M259.846 359.815C260.117 358.468 260.153 357.626 261.261 356.787C265.988 355.495 273.18 356.606 278.037 357.218C278.367 357.981 278.309 357.587 278.161 358.45C275.288 362.292 262.158 358.869 260.061 359.834L259.846 359.815Z"/><path fill="#0096A8" fill-opacity="0.97647059" d="M255.765 342.257C258.555 341.854 268.214 341.403 270.357 342.972C272.208 347.324 259.194 344.998 257.507 344.817C257.01 344.763 255.906 345.254 255.469 345.523L254.362 344.929C254.826 344.006 255.253 343.158 255.765 342.257Z"/><path fill="#0096A8" fill-opacity="0.96470588" d="M246.962 327.667C249.832 327.329 258.791 326.729 260.716 328.853C260.785 329.782 260.901 329.373 260.363 330.126C256.227 332.319 247.535 328.567 245.757 331.684L244.933 330.999C245.617 329.745 246.085 328.809 246.962 327.667Z"/><path fill="#0097B3" fill-opacity="0.96470588" d="M285.965 305.888C290.826 305.453 291.424 311.47 296.724 313.601C296.617 314.854 296.689 317.77 295.001 317.545C293.336 316.158 293.172 314.114 291.869 312.614C290.416 310.941 287.714 313.531 285.897 306.578C285.876 306.5 285.829 306.43 285.796 306.356L285.965 305.888Z"/><path fill="#0096A8" fill-opacity="0.50980395" d="M178.387 393.352C183.487 390.178 188.045 389.27 194.024 390.495C191.987 390.634 188.775 390.906 187.276 392.518C187.698 394.007 190.166 393.354 191.402 393.46C186.831 395.203 182.953 394.766 178.387 393.352Z"/><path fill="#0096A8" fill-opacity="0.58431375" d="M302.446 316.916C304.108 317.021 306.464 317.232 307.649 318.473C308.038 320.652 305.56 320.42 304.096 321.252C302.998 321.352 302.179 321.829 301.114 321.559C300.44 320.745 299.709 319.358 299.743 318.3C301.11 317.961 301.429 317.892 302.446 316.916Z"/><path fill="#0097B3" fill-opacity="0.79607844" d="M194.024 390.495L194.623 390.46C195.356 390.97 196.319 391.507 196.696 392.263C196.252 392.845 196.094 392.75 195.171 392.875C194.848 392.917 194.525 392.958 194.201 392.997C193.656 393.091 191.853 393.444 191.402 393.46C190.166 393.354 187.698 394.007 187.276 392.518C188.775 390.906 191.987 390.634 194.024 390.495Z"/><path fill="#0097B3" fill-opacity="0.45490196" d="M169.101 401.354C174.233 400.256 175.838 402.231 181.293 401.925C180.409 402.211 179.56 402.348 179.046 403.076C178.883 403.932 178.769 405.064 178.397 405.787C178.378 405.408 178.367 404.673 178.165 404.365C177.044 402.65 170.961 401.74 169.101 401.354Z"/><path fill="#0096A8" fill-opacity="0.81960785" d="M275.379 337.818C276.842 337.642 279.067 337.519 280.109 338.686L280.051 339.192C279.443 339.814 279.214 339.847 278.419 340.16C276.948 340.058 275.17 340.081 273.875 339.55L273.695 339.102C274.09 338.384 274.64 338.21 275.379 337.818Z"/><path fill="#0096A8" fill-opacity="0.5411765" d="M194.623 390.46C196.422 390.646 198.41 392.999 200.599 393.492C200.921 393.564 200.928 393.621 201.18 393.875L200.612 394.172L200.486 395.381C198.819 393.49 196.6 393.293 194.201 392.997C194.525 392.958 194.848 392.917 195.171 392.875C196.094 392.75 196.252 392.845 196.696 392.263C196.319 391.507 195.356 390.97 194.623 390.46Z"/><path fill="#0096A8" d="M134.614 34.1314C140.624 33.6379 139.97 32.1422 144.807 29.7106C145.982 29.095 150.305 28.487 151.059 27.8678C155.309 24.376 159.739 24.2959 164.834 22.764C166.247 22.3391 167.798 20.8999 169.271 20.3988C172.423 19.3265 175.907 19.1621 179.133 18.3495C181.52 17.7729 184.497 16.0682 186.696 15.5804C191.227 14.479 195.941 14.3439 200.528 13.4797C202.645 13.0807 204.73 12.5975 206.832 12.1559C208.853 11.7315 211.259 10.9818 213.289 10.7868C223.442 9.81192 233.704 9.74333 243.896 9.73893C253.167 9.7688 262.548 9.69118 271.782 10.6266C277.723 11.2283 283.863 13.2726 289.824 14.1383C292.936 14.5903 295.984 14.7476 299.088 15.1497C301.049 15.4036 303.272 16.8916 305.195 17.4687C309.619 18.9515 313.007 19.5591 317.611 19.9825C320.161 23.1355 328.164 24.5072 332.145 25.1152C334.831 28.3074 337.333 29.2973 341.471 29.0399C343.638 30.184 345.351 32.1013 347.548 33.2425C348.91 33.9501 350.476 33.5514 351.788 34.1898C353.694 35.1173 355.162 36.9265 357.052 37.9244C358.385 38.6282 359.935 38.5771 361.284 39.1847C361.83 39.4302 362.3 39.8247 362.758 40.2015C364.097 41.3027 365.557 42.9714 367.173 43.6022C368.144 43.9814 369.316 44.0679 370.22 44.5874C373.916 46.7119 380.938 53.4261 384.409 54.1526C385.848 54.8496 386.93 56.2518 388.258 57.2611C406.763 71.3349 423.666 88.1615 437.827 106.601C438.46 107.425 438.557 108.11 439.494 108.757C441.246 110.484 441.648 112.091 442.922 113.589C445.667 116.819 447.91 122.746 451.18 125.019C452.249 129.371 453.985 131.484 456.932 134.801C457.427 138.873 458.466 139.252 460.625 142.512C461.414 143.705 461.903 146.55 462.612 147.907C463.248 149.347 465.384 151.991 465.865 153.243C467.775 158.214 467.05 160.075 470.841 164.168C471.716 170.459 473.089 173.338 475.741 179.072C476.346 181.263 476.426 183.699 476.915 185.903C477.594 188.962 479.784 192.385 480.393 195.36C481.546 200.993 481.268 206.682 483.387 212.22C483.899 213.558 484.279 215.303 484.611 216.695C485.647 224.903 486.015 233.192 486.092 241.462C486.48 250.766 486.313 258.843 486.055 268.146C485.846 275.682 485.58 283.239 484.633 290.747C484.196 294.219 482.153 298.785 481.456 302.407C480.701 306.335 480.891 309.885 480.014 313.776C479.259 316.613 477.911 319.098 476.778 321.848C475.851 324.095 475.787 329.046 474.855 330.934C472.817 335.06 471.174 338.006 470.408 342.736C470.229 343.837 467.566 347.362 467.156 348.741C465.767 352.312 466.891 353.85 464.646 357.409C462.062 355.942 461.358 355.547 458.471 354.789C456.637 352.563 456.853 350.506 455.629 348.877C453.234 345.691 452.128 342.314 450.212 339.092C446.32 332.548 442.567 325.885 438.635 319.379C436.631 316.062 435.175 312.239 432.783 309.02C431.841 307.52 431.083 305.32 430.158 303.676L336.245 138.744L320.037 109.464C319.064 107.672 317.614 106.131 316.633 104.345C315.966 103.133 315.328 101.088 314.646 99.9681C310.395 92.9931 306.662 85.6986 302.276 78.8426C301.557 77.7175 301.061 75.1164 300.338 74.2562C298.341 71.881 296.006 69.9129 292.815 69.6857C289.712 69.4647 286.914 69.6289 283.868 69.6603L269.674 69.6743L222 69.6703C212.691 69.6667 201.227 69.9844 192.2 69.1694C188.614 71.7627 185.062 73.8075 184.446 78.615L184.28 79.8333C183.398 80.717 182.54 81.5718 181.786 82.5705C180.221 84.6438 179.396 87.1886 178.102 89.37C176.68 91.7012 175.096 94.0385 173.963 96.5331C173.109 98.4128 171.584 100.202 170.744 101.989C169.358 105.096 167.642 107.674 165.658 110.407C165.12 111.15 165.157 113.291 164.59 113.998C162.27 116.894 160.585 119.414 159.025 122.818C158.111 124.81 156.12 127.001 155.324 129.18C154.217 131.722 152.716 133.845 151.288 136.191C150.416 137.622 149.81 139.388 148.928 140.833C147.96 142.648 146.051 144.578 145.69 146.457C145.183 149.095 142.988 150.838 141.694 153.268C140.907 154.673 140.221 156.123 139.446 157.536C138.66 158.969 137.434 160.447 136.722 161.884C133.816 167.751 130.415 173.437 126.997 179.021C126.439 179.933 126.391 181.575 125.862 182.543C123.788 185.799 121.907 186.903 120.828 190.869L120.664 191.308C117.646 195.695 115.151 200.284 112.477 204.893C110.638 208.063 108.415 211.846 107.104 215.117C105.594 218.212 102.664 222.654 100.869 225.893C98.1831 230.74 95.2531 235.435 92.4741 240.21C90.6266 243.148 88.7015 246.845 87.3897 249.962C85.7804 254.05 82.6184 255.61 81.645 260.256C81.5845 260.544 79.2503 263.496 78.6803 264.675C75.7894 270.657 70.7756 277.623 68.2012 283.599C66.2859 288.045 66.1196 287.177 63.5728 290.821C63.0078 295.422 61.3409 294.911 59.5384 298.113L44.3172 324.96C43.4581 326.444 43.7529 327.812 42.501 329.37C40.342 332.058 39.0281 334.605 37.4875 337.638C36.467 339.115 35.518 340.792 34.5585 342.28C33.8005 343.455 32.6083 347.036 31.9117 347.837C29.0958 351.072 29.0107 353.275 28.1196 357.554C25.0627 355.176 22.46 355.528 19.702 352.684C19.268 347.071 17.5503 345.315 15.2112 340.507C14.3664 338.77 14.2389 334.562 13.3753 332.997C10.546 327.871 9.54266 324.326 8.9308 318.493C8.70697 316.359 6.1525 312.187 5.87301 309.76C4.50899 302.42 4.35251 294.69 3.2937 287.295C2.30494 286.386 0.915437 284.488 0 284.286L0 223.37C1.8372 222.307 2.96314 217.96 3.56005 215.856C4.13612 213.825 4.21046 210.393 4.48933 208.195C4.99529 204.208 5.41326 200.062 6.07506 196.094C6.37737 193.979 8.05776 191.5 8.46553 189.492C9.69926 183.415 11.0866 177.842 13.5271 172.105C14.4095 170.031 14.8442 167.243 15.7222 165.105C16.431 163.379 17.818 161.83 18.5099 160.075C19.1288 158.521 19.4952 155.681 20.1294 154.414C21.0123 152.652 22.5851 150.576 23.5683 148.739C24.1814 147.594 24.3408 145.293 24.6482 144.747C25.7349 142.82 27.3348 140.794 28.4963 138.822C29.2721 137.505 29.3691 135.504 29.8641 134.785C30.9731 133.174 32.0981 131.712 33.1651 129.999C35.1816 126.389 37.2892 122.811 39.4561 119.29C40.2348 118.024 41.505 116.764 42.3849 115.513C44.1071 113.065 45.978 110.701 47.7514 108.29C48.5141 107.254 48.7471 105.941 49.5193 104.972C53.141 100.431 56.9242 96.1966 60.8219 91.9052C69.4096 82.2899 78.6416 73.2701 88.4538 64.9082C95.3095 59.1645 101.944 55.0444 108.816 49.5667C109.605 48.9376 111.305 48.547 112.255 47.9978C113.425 47.3215 115.201 45.3306 116.232 44.7607C117.802 43.8937 119.942 43.2878 121.567 42.405C122.603 41.842 123.978 39.9975 124.82 39.6513C129.569 37.6979 130.841 37.6163 134.614 34.1314Z"/><path fill="#005661" fill-opacity="0.023529412" d="M120.828 190.869L121.418 190.671C121.946 191.297 122.049 192.582 121.367 193.082C120.716 192.388 121.124 192.107 120.664 191.308L120.828 190.869Z"/></svg>