<?xml version="1.0" encoding="utf-8" ?><svg xmlns="http://www.w3.org/2000/svg" xmlns:xlink="http://www.w3.org/1999/xlink" width="512" height="512" viewBox="0 0 512 512"><path fill="#626262" d="M210.339 181.625C228.635 181.442 243.148 183.024 259.426 192.675C282.606 206.418 296.211 236.625 302.158 262.151C309.668 294.385 309.875 338.955 302.059 371.428C299.13 383.595 291.16 401.325 284.615 411.845C274.713 427.762 264.242 436.33 246.023 440.682C236.159 442.356 225.532 441.945 215.507 441.945L172.868 441.934C165.97 441.931 156.628 441.641 149.97 442.066L149.972 269.686L149.972 213.229C149.972 202.868 150.143 191.932 149.894 181.612C156.058 181.866 164.085 181.636 170.357 181.635L210.339 181.625ZM196.202 388.273C216.112 387.99 232.187 390.846 247.064 374.126C262.035 356.678 261.315 317.646 260.081 295.843C259.089 278.335 253.352 254.118 239.657 242.358C229.772 233.87 217.027 233.563 204.786 233.951C202.883 234.011 198.012 234.081 196.216 233.864L196.231 334.657C196.231 352.254 196.518 370.775 196.202 388.273Z"/><path fill="#626262" d="M316.021 181.521C318.356 181.602 320.806 181.646 323.14 181.617C336.189 181.454 349.422 181.944 362.455 181.457C362.105 186.627 362.314 194.19 362.314 199.509L362.311 231.697L362.311 332.417L362.313 407.745L362.3 429.413C362.286 432.729 362.071 438.969 362.414 442.114C360.043 441.935 357.22 441.893 354.839 441.948C341.967 442.248 328.6 441.45 315.777 442.048C315.369 421.456 315.747 399.517 315.747 378.838L315.746 253.962L315.737 202.451C315.737 199.424 315.556 183.69 316.021 181.521Z"/><path fill="#626262" d="M216.489 49.0716C235.014 46.21 245.175 69.3346 247.48 84.1222C250.37 102.657 249.094 124.114 238.105 139.976C234.004 145.895 229.363 149.472 222.27 150.734C217.013 151.527 211.652 150.293 207.27 147.283C198.069 140.944 192.799 126.816 190.93 116.211C187.841 98.6882 189.285 75.9343 199.6 60.9682C203.961 54.6409 208.866 50.4363 216.489 49.0716ZM221.222 140.97C247.59 136.081 247.746 74.5982 227.214 61.5757C224.345 59.756 220.567 58.6254 217.17 59.3219C190.662 63.6533 190.246 125.052 210.323 138.195C214.387 140.857 216.514 141.107 221.222 140.97Z"/><path fill="#626262" d="M173.148 49.0495C179.831 48.6072 185.153 50.3327 190.98 53.6365C191.202 57.2063 191.08 61.4553 191.064 65.0869C185.025 60.5538 177.289 56.4723 169.712 60.149C160.937 64.4069 156.612 77.1135 155.333 86.0977C153.483 99.8808 153.593 115.237 159.503 128.05C165.306 140.631 175.737 143.693 187.854 137.735C189.022 137.313 191.021 135.784 192.018 135.03C192.099 138.51 192.305 143.023 191.948 146.4C184.025 151.587 172.485 153.573 164.366 147.861C155.377 141.538 151.295 130.505 149.203 120.217C145.042 99.762 147.63 53.7379 173.148 49.0495Z"/><path fill="#626262" d="M396.69 462.31C416.99 460.188 419.681 507.4 399.258 511.192C389.518 511.66 385.224 503.062 383.566 494.774C381.421 484.048 383.401 464.9 396.69 462.31ZM398.317 504.807C408.328 503.147 409.833 489.025 408.394 480.977C407.365 475.221 404.316 469.287 397.927 468.559C394.465 469.202 393.01 470.071 390.738 473.055C384.932 480.681 385.509 504.484 398.317 504.807Z"/><path fill="#626262" d="M475.73 462.317C495.197 459.901 498.865 507.821 477.656 511.189C457.272 512.134 455.556 465.708 475.73 462.317ZM477.504 504.782C480.812 504.202 481.901 503.326 484.062 500.558C490.203 492.691 489.551 469.538 476.693 468.566C474.409 469.072 473.98 469.165 472.02 470.596C463.164 477.06 463.848 504.861 477.504 504.782Z"/><path fill="#626262" d="M233.729 462.316C236.205 462.013 239.483 462.875 241.412 464.446C252.118 473.163 252.567 494.366 245.022 505.166C242.632 508.588 239.689 510.548 235.653 511.19C215.36 512.063 213.594 465.701 233.729 462.316ZM235.485 504.781C236.566 504.597 237.54 504.463 238.528 503.918C249.114 498.082 248.672 469.452 234.695 468.566C224.068 470.909 223.24 485.011 224.943 493.706C226.007 499.136 229.359 504.638 235.485 504.781Z"/><path fill="#626262" d="M343.496 462.311C353.913 461.454 358.783 472.758 359.78 481.344C361.049 492.266 358.924 507.574 346.61 511.087C331.347 512.513 328.348 491.364 330.151 480.379C331.487 472.242 334.696 464.32 343.496 462.311ZM345.433 504.786C358.348 502.913 359.121 476.306 349.174 469.925C347.506 468.855 346.888 468.776 344.925 468.554C336.316 470.154 334.41 479.37 334.314 486.867C334.223 493.97 336.687 504.409 345.433 504.786Z"/><path fill="#626262" d="M440.859 462.562C445.328 462.561 451.035 461.971 454.255 465.615C456.819 468.516 457.39 473.215 457.161 476.963C456.904 481.189 455.786 484.718 452.563 487.601C457.893 496 458.812 502.518 462.783 510.509C460.74 510.49 458.254 510.779 457.154 508.873C456.056 506.968 454.986 503.645 454.201 501.556C453.3 498.806 452.203 495.262 450.562 492.892C448.843 490.41 447.807 490.18 445.165 489.703C444.913 495.064 444.943 505.52 445.15 510.947C443.765 510.828 442.144 510.903 440.737 510.925C440.59 500.489 440.755 489.853 440.68 479.408C440.664 477.163 440.485 463.85 440.859 462.562ZM444.737 483.992C446.607 483.868 449.646 483.931 451.021 482.615C453.461 479.15 454.262 472.568 450.297 469.603C449.225 468.8 446.167 468.579 444.789 468.411C444.871 473.014 444.994 479.444 444.737 483.992Z"/><path fill="#626262" d="M255.278 462.944C256.86 462.946 258.266 462.787 259.108 464.326C261.597 468.869 264.053 473.544 266.392 478.164C270.056 485.438 273.789 492.677 277.59 499.881C277.05 488.486 277.822 476.739 277.397 465.306C277.318 463.166 279.569 461.733 281.146 463.741C281.529 466.165 281.421 471.585 281.423 474.222L281.418 492.064L281.451 504.512C281.457 506.395 281.571 509.546 281.316 511.331C280.421 511.417 279.351 511.626 278.496 511.258C276.781 510.519 261.247 478.502 259.235 474.429C258.935 478.408 259.083 483.795 259.085 487.868C259.117 495.674 259.1 503.48 259.033 511.286C257.782 511.276 256.641 511.336 255.396 511.398C254.998 506.261 255.237 498.429 255.239 493.001L255.278 462.944Z"/><path fill="#626262" d="M299.249 462.939C301.2 462.93 302.063 462.814 303.156 464.631C305.422 468.252 307.057 472.274 309.094 476.013C313.424 483.959 317.237 492.258 321.627 500.152C321.194 494.268 321.48 485.077 321.484 479L321.48 470.001C321.468 468.355 321.027 464.754 321.956 463.522C322.319 463.033 322.901 462.758 323.509 462.787C324.209 462.814 324.513 463.066 324.975 463.51C325.489 465.168 325.485 509.401 325.126 511.404C323.495 511.479 322.035 511.65 321.166 510.036C314.883 498.373 309.327 486.254 302.97 474.626C303.192 486.609 302.984 499.249 302.985 511.277C301.521 511.241 300.699 511.318 299.273 511.462C298.905 504.415 299.168 495.674 299.147 488.5C299.124 480.371 298.912 471.007 299.249 462.939Z"/><path fill="#626262" d="M80.8263 463.023C82.0079 462.946 82.4841 462.831 83.5906 463.158C85.326 464.452 100.76 495.357 102.966 499.855L102.997 463.12C104.23 463.056 105.597 463.072 106.844 463.06C106.278 475.754 107.237 497.201 106.809 510.807C106.667 511.001 106.526 511.194 106.385 511.388L103.655 511.413C102.091 509.242 99.1809 503.12 97.8436 500.574C93.2517 491.832 89.0662 482.811 84.3869 474.114C84.7024 478.189 84.5709 483.198 84.566 487.343C84.5159 495.301 84.5297 503.26 84.6075 511.218C83.1894 511.384 82.0339 511.803 80.9244 510.814C80.5816 508.908 80.6345 496.277 80.6987 493.324C80.9099 483.613 80.2855 472.529 80.8263 463.023Z"/><path fill="#626262" d="M143.792 462.082C144.357 462.351 145.426 462.934 145.599 463.529C150.15 479.113 153.727 495.434 158.131 511.034C156.789 510.943 155.502 510.947 154.159 510.937C153.009 508.348 150.969 499.848 150.158 496.756L145.062 496.778C142.708 496.789 140.627 496.816 138.272 496.622L134.738 510.729C133.281 510.848 131.649 510.888 130.174 510.955C131.428 506.967 132.504 502.332 133.547 498.247L138.87 477.33C139.98 472.926 141.04 468.234 142.438 463.915C142.705 463.09 143.149 462.642 143.792 462.082ZM139.923 490.828L144.063 490.737L148.726 490.674C148.011 488.741 144.505 474.13 144.347 473.943C142.437 479.195 141.601 486.244 139.923 490.828Z"/><path fill="#626262" d="M59.9749 463.07C65.3559 462.995 70.7234 463.135 76.1387 463.013C76.0538 465.219 76.0688 466.978 76.1422 469.189C72.9926 468.879 67.3039 469.049 63.9162 469.025C63.9936 473.869 64.0211 478.714 63.9985 483.559C67.9298 483.398 71.7726 483.606 75.7881 483.354C75.5081 485.638 75.581 487.297 75.697 489.583C71.8588 489.423 67.836 489.561 63.9253 489.44C64.1027 492.555 63.9944 496.672 63.996 499.865L63.9826 504.444C67.8224 504.181 72.4172 504.359 76.4317 504.22C76.3297 506.606 76.2818 508.172 76.4799 510.544C71.7534 510.17 64.4787 510.134 59.7959 510.528C59.5121 500.506 59.9948 489.77 59.7808 479.665C59.7306 477.295 59.6584 464.825 59.9749 463.07Z"/><path fill="#626262" d="M370.998 462.282C371.255 462.266 371.512 462.255 371.768 462.249C379.449 462.072 379.058 467.617 379.055 473.187C377.404 471.193 375.471 468.489 372.683 468.233C369.652 467.955 367.969 470.978 367.884 473.674C367.781 477.992 371.854 481.256 374.664 484.094C378.41 487.747 380.438 492.701 380.22 497.971C379.978 503.81 378.368 510.541 371.214 510.309C362.95 509.035 364.401 503.905 364.139 497.472C366.114 500.81 371.394 509.401 375.77 501.843C379.009 494.86 369.054 488.864 366.314 484.05C362.814 477.903 362.834 464.272 370.998 462.282Z"/><path fill="#626262" d="M167.007 462.278C175.279 461.838 174.846 467.087 175.031 473.215C172.927 470.691 169.625 466.405 165.794 468.97C164.637 469.745 163.886 472.079 163.814 473.419C163.694 478.39 168.248 481.598 171.463 485.052C177.044 491.045 178.083 502.795 172.149 508.852C170.715 510.316 168.243 510.396 166.237 510.204C158.79 508.426 160.242 503.099 160.091 497.03C160.428 497.752 160.778 498.469 161.139 499.18C164.431 505.517 170.04 507.709 172.449 499.203C170.396 489.463 162.748 488.552 160.508 479.698C159.036 473.878 160.039 463.984 167.007 462.278Z"/><path fill="#626262" d="M413.218 463.025C419.747 463.42 430.131 463.07 436.939 463.009C436.903 465.201 436.91 466.919 437.04 469.102C433.7 469.047 430.36 469.021 427.019 469.024C427.099 479.807 427.122 490.591 427.088 501.375C427.06 504.553 426.988 507.763 427.135 510.935C425.589 510.816 424.61 510.868 423.066 510.939C422.761 497.313 422.907 482.726 423.024 469.059C419.766 469.027 416.508 469.047 413.25 469.119L413.218 463.025Z"/><path fill="#626262" d="M110.879 463.065L134.396 463.063C134.24 465.283 134.237 467.001 134.467 469.2C131.524 468.985 127.377 469.086 124.299 469.028C124.77 479.099 124.434 491.735 124.444 502.062C124.414 504.945 124.318 508.051 124.497 510.91C123.147 510.923 121.797 510.957 120.449 511.012C120.088 499.778 120.45 488.415 120.312 477.168C120.28 474.549 120.226 471.591 120.495 469.019C117.726 469.202 113.486 469.072 110.51 469.137C110.51 467.714 110.341 464.175 110.879 463.065Z"/><path fill="#626262" d="M261.23 0L510.346 0L510.289 440.677C507.381 440.418 503.328 440.502 500.361 440.5L484.634 440.495C469.393 440.493 453.986 440.368 438.765 440.551C438.89 438.564 439.252 432.185 440.203 430.79C442.08 430.2 445.76 429.652 447.825 429.278L461.69 426.765L484.841 422.55C489.139 421.763 494.047 420.748 498.306 420.156C497.999 413.861 498.216 405.874 498.216 399.475L498.236 361.458C478.859 358.385 459.318 354.391 439.935 351.295C438.241 335.881 436.668 320.711 433.299 305.533C432.692 302.802 432.169 300.124 431.375 297.435C435.048 292.458 439.924 286.734 443.882 281.831L466.759 253.502C470.332 249.087 475.716 242.824 478.875 238.349C476.946 233.67 474.826 226.8 473.141 221.906L461.581 188.088L427.708 213.666C422.981 217.232 412.547 224.681 408.526 228.491C407.029 226.41 405.169 222.405 403.899 219.941C402.02 216.326 400.068 212.748 398.047 209.211C395.687 205.069 393.184 201.009 390.545 197.039C388.698 194.284 386.567 191.452 384.835 188.668C386.972 181.448 388.961 173.047 390.886 165.682L402.467 121.377C404.379 114.101 406.513 104.893 408.79 97.854L378.896 68.4952C372.519 83.6843 365.754 98.9627 359.2 114.095C354.317 125.569 349.365 137.014 344.345 148.429C341.896 147.018 339.531 145.396 337.005 143.97C329.326 139.597 321.099 136.264 312.541 134.059C311.844 128.419 311.62 122.466 311.261 116.765L309.559 89.5421L307.399 55.4228C306.961 48.5948 306.38 41.3209 306.163 34.5186C294.618 34.5792 283.074 34.5676 271.529 34.4838C271.456 39.5858 270.971 45.0145 270.664 50.1188L268.814 79.3147C267.747 97.5572 266.586 115.794 265.33 134.024C263.746 134.411 262.506 134.839 260.967 135.365L261.23 0Z"/><path fill="#626262" d="M0 182.566C0.742393 181.951 0.882211 181.734 1.9887 181.688C5.67904 181.532 9.51072 181.594 13.2038 181.602L34.9803 181.633L63.6483 181.608C83.618 181.592 102.295 181.51 116.447 198.563C137.741 224.221 134.083 278.461 109.01 300.424C132.642 315.73 140.172 338.672 140.716 365.536C141.29 393.896 133.052 433.483 100.255 440.315C97.5251 440.883 94.7502 441.209 91.9628 441.288C86.8651 441.455 81.1029 441.329 75.968 441.328L46.5131 441.315L17.6853 441.328C12.7635 441.333 7.83874 441.356 2.91851 441.326C2.14107 441.321 0.388266 441.331 0.370038 440.257C0.295123 435.841 0.456243 431.378 0.46268 426.959L0.464844 386.296L0.459405 224.192C0.460722 218.429 1.04484 186.094 0 182.822L0 182.566ZM46.981 398C51.3861 397.952 55.7915 397.935 60.1968 397.95C69.7903 397.947 79.039 398.125 86.3193 390.577C86.495 390.394 86.6683 390.209 86.8392 390.022C97.2398 377.665 97.2692 347.997 84.3488 337.073C74.7447 328.954 58.7853 331.661 46.9706 331.2L46.981 398ZM79.6759 281.04C85.601 275.252 86.5725 265.379 86.6716 257.56C86.772 249.633 85.9312 237.751 79.926 231.844C71.4968 223.554 57.5937 225.483 46.9806 225.06L47.017 287.538C57.331 287.485 71.5728 288.34 79.6759 281.04Z"/><path fill="#626262" d="M0.27224 0L23.7353 0C24.3725 0.349689 26.7106 0.952017 27.5653 1.17216C45.015 5.6665 48.8821 26.3288 48.1859 41.8976C47.6787 53.2412 44.1895 63.8137 35.5295 71.7949C41.2858 74.4238 44.8794 76.8182 48.7515 81.9788C53.1946 87.9005 56.5743 100.813 55.3522 107.944C56.363 106.31 57.4546 104.727 58.6228 103.201C65.6664 94.1124 74.7193 91.8275 85.5561 90.4547C84.9413 80.3877 88.6667 55.7748 70.5964 58.5358C64.9803 59.3939 57.9338 66.3823 54.992 70.963C54.2645 62.1962 53.3563 60.7994 60.0816 55.0724C70.1897 45.7833 84.82 47.9323 89.8014 61.3106C92.7532 69.2382 91.8516 82.5619 91.8498 91.306L91.8304 128.899C91.8287 131.642 91.3723 139.096 92.8573 141.047C94.8135 141.746 97.6765 137.102 98.4885 135.551L98.4678 78.303C98.4677 69.393 98.6326 59.8969 98.4129 51.024C100.823 50.8655 102.28 50.8399 104.691 50.9519C104.2 56.5004 104.889 62.8398 104.327 68.7354C106.501 63.7217 108.558 58.7864 112.243 54.6519C115.126 51.4014 118.676 49.1598 123.127 48.9365C135.487 48.3163 141.632 60.5016 143.826 70.92C145.955 81.0259 145.484 91.4538 145.482 101.746L145.447 132.487C145.445 137.983 145.335 143.929 145.53 149.395C143.254 149.3 141.376 149.144 139.111 149.449C138.895 131.858 139.333 114.055 139.148 96.3664C138.872 85.6282 139.331 70.6388 131.494 62.3505C126.221 56.7737 117.286 59.0773 112.921 64.4788C109.357 68.8889 105.959 74.6149 104.687 80.2296C104.026 83.1479 104.282 87.8023 104.29 90.8394L104.31 105.328L104.304 133.552C104.304 138.658 104.16 144.425 104.402 149.449C102.26 149.32 100.644 149.267 98.5033 149.309L98.4845 149.049L98.4592 148.614C98.3401 146.738 98.3454 146.485 98.654 144.622C89.3914 155.112 85.2737 153.198 85.2639 139.145C71.2555 157.899 55.6273 154.686 51.7529 131.417C50.9074 133.421 49.8906 135.349 48.7136 137.178C40.771 149.326 30.5994 149.631 17.4338 149.25C14.7652 149.173 1.81284 149.622 0.47959 148.755C0.204237 145.88 0.466315 140.115 0.470216 136.881L0.477027 112.179L0.472486 32.6209L0.484755 10.5175C0.485644 7.82825 0.745103 2.48541 0.27224 0ZM7.2872 139.523C11.3336 139.479 15.3804 139.471 19.427 139.499C27.2185 139.52 34.6364 139.868 40.5655 133.816C40.9187 133.458 41.2584 133.086 41.5839 132.702C48.6227 123.063 49.1798 112.23 47.7024 100.676C46.8531 94.0343 43.7213 86.9815 38.1596 82.9949C30.8827 77.7788 20.9522 78.6635 12.4557 78.6607C10.6884 78.6601 9.00086 78.7838 7.26881 78.525L7.31182 115.599C7.30998 123.368 7.47652 131.801 7.2872 139.523ZM7.28043 68.8521C17.0751 68.7341 26.6317 70.1104 33.9809 62.415L34.2186 62.1612C41.095 53.6868 41.2972 42.5694 40.4237 32.1224C39.8664 25.4583 37.2274 18.1818 31.8591 13.913C26.393 9.56648 19.8818 9.28802 13.1596 9.34592C11.5929 9.35942 8.78508 9.48375 7.33033 9.32969C7.15517 14.5098 7.30876 20.2917 7.31464 25.5391L7.31749 55.2927C7.31679 59.5458 7.444 64.6653 7.28043 68.8521ZM63.4516 140.151C72.0448 146.727 81.6869 136.734 85.4872 129.483C85.4305 119.323 85.4338 109.162 85.497 99.0011L82.5433 99.1115C66.5223 99.9539 57.2922 112.68 58.0681 128.215C58.3243 133.346 59.8 136.536 63.4516 140.151Z"/><path fill="#626262" d="M33.8135 463.402C33.4341 473.705 33.8599 484.156 33.7816 494.494C33.7261 501.829 38.9142 509.798 46.4003 504.011C50.3438 500.837 49.5926 491.513 49.5851 486.245L49.5483 469.237C49.5255 463.556 48.4367 462.736 54.2625 463.045C54.2155 470.082 54.2068 477.12 54.2364 484.158C54.2404 493.344 55.3946 505.005 46.9721 510.552C46.0361 511.169 45.022 511.464 44.1743 512L39.2448 512C35.2036 510.063 32.7398 508.207 31.2786 503.761C28.5598 495.487 29.8041 485.165 29.5586 476.391C29.4677 473.14 29.4088 466.262 29.591 463.403L33.8135 463.402Z"/><path fill="#626262" d="M0 481.579C0.636268 480.279 0.995501 477.47 1.53388 475.912C5.68734 463.894 13.3278 458.012 25.0883 465.981C25.1971 468.468 25.231 470.958 25.19 473.448C20.2898 469.019 13.9263 465.773 8.61107 471.995C4.25192 477.097 3.87978 484.435 4.30999 490.796C4.81153 497.409 9.51487 505.798 17.2111 504.75C20.9208 504.244 23.3582 501.924 25.9596 499.494C25.4148 507.848 26.6525 509.189 16.5504 511.677C16.1958 511.764 16.0102 511.828 15.6952 512L15.3082 512C14.3771 511.59 12.9726 511.511 11.3394 510.784C5.75974 508.445 3.01402 503.135 1.40066 497.604C0.889745 495.853 0.720861 493.85 0 492.137L0 481.579Z"/><path fill="#626262" d="M205.775 512C200.619 510.791 196.927 508.491 194.425 503.702C188.274 491.925 188.701 472.155 200.431 463.808C204.911 460.63 212.092 462.694 215.754 466.376C215.741 468.826 215.728 470.721 215.952 473.177C210.031 468.9 203.619 465.373 198.193 473.252C194.393 478.77 194.232 486.841 195.258 493.206C196.347 499.362 201.584 506.279 208.573 504.609C211.848 503.827 213.76 502.092 216.088 499.845C216.203 502.572 216.311 504.842 216.154 507.584C213.81 509.215 212.126 510.271 209.36 511.134C208.265 511.476 207.278 511.58 206.168 512L205.775 512Z"/><path fill="#626262" d="M496.096 497.011C497.63 500.259 502.49 508.573 506.842 503.079C512.087 496.459 502.199 489.607 498.815 484.828C495.034 479.486 494.865 470.076 498.863 464.707C501.211 461.442 506.433 461.609 509.237 464.16C511.595 466.305 510.902 470.261 511.009 473.277C508.697 470.354 503.658 464.854 500.576 470.636C497.026 477.293 505.439 482.151 508.746 486.583C510.216 488.553 511.155 491.44 512 493.857L512 501.49C509.487 509.126 505.925 513.39 497.744 507.954C495.653 506.565 496.142 499.49 496.096 497.011Z"/></svg>