<?xml version="1.0" encoding="utf-8" ?><svg xmlns="http://www.w3.org/2000/svg" xmlns:xlink="http://www.w3.org/1999/xlink" width="512" height="512" viewBox="0 0 512 512"><defs><linearGradient id="gradient_0" gradientUnits="userSpaceOnUse" x1="280.22455" y1="254.08476" x2="501.24573" y2="205.90227"><stop offset="0" stop-color="#47AA3A"/><stop offset="1" stop-color="#61DD4E"/></linearGradient></defs><path fill="url(#gradient_0)" d="M140.228 9.76301C184.735 -3.7505 242.557 3.52077 286.21 17.542C291.676 19.2528 297.1 21.0939 302.478 23.0637C304.484 23.7954 307.69 24.8657 309.48 25.8024C321.06 30.07 333.083 35.7021 344.137 41.3532C406.961 73.4713 465.421 124.21 495.814 188.794C502.522 203.048 511.777 230.416 511.274 246.404C511.487 248.07 511.517 250.37 512 251.806L512 259.151C511.607 261.236 511.532 263.53 511.393 265.658C510.85 274.005 509.607 282.658 507.285 290.698C502.866 312.577 488.558 339.973 476.079 358.315C474.327 360.889 469.861 367.616 467.865 369.705C466.524 368.307 467.73 366.239 468.042 364.467C468.553 361.572 469.906 358.094 470.56 355.326C471.428 351.649 476.712 340.862 476.396 337.812C475.271 337.58 476.551 338.098 474.495 338.428L474.092 338.695C472.062 340.051 469.582 342.211 467.639 343.564C463.06 346.751 450.121 354.836 445.034 356.317C431.672 362.408 411.894 367.776 397.201 369.268C394.082 369.654 389.789 370.227 386.661 370.277C385.708 370.575 380.62 370.677 379.4 370.741C364.864 371.505 351.417 370.341 337.022 368.946C331.279 368.311 325.274 367.233 319.564 366.257C314.004 365.182 308.457 364.041 302.925 362.834C320.269 303.874 323.041 241.585 311.003 181.317C309.472 173.757 307.696 166.248 305.68 158.802C305.043 156.42 303.935 151.958 302.977 149.797C302.454 148.447 301.871 146.446 301.474 145.015C298.772 135.272 294.433 126.188 290.96 116.777C274.524 81.6824 257.698 55.0723 226.49 31.154C225.183 30.3522 223.738 29.339 222.467 28.4661C200.154 13.1388 173.28 5.7304 146.293 9.18729C144.673 9.39481 142.292 9.72579 140.705 9.75735L140.228 9.76301Z"/><path fill="#74F660" d="M140.228 9.76301C184.735 -3.7505 242.557 3.52077 286.21 17.542C291.676 19.2528 297.1 21.0939 302.478 23.0637C304.484 23.7954 307.69 24.8657 309.48 25.8024C321.06 30.07 333.083 35.7021 344.137 41.3532C406.961 73.4713 465.421 124.21 495.814 188.794C502.522 203.048 511.777 230.416 511.274 246.404C511.071 247.799 511.21 249.933 511.181 251.446L510.941 251.323L510.854 250.225L510.895 250.262L510.31 250.008C509.698 250.481 509.743 250.458 508.998 250.663C508.379 250.249 508.507 250.152 508.18 249.342C507.659 248.053 505.842 246.366 504.809 245.161C494.145 232.725 481.936 221.046 469.77 210.07C464.7 205.496 458.206 200.255 452.929 195.888C445.361 189.625 436.958 182.528 428.646 177.411C423.375 174.35 417.851 171.375 412.519 168.44C389.424 155.725 365.267 142.843 340.903 132.787C332.862 129.468 295.967 111.618 289.381 111.895C289.558 112.947 290.873 115.092 291.339 116.617L290.96 116.777C274.524 81.6824 257.698 55.0723 226.49 31.154C225.183 30.3522 223.738 29.339 222.467 28.4661C200.154 13.1388 173.28 5.7304 146.293 9.18729C144.673 9.39481 142.292 9.72579 140.705 9.75735L140.228 9.76301Z"/><path fill="#45A838" d="M140.228 9.76301C184.735 -3.7505 242.557 3.52077 286.21 17.542C291.676 19.2528 297.1 21.0939 302.478 23.0637C304.484 23.7954 307.69 24.8657 309.48 25.8024C307.873 26.2813 308.56 25.9475 307.41 25.5127C290.911 19.2757 274.02 13.9039 256.666 10.2554C251.871 9.2473 247.739 8.35873 242.836 7.56493C235.395 6.36038 228.034 4.7548 220.443 4.46819C217.598 4.28172 214.503 3.44959 211.724 3.86695C205.902 4.74107 192.984 7.77939 188.265 11.0446L188.071 11.44C188.457 11.8219 194.176 13.7383 195.524 14.0426C199.783 15.0039 225.951 27.8932 226.49 31.154C225.183 30.3522 223.738 29.339 222.467 28.4661C200.154 13.1388 173.28 5.7304 146.293 9.18729C144.673 9.39481 142.292 9.72579 140.705 9.75735L140.228 9.76301Z"/><defs><linearGradient id="gradient_1" gradientUnits="userSpaceOnUse" x1="491.49365" y1="337.72668" x2="477.93045" y2="333.16116"><stop offset="0" stop-color="#9E2224"/><stop offset="1" stop-color="#D6504F"/></linearGradient></defs><path fill="url(#gradient_1)" d="M474.495 338.428C476.538 336.258 480.083 333.411 482.459 331.021C489.705 323.655 495.792 315.232 500.512 306.04C501.884 303.333 503.099 300.742 504.292 297.958C505.118 296.03 506.153 292.883 507.056 291.134L507.285 290.698C502.866 312.577 488.558 339.973 476.079 358.315C474.327 360.889 469.861 367.616 467.865 369.705C466.524 368.307 467.73 366.239 468.042 364.467C468.553 361.572 469.906 358.094 470.56 355.326C471.428 351.649 476.712 340.862 476.396 337.812C475.271 337.58 476.551 338.098 474.495 338.428Z"/><path fill="#74F660" d="M386.661 370.277C388.633 369.018 400.13 368.723 403.807 367.523L403.723 367.347L403.375 367.265L403.45 365.734C403.606 365.426 403.7 365.283 403.984 365.076C409.253 361.245 414.488 361.061 420.744 361.726C423.133 361.98 422.596 363.007 424.377 363.227C424.941 362.999 427.039 362.212 427.534 362.14C431.215 361.602 442.356 355.98 445.034 356.317C431.672 362.408 411.894 367.776 397.201 369.268C394.082 369.654 389.789 370.227 386.661 370.277Z"/><path fill="#1A54CC" d="M140.228 9.76301L140.705 9.75735C142.292 9.72579 144.673 9.39481 146.293 9.18729C173.28 5.7304 200.154 13.1388 222.467 28.4661C223.738 29.339 225.183 30.3522 226.49 31.154C257.698 55.0723 274.524 81.6824 290.96 116.777C294.433 126.188 298.772 135.272 301.474 145.015C301.871 146.446 302.454 148.447 302.977 149.797C286.825 153.934 274.421 157.217 258.618 163.193C253.266 165.213 247.958 167.348 242.698 169.597C240.937 170.352 235.377 172.916 233.818 173.384C223.83 178.451 214.951 182.544 204.996 188.158C200.705 190.558 196.469 193.053 192.289 195.641C189.632 197.285 186.213 199.565 183.547 201.046C178.704 204.721 172.507 208.342 167.376 212.093C152.579 222.752 138.618 234.527 125.617 247.315C124.27 248.639 117.44 255.262 116.714 256.416C112.379 260.827 108.216 265.404 104.235 270.136C102.974 271.66 98.1058 277.974 96.9495 279.087C85.2092 294.671 75.6418 308.813 67.3621 326.641C66.1857 329.174 62.8976 335.894 62.1745 338.475C59.5236 345.023 58.0961 350.23 55.8762 356.791C49.0357 384.587 47.417 408.523 57.7902 435.781C60.612 442.881 64.1872 449.658 68.4546 455.995C69.8771 458.111 73.7518 463.027 74.6976 464.769C71.0472 461.757 65.434 455.241 62.424 451.553C23.9713 404.256 6.42683 342.437 1.93146 282.476C1.0143 270.242 0.984881 258.104 1.18335 245.844C1.2243 243.314 1.22109 240.699 1.4792 238.188C1.33762 235.879 1.79278 233.675 1.92986 231.373C3.44085 205.999 7.70821 180.627 14.5813 156.153C15.1917 153.979 16.4402 148.659 17.4048 146.975C18.2269 143.416 20.4416 137.535 21.7204 134.018C28.3845 115.439 37.0905 97.6581 47.6785 81.0008C48.1952 79.6625 54.444 71.029 55.5548 69.5291C71.8011 47.5923 89.7652 30.5996 114.466 18.8747C119.832 15.9843 134.239 10.8341 140.228 9.76301Z"/><path fill="#01266A" d="M140.228 9.76301L140.705 9.75735C142.292 9.72579 144.673 9.39481 146.293 9.18729C173.28 5.7304 200.154 13.1388 222.467 28.4661C223.738 29.339 225.183 30.3522 226.49 31.154C257.698 55.0723 274.524 81.6824 290.96 116.777C294.433 126.188 298.772 135.272 301.474 145.015C301.871 146.446 302.454 148.447 302.977 149.797C286.825 153.934 274.421 157.217 258.618 163.193C253.266 165.213 247.958 167.348 242.698 169.597C240.937 170.352 235.377 172.916 233.818 173.384C234.004 172.039 240.721 170.575 241.542 169.382L240.618 169.462L240.339 169.13C240.47 168.334 240.577 168.264 240.928 167.529C238.976 164.722 238.988 159.497 238.41 155.919C233.333 124.523 237.01 90.9994 221.005 62.2203C216.639 54.3704 211.018 47.0694 205.653 39.898C191.393 20.6071 168.564 14.0937 145.531 15.0959C138.011 15.4231 126.386 20.2393 118.767 18.7279C119.303 18.2206 122.39 17.4114 123.538 16.9182C122.681 16.6231 122.41 16.5347 121.53 16.3632C119.428 17.8379 117.424 18.6278 114.871 18.8425L114.466 18.8747C119.832 15.9843 134.239 10.8341 140.228 9.76301Z"/><path fill="#3778FE" d="M96.9495 279.087L96.7232 278.843C97.5547 275.972 109.622 263.969 111.436 260.745C111.671 260.329 110.135 256.663 110.036 255.622C109.891 251.099 108.703 244.94 109.12 240.548C109.526 236.286 109.364 229.868 110.064 225.898C112.331 213.038 118.707 195.725 126.017 185.265C128.195 182.13 130.829 179.338 133.832 176.982C149.704 164.75 160.132 187.093 164.569 198.946C165.527 201.504 165.682 204.797 167.261 207.047C167.73 207.714 167.899 207.665 167.969 208.541C167.141 209.524 167.197 209.514 167.653 210.613C166.107 211.453 166.075 212.09 164.716 212.874L164.625 213.275C166.725 212.752 179.537 202.421 183.426 200.685L183.547 201.046C178.704 204.721 172.507 208.342 167.376 212.093C152.579 222.752 138.618 234.527 125.617 247.315C124.27 248.639 117.44 255.262 116.714 256.416C112.379 260.827 108.216 265.404 104.235 270.136C102.974 271.66 98.1058 277.974 96.9495 279.087Z"/><path fill="#3778FE" d="M47.6785 81.0008L47.9674 81.5313C47.4452 82.5409 44.3773 87.2732 44.3612 87.707C44.3198 88.8209 45.1557 93.6452 44.8733 95.424C44.6973 96.5325 44.3143 96.9235 44.2317 97.9344C42.9258 113.909 42.8215 129.695 43.7076 145.695C43.9462 150.003 44.3255 154.223 44.6193 158.517C44.8888 162.455 44.781 166.653 45.0494 170.586C46.555 192.64 49.4788 214.276 51.867 236.23C52.0104 237.548 52.4525 240.277 52.0106 241.675C51.6523 241.898 51.3483 242.087 51.0987 242.243C49.6292 241.748 49.6273 240.849 49.0947 239.491C46.4484 232.741 44.8865 225.759 43.0346 218.745L30.0584 167.759C29.0748 164.062 28.1399 160.352 27.2541 156.63C26.4043 153.074 24.3657 142.705 20.1922 141.71C18.4789 142.914 18.8932 145.428 17.686 147.063L17.4048 146.975C18.2269 143.416 20.4416 137.535 21.7204 134.018C28.3845 115.439 37.0905 97.6581 47.6785 81.0008Z"/><path fill="#01266A" d="M1.4792 238.188C2.08661 244.152 1.5203 246.976 1.51761 252.647C1.51451 259.178 1.48101 267.512 1.90572 273.985C2.51772 284.771 3.48266 295.534 4.799 306.256C8.49246 334.663 15.7543 362.491 26.4125 389.08C28.8812 395.275 31.6355 401.351 34.6666 407.29C36.2768 410.519 37.5973 413.776 39.7616 416.606C40.8944 418.086 41.2598 421.214 42.7846 422.249C43.545 421.792 43.3095 422.106 43.5785 421.326C43.4057 420.736 43.2264 420.147 43.0406 419.56C44.3363 419.684 49.3311 423.631 51.1245 424.084L51.6747 423.783L51.7967 424.019C52.186 424.755 52.2313 424.969 52.9427 425.414L53.094 425.435C52.9662 425.016 52.8872 424.799 52.864 424.36L53.4342 423.976C53.1831 422.085 52.5381 420.667 52.1954 418.917C48.6137 400.636 49.3425 381.373 53.8779 363.32C54.4633 360.99 54.7507 358.983 55.4889 356.778C55.8568 356.766 55.7644 356.742 55.8762 356.791C49.0357 384.587 47.417 408.523 57.7902 435.781C60.612 442.881 64.1872 449.658 68.4546 455.995C69.8771 458.111 73.7518 463.027 74.6976 464.769C71.0472 461.757 65.434 455.241 62.424 451.553C23.9713 404.256 6.42683 342.437 1.93146 282.476C1.0143 270.242 0.984881 258.104 1.18335 245.844C1.2243 243.314 1.22109 240.699 1.4792 238.188Z"/><defs><linearGradient id="gradient_2" gradientUnits="userSpaceOnUse" x1="232.74113" y1="261.18921" x2="224.27811" y2="510.38489"><stop offset="0" stop-color="#B4302F"/><stop offset="1" stop-color="#DA3A3A"/></linearGradient></defs><path fill="url(#gradient_2)" d="M116.714 256.416L116.951 256.614C119.19 258.51 121.608 261.155 123.694 263.274C126.438 266.043 129.242 268.753 132.103 271.401C145.521 283.835 160.02 295.442 175.149 305.752C177.037 307.039 185.928 312.748 186.731 313.674C193.565 317.246 201.178 322.345 208.197 326.25C222.154 333.879 236.53 340.718 251.256 346.734C254.874 347.827 259.869 350.099 263.67 351.428C274.368 355.283 285.246 358.619 296.266 361.425C297.449 361.726 301.959 363.006 302.925 362.834C308.457 364.041 314.004 365.182 319.564 366.257C325.274 367.233 331.279 368.311 337.022 368.946C351.417 370.341 364.864 371.505 379.4 370.741C380.62 370.677 385.708 370.575 386.661 370.277C389.789 370.227 394.082 369.654 397.201 369.268C411.894 367.776 431.672 362.408 445.034 356.317C450.121 354.836 463.06 346.751 467.639 343.564C469.582 342.211 472.062 340.051 474.092 338.695L474.495 338.428C476.551 338.098 475.271 337.58 476.396 337.812C476.712 340.862 471.428 351.649 470.56 355.326C469.906 358.094 468.553 361.572 468.042 364.467C467.73 366.239 466.524 368.307 467.865 369.705C466.501 371.996 464.166 374.746 462.457 376.866C458.193 382.184 453.732 387.342 449.082 392.327C411.884 431.99 366.614 463.215 316.325 483.899C309.313 486.767 298.327 491.58 291.037 493.284C286.589 495.343 278.486 497.3 273.481 498.652C213.805 514.769 140.796 517.812 89.3916 478.099C84.7919 474.546 78.411 469.165 74.6976 464.769C73.7518 463.027 69.8771 458.111 68.4546 455.995C64.1872 449.658 60.612 442.881 57.7902 435.781C47.417 408.523 49.0357 384.587 55.8762 356.791C58.0961 350.23 59.5236 345.023 62.1745 338.475C62.8976 335.894 66.1857 329.174 67.3621 326.641C75.6418 308.813 85.2092 294.671 96.9495 279.087C98.1058 277.974 102.974 271.66 104.235 270.136C108.216 265.404 112.379 260.827 116.714 256.416Z"/><path fill="#F45151" d="M186.731 313.674C193.565 317.246 201.178 322.345 208.197 326.25C222.154 333.879 236.53 340.718 251.256 346.734C254.874 347.827 259.869 350.099 263.67 351.428C274.368 355.283 285.246 358.619 296.266 361.425C297.449 361.726 301.959 363.006 302.925 362.834C308.457 364.041 314.004 365.182 319.564 366.257C325.274 367.233 331.279 368.311 337.022 368.946C334.168 370.831 333.1 370.772 331.105 374.099C331.017 374.245 328.133 376.038 327.671 376.354C324.912 378.257 322.167 380.181 319.438 382.128C312.827 386.858 306.259 392.044 299.493 396.47C278.585 410.147 257.963 425.603 236.192 437.843C208.723 453.288 174.218 462.942 143.464 469.168C137.579 470.305 131.681 471.373 125.771 472.372C121.638 473.073 112.292 475.553 109.394 471.866C106.441 468.106 106.933 461.593 105.553 457.214C105.253 456.265 105.389 453.26 105.101 452.081C104.225 448.496 104.697 445.663 105.186 442.073C106.697 431.269 109.454 420.676 113.403 410.507C115.023 406.234 117.714 398.878 119.815 394.957C127.95 379.78 140.136 365.629 151.742 352.952C156.608 347.638 162.44 341.425 167.799 336.647C168.283 336.217 168.144 336.213 168.375 335.447C170.281 333.818 172.033 331.653 173.828 329.886C177.784 325.991 181.435 321.993 184.867 317.628C185.553 316.755 186.718 316.376 187.098 315.322C186.944 314.358 187.147 314.751 186.539 314.068L186.731 313.674Z"/><defs><linearGradient id="gradient_3" gradientUnits="userSpaceOnUse" x1="206.27066" y1="390.09378" x2="316.81369" y2="360.25314"><stop offset="0" stop-color="#FF8183"/><stop offset="1" stop-color="#FFA6A9"/></linearGradient></defs><path fill="url(#gradient_3)" d="M251.256 346.734C254.874 347.827 259.869 350.099 263.67 351.428C274.368 355.283 285.246 358.619 296.266 361.425C297.449 361.726 301.959 363.006 302.925 362.834C308.457 364.041 314.004 365.182 319.564 366.257C306.365 379.293 288.079 386.983 273.6 398.556C272.923 399.097 270.829 400.794 270.092 400.904C270.348 400.309 271.198 399.798 271.788 399.337L271.754 399.137C270.583 399.222 263.07 401.2 261.22 401.666C249.372 404.501 237.054 407.203 224.877 405.878C198.424 402.47 206.774 384.517 221.323 371.887C232.903 361.836 244.369 357.324 257.187 349.686C255.973 349.27 251.957 347.644 251.256 346.734Z"/><path fill="#F45151" d="M474.495 338.428C476.551 338.098 475.271 337.58 476.396 337.812C476.712 340.862 471.428 351.649 470.56 355.326C469.906 358.094 468.553 361.572 468.042 364.467C467.73 366.239 466.524 368.307 467.865 369.705C466.501 371.996 464.166 374.746 462.457 376.866C458.193 382.184 453.732 387.342 449.082 392.327C411.884 431.99 366.614 463.215 316.325 483.899C309.313 486.767 298.327 491.58 291.037 493.284C289.655 492.805 289.162 493.751 287.48 493.628L287.495 493.354L287.542 493.618L287.842 493.572L287.87 493.01C289.316 491.926 292.683 487.981 294.422 486.377C302.244 479.165 309.184 471.36 316.446 463.615C335.524 443.449 354.25 422.953 372.615 402.135L384.028 389.134C389.293 383.157 393.588 378.492 397.799 371.736C397.946 370.95 397.496 370.06 397.201 369.268C411.894 367.776 431.672 362.408 445.034 356.317C450.121 354.836 463.06 346.751 467.639 343.564C469.582 342.211 472.062 340.051 474.092 338.695L474.495 338.428Z"/><path fill="#F45151" d="M62.1745 338.475C62.6145 339.986 61.5872 340.666 61.3852 342.121C62.3997 343.088 70.5681 346.919 72.6332 347.83C79.6418 350.858 94.5132 349.934 94.6352 360.339C94.7011 365.958 92.2658 371.457 90.1111 376.53C83.7015 391.622 74.4486 404.742 66.3602 418.87C63.4544 423.946 62.2705 429.95 58.9927 434.742C58.9833 434.757 57.9729 435.576 57.7902 435.781C47.417 408.523 49.0357 384.587 55.8762 356.791C58.0961 350.23 59.5236 345.023 62.1745 338.475Z"/></svg>